<svg width="228" height="70" viewBox="0 0 228 70" fill="none" xmlns="http://www.w3.org/2000/svg">
<path d="M90.2307 35.5544C89.3995 33.8104 88.36 32.6608 88.0369 32.3159C87.7067 31.9661 86.4986 30.7211 84.5108 29.7036C81.9048 28.3705 79.4347 28.1895 78.0158 28.2017H68.5005L68.7299 55.2543H78.2453C80.1511 55.2543 81.7456 54.8948 83.4923 54.1903C85.3256 53.4468 86.8475 52.4219 88.0603 51.1011C89.2708 49.7753 90.1605 48.3053 90.7341 46.686C91.2984 45.0668 91.5864 43.4084 91.5864 41.7207C91.5864 40.033 91.2984 38.3746 90.7248 36.7456C90.5796 36.3395 90.4157 35.9408 90.2307 35.5544ZM82.6939 42.3004C82.3825 42.9755 82.7384 44.8418 82.4714 45.9596C82.1694 47.2193 81.6028 48.6624 80.9987 48.5695C80.4017 48.4765 81.1088 44.4308 78.9313 44.4406C76.8077 44.4504 77.4609 48.479 76.8639 48.5695C76.2621 48.6624 75.6932 47.2193 75.3911 45.9596C75.1242 44.8418 75.4801 42.9755 75.1687 42.3004C73.2816 38.2156 74.677 36.0778 75.7494 35.9139C76.817 35.7525 77.8683 36.4789 78.9313 36.4961C80.1207 36.5156 81.0455 35.7525 82.1132 35.9139C83.1832 36.0778 84.581 38.2156 82.6939 42.3004Z" fill="#0D3082"/>
<path d="M117.521 31.0149C116.353 29.8531 114.974 28.9407 113.379 28.2803C111.794 27.6199 110.078 27.2848 108.226 27.2701C106.374 27.2579 104.646 27.5685 103.052 28.2069C101.457 28.8453 100.073 29.7283 98.8911 30.8657C97.7157 32.0031 96.7745 33.319 96.0627 34.8087C95.1168 36.8339 94.6345 39.0451 94.6181 41.4568C94.6017 43.8539 95.0559 46.0553 95.9761 48.0708C96.6668 49.5702 97.594 50.9057 98.753 52.0602C99.9213 53.2147 101.523 54.1197 103.108 54.7777C104.693 55.4381 106.416 55.7732 108.268 55.7879C110.31 55.8025 112.211 55.4039 113.972 54.6016C115.74 53.8066 117.002 52.6864 118.231 51.2481C118.596 50.8152 118.945 50.3602 119.263 49.8784C119.287 49.8466 119.31 49.8148 119.324 49.7756L113.576 45.9819C113.279 46.4711 112.944 46.9041 112.581 47.2954C112.27 47.633 111.921 47.9387 111.551 48.2053C110.568 48.9171 109.411 49.2669 108.086 49.2571C106.519 49.2449 105.21 48.763 104.178 47.7968C103.136 46.8331 102.405 45.6175 101.993 44.1499L121.633 44.2893L121.635 43.871L121.673 41.6476C121.689 39.2359 121.235 37.0174 120.315 34.9774C119.624 33.4976 118.697 32.1792 117.521 31.0149ZM102.291 37.8979C102.804 36.6676 103.572 35.677 104.578 34.9089C105.592 34.1409 106.793 33.7618 108.186 33.7716C109.596 33.7813 110.797 34.1776 111.787 34.9432C112.778 35.7186 113.525 36.7263 114.021 37.9811L102.291 37.8979Z" fill="#0D3082"/>
<path d="M141.706 28.8917C140.004 27.9794 138.044 27.5146 135.829 27.5146C134.307 27.5146 132.418 28.1359 131.446 29.7111L131.364 28.0674H124.698L124.928 55.2032H131.594L131.364 39.0059C131.364 37.5652 131.748 36.3618 132.509 35.3932C133.27 34.4246 134.392 33.9451 135.876 33.9451C137.368 33.9451 138.482 34.4246 139.213 35.3932C139.95 36.3618 140.32 37.5652 140.32 39.0059L140.55 55.2032H147.269L147.04 37.8196C147.04 35.9313 146.572 34.1995 145.654 32.6341C144.727 31.054 143.408 29.8114 141.706 28.8917Z" fill="#0D3082"/>
<path d="M186.687 28.765C185.015 27.931 183.072 27.5127 180.871 27.5127C179.937 27.5127 178.958 27.6228 177.926 27.8356C175.327 28.3712 173.384 29.3937 172.086 30.9273C170.782 32.4536 170.136 34.3908 170.136 36.7194C170.181 37.5853 170.218 38.4585 170.258 39.3317C172.51 38.505 174.763 37.688 177.008 36.8686C177.008 36.7977 177.001 36.7194 177.008 36.6411C177.008 36.5457 177.015 36.4601 177.022 36.3818C177.045 36.1299 177.09 35.9244 177.134 35.7924C177.195 35.604 177.331 35.1931 177.685 34.8409C177.783 34.7381 177.888 34.6525 178.008 34.5743C178.663 34.156 179.628 33.9456 180.892 33.9456C182.03 33.9456 182.995 34.1829 183.777 34.655C184.561 35.1271 185.034 35.7973 185.193 36.6705L178.209 38.2848C175.58 38.8816 173.433 39.9065 171.775 41.3545C170.11 42.8026 169.281 44.6444 169.281 46.8947C169.281 48.602 169.703 50.1283 170.546 51.4736C171.398 52.8189 172.817 53.8731 174.353 54.6362C175.889 55.3921 177.638 55.7785 179.595 55.7785C180.642 55.7785 181.667 55.622 182.662 55.3138C183.658 55.0154 184.362 54.5824 185.236 54.0394L185.465 55.2037H192.161L191.932 37.2918C191.932 35.4108 191.48 33.7279 190.569 32.2481C189.663 30.7634 188.366 29.6089 186.687 28.765ZM185.24 42.9933C185.24 44.0867 185.015 45.1189 184.554 46.0875C184.095 47.0561 183.416 47.8413 182.536 48.4406C181.646 49.0472 180.593 49.3456 179.373 49.3456C178.408 49.3456 177.64 49.1401 177.06 48.717C176.479 48.2913 176.193 47.6945 176.193 46.9143C176.193 46.222 176.554 45.6228 177.284 45.1189C178.015 44.615 178.881 44.2457 179.9 44.0182L185.24 42.7757V42.9933Z" fill="#0D3082"/>
<path d="M196.009 20.0515L196.238 55.2003H202.682V23.5322L196.009 20.0515Z" fill="#0D3082"/>
<path d="M149.45 35.2635H154.444L154.671 55.8244H161.429L161.199 35.2635H166.488V28.2043H149.45V35.2635Z" fill="#0D3082"/>
<path d="M82.1116 35.9138C81.0439 35.7523 80.1191 36.5155 78.9296 36.4959C77.8667 36.4788 76.813 35.7523 75.7477 35.9138C74.6777 36.0777 73.2799 38.2154 75.1671 42.3002C75.4785 42.9753 75.1226 44.8416 75.3895 45.9594C75.6915 47.2191 76.2581 48.6623 76.8622 48.5693C77.4569 48.4764 76.806 44.4503 78.9296 44.4405C81.1071 44.4307 80.4 48.4788 80.9971 48.5693C81.6012 48.6623 82.1678 47.2191 82.4698 45.9594C82.7391 44.8416 82.3808 42.9753 82.6922 42.3002C84.5794 38.2154 83.1816 36.0777 82.1116 35.9138Z" fill="white"/>
<path d="M72.7101 20.1493C71.7291 20.1493 70.7996 19.5818 69.9216 18.3906L68.3599 20.4428C68.6572 20.9565 70.254 22.7885 72.7078 22.7885C75.3371 22.7885 77.058 20.773 77.058 18.5007C77.058 15.5704 75.0936 14.8562 72.9888 14.0123C72.1131 13.665 71.8672 13.2981 71.8672 12.804C71.8672 12.4004 72.3051 11.943 72.9888 11.943C73.8644 11.943 74.602 12.5105 74.9532 12.8945L76.461 10.7323C74.8993 9.23042 73.4102 9.3038 73.0239 9.3038C70.7972 9.3038 69.0599 10.6956 69.0599 12.8578C69.0599 14.9834 70.3219 15.9716 72.8483 16.9793C73.8129 17.3633 74.2507 17.8036 74.2507 18.6817C74.2531 19.3617 73.7099 20.1493 72.7101 20.1493Z" fill="#FC5122"/>
<path d="M81.6441 22.7886C82.6954 22.7886 83.6085 22.2015 84.03 21.4702V22.495H86.835V13.4082H84.03V18.0972C84.03 19.599 83.2058 20.1493 82.6275 20.1493C82.0141 20.1493 81.225 19.8558 81.225 18.3907V13.4082H78.4177V18.6842C78.4177 21.431 79.8717 22.7886 81.6441 22.7886Z" fill="#FC5122"/>
<path d="M98.1391 17.9507C98.1391 15.2772 96.4018 13.115 94.0886 13.115C93.0185 13.115 92.1429 13.6458 91.6863 14.3233V13.4085H88.8813V27.1843H91.6863V21.5781C92.1429 22.2556 93.0185 22.7864 94.0886 22.7864C96.4042 22.7889 98.1391 20.6266 98.1391 17.9507ZM93.5102 20.1496C92.4941 20.1496 91.6863 19.1615 91.6863 17.9507C91.6863 16.7424 92.4941 15.7518 93.5102 15.7518C94.5264 15.7518 95.3342 16.7399 95.3342 17.9507C95.3342 19.1615 94.5287 20.1496 93.5102 20.1496Z" fill="#FC5122"/>
<path d="M103.93 22.7896C105.332 22.7896 106.578 22.1121 107.297 21.2682L105.613 19.5462C105.175 19.9131 104.667 20.1504 104.035 20.1504C102.949 20.1504 102.317 19.6367 102.071 18.9054H107.894C107.999 18.5752 108.034 18.0077 108.034 17.6237C108.015 14.8768 106.194 13.1182 103.719 13.1182C100.949 13.1182 99.1956 15.2804 99.1956 17.9539C99.1956 20.6273 101.09 22.7896 103.93 22.7896ZM103.792 15.7549C104.702 15.7549 105.178 16.3053 105.318 16.9999H102.038C102.265 16.2661 102.792 15.7549 103.792 15.7549Z" fill="#FC5122"/>
<path d="M111.97 18.9585C111.97 17.53 112.742 16.6323 113.531 16.3388C114.039 16.1554 114.707 16.1382 115.339 16.3388V13.115C113.62 13.2251 112.55 13.7754 111.972 15.0375V13.4085H109.167V22.4953H111.972V18.9585H111.97Z" fill="#FC5122"/>
<path d="M211.886 54.9584C210.284 54.2001 208.936 53.1728 207.845 51.874C206.754 50.5752 205.943 49.1174 205.419 47.503L205.323 47.2021L211.277 44.0811L211.469 44.58L211.851 45.5535C212.345 46.7692 213.038 47.7427 213.93 48.4765C214.822 49.2103 215.922 49.5748 217.229 49.5748C218.137 49.5748 218.903 49.3864 219.523 49.0122C220.146 48.6379 220.455 48.1096 220.455 47.4272C220.455 46.9453 220.184 46.5271 219.643 46.1773C219.42 46.0281 219.137 45.8935 218.793 45.7786C218.451 45.6612 218.112 45.5535 217.777 45.4533L214.024 44.355C211.759 43.6897 209.994 42.6648 208.727 41.2829C207.461 39.9009 206.826 38.1936 206.826 36.1634C206.826 34.5148 207.234 33.0448 208.046 31.7557C208.858 30.4667 209.999 29.459 211.464 28.7325C212.93 28.0085 214.621 27.6465 216.533 27.6465C218.669 27.6465 220.593 28.1259 222.307 29.0823C224.021 30.0411 225.379 31.3522 226.384 33.0154C226.782 33.6636 227.156 34.4806 227.507 35.4639L227.723 36.1145L221.649 39.0864L221.507 38.5629L221.34 38.0395C220.959 36.8581 220.364 35.8992 219.559 35.1679C218.753 34.4365 217.746 34.0696 216.533 34.0696C215.737 34.0696 215.079 34.2311 214.562 34.5564C214.045 34.8817 213.785 35.3342 213.785 35.9164C213.785 36.4325 213.984 36.8409 214.382 37.1394C214.78 37.4402 215.386 37.7386 216.199 38.0395C216.629 38.1887 217.29 38.3966 218.184 38.6632C219.189 38.9787 219.842 39.1866 220.144 39.2869C224.988 40.8866 227.411 43.6334 227.411 47.5299C227.411 49.2127 226.969 50.7023 226.084 52.0012C225.199 53.3 223.984 54.3077 222.438 55.0244C220.893 55.7411 219.156 56.0982 217.227 56.0982C215.269 56.0957 213.487 55.7166 211.886 54.9584Z" fill="#FC5122"/>
<path d="M56.5826 7.27398C54.8382 3.83737 51.8296 1.56261 48.3269 1.02938C44.8031 0.496155 41.0944 1.67757 37.5121 2.82229C34.8312 3.67838 32.0778 4.56383 29.5444 4.65189C27.5098 3.22588 25.6016 2.05914 22.7615 1.20549C20.9329 0.655145 17.9148 -0.284114 14.1827 0.0827838C12.5765 0.239327 10.0619 0.486371 7.39741 2.18633C4.20612 4.21895 2.73574 7.1101 2.0708 8.45784C1.69383 9.21854 0.097021 12.5916 0.188334 19.093C0.237503 22.5296 2.41498 35.0775 5.62265 42.0975C6.70905 40.7008 6.16351 32.7514 7.2499 31.3547C7.18669 30.0632 7.12113 28.7742 7.05791 27.4827C6.35784 25.9662 5.88489 24.5402 5.56178 23.2805C5.42832 22.762 5.21525 22.3168 5.07009 20.8737C4.946 19.6287 4.47304 15.1183 6.30165 11.2927C6.83782 10.17 7.84695 8.05914 10.0619 6.49127C14.1593 3.59277 19.0785 4.90382 20.8743 5.38079C23.197 5.99962 24.8921 7.02694 25.7678 7.55527C28.1935 9.02776 30.1438 10.8182 31.8179 12.3543C31.8881 12.4179 31.956 12.4815 32.0263 12.5475C33.4569 13.8561 34.7071 14.9813 35.9715 15.5781L37.7416 11.4811L37.765 11.4248C37.0345 11.0775 35.8989 10.0355 34.6954 8.93481C34.5456 8.79539 34.3911 8.65597 34.2342 8.51165C35.7701 8.13497 37.292 7.65556 38.7858 7.17859C42.052 6.1366 45.1403 5.15087 47.6971 5.53733C48.6945 5.69143 51.1834 6.37386 52.7287 9.40933C53.9696 11.8529 55.2152 17.2927 51.3379 27.7567L51.2325 27.72C51.2138 27.7811 49.1885 34.0111 44.9787 34.9992L45.9364 39.4485C46.7652 39.2528 47.5308 38.952 48.2403 38.5728C48.2496 38.8272 48.2637 39.0791 48.2754 39.3311C48.3643 41.0922 48.4533 42.912 47.8212 45.5488L47.5589 46.647C46.8448 49.6507 46.0347 53.0555 45.0958 55.7999C43.8876 59.3368 43.0331 60.0779 42.8411 60.2051C41.0054 60.166 40.4622 58.7498 39.9846 52.899C39.5842 48.0094 38.9895 40.8207 32.4571 39.7542L29.6521 44.3551C29.9823 44.2426 30.3241 44.1741 30.687 44.1717H30.7245C34.4964 44.1717 35.1192 46.9552 35.639 53.2854C36.0347 58.1285 36.5802 64.762 42.923 64.762H42.9394C47.4208 64.7547 49.3547 58.016 51.7945 47.7428L52.0543 46.6519C52.8457 43.3572 52.7287 40.9919 52.635 39.0938C52.5484 37.3792 52.4945 36.2491 53.1056 34.9234C60.0056 19.9931 58.8045 11.6474 56.5826 7.27398Z" fill="#0D3082"/>
<path d="M19.1173 69.3729C14.6312 63.9795 0 46.7329 0 36.5821C0 24.6383 9.03768 14.9229 20.1475 14.9229C31.2573 14.9229 40.295 24.6383 40.295 36.5821C40.295 46.7329 25.6637 63.9771 21.1777 69.3729C20.9178 69.686 20.5408 69.8646 20.1451 69.8646C19.7518 69.8646 19.3772 69.686 19.1173 69.3729Z" fill="white"/>
<path d="M37.2863 36.7442C37.2863 26.3805 29.4427 17.9517 19.8033 17.9517C10.1639 17.9517 2.32031 26.383 2.32031 36.7442C2.32031 45.5522 15.0176 61.5073 18.9066 66.189C19.1313 66.4605 19.4591 66.617 19.801 66.617C20.1428 66.617 20.4706 66.4605 20.6954 66.189C24.5891 61.5098 37.2863 45.5522 37.2863 36.7442ZM11.8192 35.279C11.8192 30.3088 15.6895 26.2631 20.4495 26.2631C25.2095 26.2631 29.0798 30.3063 29.0798 35.279C29.0798 40.2517 25.2095 44.2949 20.4495 44.2949C15.6895 44.2949 11.8192 40.2493 11.8192 35.279Z" fill="#FC5122"/>
</svg>
