<svg width="466" height="144" viewBox="0 0 466 144" fill="none" xmlns="http://www.w3.org/2000/svg">
<path d="M184.707 73.4664C183.006 69.8984 180.879 67.5464 180.218 66.8408C179.543 66.1252 177.071 63.5781 173.004 61.4963C167.673 58.769 162.619 58.3987 159.716 58.4237H140.249L140.718 113.77H160.186C164.085 113.77 167.347 113.035 170.921 111.594C174.671 110.072 177.785 107.975 180.266 105.273C182.743 102.561 184.563 99.5534 185.737 96.2406C186.891 92.9278 187.48 89.5349 187.48 86.082C187.48 82.6291 186.891 79.2363 185.717 75.9035C185.42 75.0728 185.085 74.2571 184.707 73.4664ZM169.287 87.268C168.65 88.6492 169.378 92.4674 168.832 94.7543C168.214 97.3315 167.055 100.284 165.819 100.094C164.597 99.9037 166.044 91.6267 161.589 91.6467C157.245 91.6667 158.581 99.9087 157.36 100.094C156.128 100.284 154.964 97.3315 154.347 94.7543C153.8 92.4674 154.529 88.6492 153.891 87.268C150.031 78.911 152.886 74.5373 155.079 74.202C157.264 73.8717 159.415 75.358 161.589 75.393C164.023 75.4331 165.915 73.8717 168.099 74.202C170.288 74.5373 173.148 78.911 169.287 87.268Z" fill="#0D3082"/>
<path d="M240.541 64.1788C238.15 61.8018 235.329 59.9352 232.067 58.5841C228.824 57.2329 225.313 56.5473 221.524 56.5173C217.734 56.4923 214.199 57.1278 210.937 58.4339C207.675 59.74 204.844 61.5465 202.425 63.8735C200.02 66.2005 198.095 68.8927 196.639 71.9403C194.703 76.0838 193.717 80.6076 193.683 85.5417C193.649 90.4459 194.579 94.9497 196.461 99.0731C197.874 102.141 199.771 104.873 202.142 107.235C204.533 109.597 207.809 111.449 211.052 112.795C214.295 114.146 217.821 114.831 221.61 114.861C225.787 114.891 229.676 114.076 233.279 112.434C236.895 110.808 239.477 108.516 241.992 105.574C242.739 104.688 243.453 103.757 244.104 102.771C244.152 102.706 244.2 102.641 244.229 102.561L232.469 94.7995C231.861 95.8004 231.176 96.6861 230.433 97.4868C229.796 98.1774 229.082 98.8029 228.326 99.3484C226.314 100.805 223.947 101.52 221.236 101.5C218.031 101.475 215.354 100.489 213.241 98.5127C211.11 96.541 209.615 94.0539 208.772 91.0514L248.952 91.3366L248.957 90.4809L249.034 85.9321C249.067 80.9979 248.138 76.4591 246.255 72.2856C244.842 69.258 242.945 66.5608 240.541 64.1788ZM209.38 78.2606C210.429 75.7435 212.001 73.7168 214.06 72.1455C216.135 70.5741 218.592 69.7985 221.442 69.8185C224.326 69.8385 226.783 70.6492 228.809 72.2155C230.836 73.8019 232.364 75.8636 233.379 78.4308L209.38 78.2606Z" fill="#0D3082"/>
<path d="M290.019 59.8347C286.537 57.9681 282.528 57.0173 277.996 57.0173C274.883 57.0173 271.017 58.2884 269.029 61.5111L268.861 58.1483H255.224L255.693 113.665H269.331L268.861 80.5271C268.861 77.5796 269.647 75.1176 271.204 73.1359C272.76 71.1542 275.055 70.1734 278.092 70.1734C281.143 70.1734 283.423 71.1542 284.918 73.1359C286.427 75.1176 287.184 77.5796 287.184 80.5271L287.653 113.665H301.401L300.932 78.1001C300.932 74.2368 299.973 70.6938 298.096 67.4911C296.199 64.2584 293.502 61.7163 290.019 59.8347Z" fill="#0D3082"/>
<path d="M382.047 59.5761C378.627 57.8696 374.651 57.0139 370.148 57.0139C368.237 57.0139 366.234 57.2391 364.122 57.6745C358.805 58.7704 354.829 60.8622 352.175 63.9998C349.507 67.1224 348.185 71.0858 348.185 75.8498C348.276 77.6213 348.353 79.4078 348.434 81.1943C353.042 79.5029 357.65 77.8314 362.244 76.155C362.244 76.0099 362.23 75.8498 362.244 75.6896C362.244 75.4945 362.258 75.3193 362.273 75.1592C362.321 74.6438 362.412 74.2234 362.503 73.9532C362.627 73.5679 362.905 72.7271 363.628 72.0065C363.83 71.7964 364.045 71.6212 364.29 71.4611C365.631 70.6054 367.604 70.175 370.191 70.175C372.519 70.175 374.493 70.6604 376.093 71.6262C377.697 72.592 378.665 73.9632 378.991 75.7497L364.701 79.0525C359.322 80.2735 354.93 82.3703 351.538 85.3328C348.132 88.2953 346.437 92.0634 346.437 96.6673C346.437 100.16 347.299 103.283 349.023 106.035C350.767 108.788 353.67 110.944 356.812 112.506C359.954 114.052 363.533 114.843 367.537 114.843C369.678 114.843 371.777 114.522 373.812 113.892C375.848 113.281 377.29 112.396 379.077 111.285L379.546 113.667H393.246L392.777 77.0208C392.777 73.1725 391.852 69.7296 389.989 66.7021C388.135 63.6645 385.481 61.3025 382.047 59.5761ZM379.086 88.6856C379.086 90.9225 378.626 93.0342 377.683 95.0159C376.744 96.9976 375.355 98.6039 373.554 99.83C371.733 101.071 369.578 101.682 367.082 101.682C365.109 101.682 363.537 101.261 362.35 100.395C361.162 99.5247 360.577 98.3037 360.577 96.7073C360.577 95.2911 361.315 94.0651 362.809 93.0342C364.304 92.0034 366.076 91.2477 368.16 90.7823L379.086 88.2402V88.6856Z" fill="#0D3082"/>
<path d="M401.117 41.7495L401.587 113.66H414.769V48.8705L401.117 41.7495Z" fill="#0D3082"/>
<path d="M305.862 72.8709H316.08L316.544 114.936H330.369L329.899 72.8709H340.72V58.4287H305.862V72.8709Z" fill="#0D3082"/>
<path d="M168.096 74.2014C165.911 73.8711 164.019 75.4325 161.586 75.3924C159.411 75.3574 157.256 73.8711 155.076 74.2014C152.887 74.5367 150.027 78.9104 153.888 87.2674C154.525 88.6486 153.797 92.4668 154.343 94.7537C154.961 97.3309 156.12 100.283 157.356 100.093C158.573 99.9031 157.241 91.6661 161.586 91.6461C166.041 91.6261 164.594 99.9081 165.816 100.093C167.051 100.283 168.211 97.3309 168.829 94.7537C169.379 92.4668 168.647 88.6486 169.284 87.2674C173.145 78.9104 170.285 74.5367 168.096 74.2014Z" fill="white"/>
<path d="M148.862 41.9482C146.855 41.9482 144.953 40.7872 143.157 38.3501L139.962 42.5487C140.57 43.5996 143.837 47.3477 148.857 47.3477C154.237 47.3477 157.757 43.2243 157.757 38.5753C157.757 32.5803 153.738 31.1191 149.432 29.3926C147.641 28.682 147.138 27.9314 147.138 26.9205C147.138 26.0948 148.033 25.159 149.432 25.159C151.224 25.159 152.733 26.32 153.451 27.1057L156.536 22.682C153.341 19.6094 150.294 19.7595 149.504 19.7595C144.948 19.7595 141.394 22.6069 141.394 27.0306C141.394 31.3793 143.976 33.401 149.145 35.4627C151.118 36.2484 152.014 37.1491 152.014 38.9456C152.019 40.3368 150.907 41.9482 148.862 41.9482Z" fill="#FC5122"/>
<path d="M167.139 47.3484C169.29 47.3484 171.158 46.1474 172.021 44.6511V46.7479H177.759V28.1572H172.021V37.7503C172.021 40.8229 170.334 41.9488 169.151 41.9488C167.896 41.9488 166.282 41.3483 166.282 38.3508V28.1572H160.539V38.9513C160.539 44.571 163.513 47.3484 167.139 47.3484Z" fill="#FC5122"/>
<path d="M200.887 37.4512C200.887 31.9816 197.333 27.5579 192.6 27.5579C190.411 27.5579 188.619 28.6438 187.685 30.0299V28.1584H181.947V56.3421H187.685V44.8724C188.619 46.2586 190.411 47.3445 192.6 47.3445C197.338 47.3495 200.887 42.9258 200.887 37.4512ZM191.417 41.95C189.338 41.95 187.685 39.9283 187.685 37.4512C187.685 34.9791 189.338 32.9524 191.417 32.9524C193.496 32.9524 195.149 34.9741 195.149 37.4512C195.149 39.9283 193.501 41.95 191.417 41.95Z" fill="#FC5122"/>
<path d="M212.733 47.3504C215.602 47.3504 218.151 45.9642 219.621 44.2378L216.177 40.7148C215.281 41.4654 214.242 41.9508 212.949 41.9508C210.726 41.9508 209.433 40.9 208.93 39.4037H220.843C221.058 38.7281 221.13 37.5671 221.13 36.7815C221.092 31.1617 217.365 27.5637 212.302 27.5637C206.635 27.5637 203.047 31.9874 203.047 37.4571C203.047 42.9267 206.923 47.3504 212.733 47.3504ZM212.45 32.9583C214.314 32.9583 215.286 34.0842 215.574 35.5054H208.863C209.327 34.0041 210.405 32.9583 212.45 32.9583Z" fill="#FC5122"/>
<path d="M229.182 39.5129C229.182 36.5905 230.762 34.7539 232.377 34.1534C233.416 33.7781 234.781 33.7431 236.075 34.1534V27.5579C232.559 27.7831 230.37 28.909 229.186 31.4912V28.1584H223.448V46.749H229.186V39.5129H229.182Z" fill="#FC5122"/>
<path d="M433.6 113.165C430.323 111.614 427.564 109.512 425.332 106.855C423.1 104.198 421.442 101.215 420.369 97.9123L420.173 97.2968L432.354 90.9114L432.747 91.9323L433.528 93.9239C434.539 96.411 435.956 98.4027 437.782 99.904C439.607 101.405 441.858 102.151 444.531 102.151C446.39 102.151 447.956 101.766 449.225 101C450.499 100.234 451.132 99.1533 451.132 97.7572C451.132 96.7713 450.576 95.9156 449.47 95.2C449.015 94.8947 448.435 94.6195 447.731 94.3843C447.031 94.1441 446.337 93.9239 445.652 93.7188L437.973 91.4719C433.341 90.1107 429.729 88.0139 427.138 85.1866C424.546 82.3592 423.248 78.8663 423.248 74.7128C423.248 71.3399 424.082 68.3324 425.744 65.6952C427.406 63.0579 429.739 60.9962 432.738 59.51C435.736 58.0287 439.195 57.2881 443.108 57.2881C447.477 57.2881 451.414 58.2689 454.921 60.2256C458.427 62.1872 461.206 64.8695 463.26 68.2723C464.075 69.5985 464.841 71.2699 465.56 73.2815L466 74.6127L453.575 80.6928L453.283 79.6219L452.942 78.551C452.162 76.134 450.945 74.1723 449.297 72.676C447.649 71.1798 445.59 70.4291 443.108 70.4291C441.48 70.4291 440.134 70.7594 439.075 71.425C438.016 72.0905 437.485 73.0163 437.485 74.2073C437.485 75.2632 437.892 76.0989 438.706 76.7094C439.52 77.325 440.761 77.9355 442.423 78.551C443.305 78.8562 444.655 79.2816 446.485 79.8271C448.54 80.4726 449.877 80.898 450.495 81.1031C460.406 84.3759 465.363 89.9956 465.363 97.9673C465.363 101.41 464.458 104.458 462.647 107.115C460.837 109.772 458.351 111.834 455.189 113.3C452.028 114.766 448.473 115.497 444.526 115.497C440.522 115.492 436.876 114.716 433.6 113.165Z" fill="#FC5122"/>
<path d="M115.867 15.6078C112.298 8.57691 106.143 3.92299 98.9767 2.83207C91.7674 1.74115 84.1798 4.15819 76.8508 6.50016C71.3661 8.25163 65.7328 10.0632 60.5499 10.2433C56.3872 7.32585 52.4832 4.93884 46.6727 3.19237C42.9316 2.06643 36.757 0.144809 29.1215 0.895441C25.8354 1.21571 20.6908 1.72114 15.2396 5.19906C8.71056 9.35756 5.70232 15.2725 4.34191 18.0299C3.5707 19.5862 0.303794 26.487 0.490611 39.7882C0.591205 46.8191 5.04607 72.4907 11.6086 86.8528C13.8313 83.9954 12.7151 67.7317 14.9378 64.8743C14.8085 62.2321 14.6743 59.5949 14.545 56.9526C13.1127 53.85 12.1451 50.9326 11.4841 48.3554C11.211 47.2945 10.7751 46.3837 10.4781 43.4313C10.2243 40.8841 9.25664 31.6563 12.9978 23.8297C14.0947 21.5328 16.1593 17.2142 20.6908 14.0065C29.0736 8.07649 39.1378 10.7587 42.8118 11.7346C47.5637 13.0006 51.0318 15.1024 52.8233 16.1833C57.7859 19.1958 61.7761 22.8589 65.2011 26.0016C65.3448 26.1317 65.4837 26.2618 65.6274 26.3969C68.5543 29.0742 71.1122 31.3761 73.6989 32.5971L77.3203 24.2151L77.3682 24.1C75.8736 23.3894 73.5504 21.2576 71.0882 19.0057C70.7817 18.7204 70.4655 18.4352 70.1446 18.14C73.2869 17.3693 76.4006 16.3885 79.4567 15.4127C86.139 13.2809 92.4572 11.2642 97.6881 12.0548C99.7287 12.3701 104.821 13.7663 107.982 19.9765C110.521 24.9757 113.069 36.1051 105.137 57.5131L104.921 57.438C104.883 57.5631 100.739 70.3089 92.1267 72.3306L94.0859 81.4332C95.7816 81.0329 97.348 80.4174 98.7994 79.6417C98.8186 80.1622 98.8473 80.6776 98.8713 81.193C99.0533 84.7961 99.2353 88.5192 97.942 93.9137L97.4055 96.1606C95.9445 102.306 94.2871 109.272 92.3662 114.886C89.8945 122.122 88.1461 123.639 87.7533 123.899C83.9978 123.819 82.8865 120.921 81.9093 108.951C81.0901 98.948 79.8734 84.2406 66.5088 82.0588L60.7702 91.4717C61.4456 91.2415 62.145 91.1014 62.8875 91.0964H62.9641C70.6811 91.0964 71.9553 96.7912 73.0187 109.742C73.8282 119.65 74.9443 133.222 87.9209 133.222H87.9545C97.1229 133.207 101.08 119.42 106.071 98.4025L106.603 96.1707C108.222 89.43 107.982 84.5909 107.791 80.7076C107.613 77.1997 107.503 74.8877 108.753 72.1754C122.87 41.6297 120.413 24.5554 115.867 15.6078Z" fill="#0D3082"/>
<path d="M39.2168 142.655C30.0388 131.621 0.10498 96.3361 0.10498 75.5686C0.10498 51.1331 18.5951 31.2563 41.3245 31.2563C64.0539 31.2563 82.544 51.1331 82.544 75.5686C82.544 96.3361 52.6101 131.616 43.4321 142.655C42.9004 143.296 42.1292 143.661 41.3197 143.661C40.5149 143.661 39.7485 143.296 39.2168 142.655Z" fill="white"/>
<path d="M76.3885 75.9002C76.3885 54.6974 60.3415 37.4529 40.6203 37.4529C20.8991 37.4529 4.85205 54.7024 4.85205 75.9002C4.85205 93.9204 30.8292 126.563 38.7857 136.141C39.2455 136.696 39.9161 137.017 40.6155 137.017C41.3149 137.017 41.9855 136.696 42.4454 136.141C50.4114 126.568 76.3885 93.9204 76.3885 75.9002ZM24.2858 72.9027C24.2858 62.7342 32.204 54.4572 41.9424 54.4572C51.6808 54.4572 59.599 62.7292 59.599 72.9027C59.599 83.0763 51.6808 91.3483 41.9424 91.3483C32.204 91.3483 24.2858 83.0713 24.2858 72.9027Z" fill="#FC5122"/>
</svg>
