<svg width="268" height="83" viewBox="0 0 268 83" fill="none" xmlns="http://www.w3.org/2000/svg">
<path d="M106.19 41.8437C105.212 39.7913 103.988 38.4383 103.608 38.0324C103.219 37.6208 101.798 36.1556 99.4583 34.9581C96.3914 33.3892 93.4844 33.1762 91.8145 33.1906H80.6162L80.8863 65.028H92.0846C94.3275 65.028 96.204 64.6049 98.2596 63.7759C100.417 62.9008 102.208 61.6946 103.636 60.1402C105.06 58.58 106.107 56.8499 106.782 54.9443C107.446 53.0386 107.785 51.0869 107.785 49.1007C107.785 47.1144 107.446 45.1627 106.771 43.2456C106.6 42.7677 106.408 42.2985 106.19 41.8437ZM97.32 49.7829C96.9535 50.5774 97.3723 52.7738 97.0582 54.0893C96.7028 55.5718 96.0359 57.2702 95.325 57.1608C94.6224 57.0514 95.4545 52.2902 92.8919 52.3017C90.3927 52.3132 91.1615 57.0543 90.4588 57.1608C89.7507 57.2702 89.0811 55.5718 88.7256 54.0893C88.4115 52.7738 88.8303 50.5774 88.4638 49.7829C86.2429 44.9756 87.8852 42.4597 89.1472 42.2669C90.4037 42.0769 91.6409 42.9318 92.8919 42.952C94.2917 42.975 95.3801 42.0769 96.6366 42.2669C97.8959 42.4597 99.5409 44.9756 97.32 49.7829Z" fill="#D9D9D9"/>
<path d="M138.308 36.5009C136.933 35.1336 135.31 34.0599 133.434 33.2827C131.568 32.5054 129.549 32.1111 127.369 32.0938C125.189 32.0794 123.156 32.445 121.279 33.1963C119.403 33.9476 117.774 34.9868 116.383 36.3254C115 37.6639 113.892 39.2126 113.054 40.9657C111.941 43.3492 111.373 45.9514 111.354 48.7897C111.335 51.6108 111.869 54.2015 112.952 56.5735C113.765 58.3381 114.856 59.9098 116.22 61.2685C117.595 62.6272 119.48 63.6923 121.345 64.4667C123.211 65.2439 125.239 65.6382 127.419 65.6555C129.821 65.6728 132.059 65.2036 134.131 64.2594C136.211 63.3238 137.697 62.0054 139.143 60.3128C139.573 59.8033 139.984 59.2679 140.358 58.7008C140.386 58.6634 140.413 58.626 140.43 58.5799L133.665 54.1152C133.315 54.6909 132.921 55.2004 132.494 55.661C132.128 56.0582 131.717 56.4181 131.282 56.7318C130.124 57.5695 128.763 57.9811 127.204 57.9696C125.36 57.9552 123.82 57.3881 122.605 56.2511C121.378 55.1169 120.519 53.6863 120.034 51.9591L143.147 52.1232L143.15 51.6309L143.194 49.0143C143.213 46.176 142.678 43.5651 141.596 41.1643C140.783 39.4227 139.691 37.8712 138.308 36.5009ZM120.384 44.6014C120.987 43.1534 121.891 41.9876 123.076 41.0837C124.269 40.1798 125.683 39.7336 127.322 39.7451C128.981 39.7567 130.394 40.223 131.56 41.124C132.726 42.0365 133.605 43.2225 134.189 44.6992L120.384 44.6014Z" fill="#D9D9D9"/>
<path d="M166.77 34.0015C164.767 32.9278 162.46 32.3809 159.854 32.3809C158.062 32.3809 155.839 33.112 154.695 34.9659L154.599 33.0314H146.754L147.024 64.9667H154.869L154.599 45.9046C154.599 44.2091 155.051 42.7928 155.946 41.6529C156.842 40.5129 158.162 39.9487 159.909 39.9487C161.664 39.9487 162.975 40.5129 163.835 41.6529C164.703 42.7928 165.139 44.2091 165.139 45.9046L165.409 64.9667H173.317L173.047 44.5085C173.047 42.2862 172.496 40.2481 171.416 38.4058C170.324 36.5462 168.773 35.0839 166.77 34.0015Z" fill="#D9D9D9"/>
<path d="M219.707 33.8539C217.74 32.8722 215.452 32.38 212.862 32.38C211.763 32.38 210.611 32.5095 209.396 32.76C206.337 33.3904 204.05 34.5937 202.524 36.3985C200.989 38.1948 200.228 40.4747 200.228 43.2151C200.281 44.2341 200.325 45.2618 200.372 46.2895C203.022 45.3165 205.673 44.355 208.316 43.3907C208.316 43.3072 208.308 43.2151 208.316 43.123C208.316 43.0107 208.324 42.91 208.332 42.8179C208.36 42.5214 208.412 42.2795 208.465 42.1241C208.536 41.9025 208.696 41.4188 209.112 41.0043C209.228 40.8834 209.352 40.7827 209.492 40.6906C210.264 40.1983 211.399 39.9508 212.887 39.9508C214.226 39.9508 215.362 40.23 216.282 40.7856C217.205 41.3411 217.762 42.1299 217.949 43.1575L209.729 45.0574C206.635 45.7598 204.108 46.9659 202.157 48.6701C200.198 50.3742 199.223 52.5418 199.223 55.1901C199.223 57.1994 199.719 58.9956 200.711 60.5789C201.714 62.1621 203.383 63.4028 205.191 64.3009C206.999 65.1904 209.057 65.6452 211.361 65.6452C212.592 65.6452 213.799 65.461 214.97 65.0983C216.141 64.7471 216.971 64.2376 217.999 63.5986L218.269 64.9688H226.149L225.879 43.8887C225.879 41.675 225.347 39.6946 224.276 37.953C223.209 36.2057 221.683 34.847 219.707 33.8539ZM218.004 50.5987C218.004 51.8855 217.74 53.1003 217.197 54.2402C216.657 55.3801 215.858 56.3041 214.821 57.0094C213.774 57.7233 212.534 58.0745 211.099 58.0745C209.964 58.0745 209.06 57.8327 208.376 57.3347C207.693 56.8338 207.357 56.1314 207.357 55.2132C207.357 54.3985 207.781 53.6932 208.641 53.1003C209.501 52.5073 210.52 52.0726 211.719 51.8049L218.004 50.3425V50.5987Z" fill="#D9D9D9"/>
<path d="M230.678 23.5989L230.948 64.9645H238.531V27.6951L230.678 23.5989Z" fill="#D9D9D9"/>
<path d="M175.883 41.5007H181.761L182.028 65.6983H189.98L189.71 41.5007H195.935V33.193H175.883V41.5007Z" fill="#D9D9D9"/>
<path d="M96.6349 42.2669C95.3784 42.0769 94.29 42.975 92.8902 42.952C91.6392 42.9319 90.3992 42.0769 89.1455 42.2669C87.8862 42.4598 86.2412 44.9757 88.4621 49.783C88.8286 50.5775 88.4097 52.7738 88.7239 54.0894C89.0793 55.5719 89.7462 57.2702 90.4571 57.1608C91.157 57.0515 90.3909 52.3133 92.8902 52.3018C95.4528 52.2902 94.6206 57.0543 95.3233 57.1608C96.0342 57.2702 96.701 55.5719 97.0565 54.0894C97.3734 52.7738 96.9518 50.5775 97.3182 49.783C99.5392 44.9757 97.8941 42.4598 96.6349 42.2669Z" fill="#0C4076"/>
<path d="M85.5709 23.7132C84.4163 23.7132 83.3224 23.0453 82.2891 21.6435L80.4512 24.0586C80.8011 24.6631 82.6804 26.8192 85.5681 26.8192C88.6625 26.8192 90.6878 24.4472 90.6878 21.773C90.6878 18.3244 88.376 17.4839 85.8988 16.4907C84.8682 16.082 84.5789 15.6502 84.5789 15.0687C84.5789 14.5937 85.0942 14.0554 85.8988 14.0554C86.9293 14.0554 87.7973 14.7233 88.2106 15.1752L89.9852 12.6305C88.1473 10.8631 86.3948 10.9494 85.9401 10.9494C83.3196 10.9494 81.2751 12.5873 81.2751 15.132C81.2751 17.6336 82.7603 18.7965 85.7335 19.9825C86.8687 20.4344 87.384 20.9526 87.384 21.986C87.3867 22.7863 86.7475 23.7132 85.5709 23.7132Z" fill="#D9D9D9"/>
<path d="M96.0856 26.8195C97.3229 26.8195 98.3975 26.1286 98.8935 25.2679V26.4741H102.195V15.78H98.8935V21.2983C98.8935 23.0658 97.9236 23.7135 97.243 23.7135C96.521 23.7135 95.5924 23.368 95.5924 21.6438V15.78H92.2886V21.9892C92.2886 25.2219 93.9997 26.8195 96.0856 26.8195Z" fill="#D9D9D9"/>
<path d="M115.497 21.1264C115.497 17.9801 113.453 15.4354 110.73 15.4354C109.471 15.4354 108.44 16.0601 107.903 16.8575V15.7809H104.602V31.9932H107.903V25.3954C108.44 26.1928 109.471 26.8175 110.73 26.8175C113.455 26.8203 115.497 24.2756 115.497 21.1264ZM110.05 23.7143C108.854 23.7143 107.903 22.5514 107.903 21.1264C107.903 19.7044 108.854 18.5386 110.05 18.5386C111.246 18.5386 112.196 19.7015 112.196 21.1264C112.196 22.5514 111.248 23.7143 110.05 23.7143Z" fill="#D9D9D9"/>
<path d="M122.313 26.8209C123.963 26.8209 125.429 26.0235 126.275 25.0304L124.294 23.0038C123.779 23.4356 123.181 23.7149 122.437 23.7149C121.158 23.7149 120.414 23.1103 120.125 22.2496H126.978C127.102 21.861 127.143 21.1932 127.143 20.7412C127.121 17.5086 124.977 15.4388 122.065 15.4388C118.805 15.4388 116.741 17.9835 116.741 21.1299C116.741 24.2762 118.97 26.8209 122.313 26.8209ZM122.15 18.542C123.222 18.542 123.781 19.1897 123.947 20.0072H120.086C120.354 19.1436 120.974 18.542 122.15 18.542Z" fill="#D9D9D9"/>
<path d="M131.773 22.3124C131.773 20.6313 132.683 19.5749 133.611 19.2294C134.209 19.0135 134.995 18.9934 135.739 19.2294V15.4354C133.716 15.565 132.457 16.2127 131.776 17.698V15.7809H128.475V26.4749H131.776V22.3124H131.773Z" fill="#D9D9D9"/>
<path d="M249.362 64.6801C247.478 63.7877 245.89 62.5787 244.606 61.0501C243.322 59.5216 242.369 57.8059 241.752 55.906L241.639 55.552L248.646 51.8789L248.872 52.4661L249.321 53.6118C249.902 55.0425 250.718 56.1881 251.768 57.0517C252.818 57.9153 254.113 58.3442 255.65 58.3442C256.719 58.3442 257.621 58.1226 258.351 57.6821C259.084 57.2417 259.447 56.6199 259.447 55.8168C259.447 55.2497 259.128 54.7575 258.491 54.3458C258.229 54.1702 257.896 54.0119 257.491 53.8766C257.089 53.7384 256.689 53.6118 256.295 53.4938L251.878 52.2013C249.214 51.4183 247.136 50.2121 245.645 48.5857C244.154 46.9593 243.408 44.95 243.408 42.5608C243.408 40.6206 243.887 38.8906 244.843 37.3735C245.799 35.8565 247.141 34.6705 248.866 33.8156C250.591 32.9635 252.581 32.5375 254.832 32.5375C257.345 32.5375 259.61 33.1017 261.627 34.2272C263.644 35.3556 265.242 36.8986 266.424 38.856C266.893 39.6189 267.334 40.5803 267.747 41.7375L268 42.5032L260.853 46.0007L260.685 45.3847L260.489 44.7687C260.04 43.3783 259.34 42.2499 258.392 41.3892C257.444 40.5285 256.259 40.0967 254.832 40.0967C253.895 40.0967 253.121 40.2867 252.512 40.6696C251.903 41.0524 251.597 41.585 251.597 42.2701C251.597 42.8774 251.831 43.3582 252.3 43.7094C252.768 44.0634 253.482 44.4146 254.438 44.7687C254.945 44.9443 255.722 45.189 256.775 45.5027C257.957 45.8741 258.725 46.1188 259.081 46.2368C264.782 48.1194 267.634 51.3521 267.634 55.9377C267.634 57.9182 267.113 59.6713 266.072 61.1998C265.03 62.7284 263.6 63.9143 261.781 64.7578C259.963 65.6012 257.918 66.0215 255.648 66.0215C253.344 66.0186 251.247 65.5724 249.362 64.6801Z" fill="#D9D9D9"/>
<path d="M66.59 8.56067C64.5371 4.51622 60.9963 1.83911 56.8741 1.21157C52.7271 0.584033 48.3624 1.9744 44.1465 3.32159C40.9915 4.32911 37.751 5.37116 34.7696 5.47479C32.375 3.79656 30.1293 2.42347 26.7869 1.41883C24.6349 0.771143 21.083 -0.334244 16.6908 0.097548C14.8005 0.281779 11.8411 0.572519 8.70538 2.57315C4.94965 4.96528 3.2192 8.3678 2.43664 9.95391C1.99301 10.8492 0.113763 14.8188 0.221227 22.4701C0.279092 26.5146 2.8417 41.2818 6.61672 49.5435C7.89527 47.8998 7.25324 38.5443 8.53179 36.9006C8.45739 35.3807 8.38024 33.8637 8.30584 32.3438C7.48195 30.559 6.92534 28.8808 6.54508 27.3983C6.38802 26.788 6.13727 26.2641 5.96643 24.5657C5.82038 23.1005 5.26378 17.7924 7.41581 13.2902C8.04682 11.9689 9.23444 9.4847 11.8411 7.63951C16.6632 4.22835 22.4525 5.77129 24.566 6.33262C27.2994 7.06091 29.2944 8.26993 30.325 8.89171C33.1797 10.6246 35.475 12.7318 37.4452 14.5395C37.5278 14.6144 37.6077 14.6892 37.6904 14.767C39.374 16.307 40.8454 17.6312 42.3334 18.3336L44.4165 13.5119L44.4441 13.4457C43.5844 13.0369 42.248 11.8106 40.8316 10.5152C40.6553 10.3512 40.4734 10.1871 40.2888 10.0172C42.0964 9.57394 43.8875 9.00973 45.6455 8.4484C49.4894 7.22211 53.1239 6.06203 56.1329 6.51685C57.3067 6.6982 60.2358 7.50134 62.0544 11.0737C63.5149 13.9494 64.9808 20.3515 60.4177 32.6662L60.2937 32.623C60.2716 32.6949 57.8881 40.0268 52.9338 41.1897L54.0608 46.4259C55.0362 46.1956 55.9373 45.8416 56.7722 45.3954C56.7832 45.6948 56.7997 45.9912 56.8135 46.2877C56.9182 48.3603 57.0229 50.502 56.2789 53.6052L55.9703 54.8977C55.1299 58.4326 54.1765 62.4396 53.0715 65.6694C51.6497 69.8319 50.644 70.7041 50.418 70.8538C48.2577 70.8078 47.6184 69.141 47.0563 62.2554C46.5851 56.5011 45.8852 48.0408 38.1974 46.7857L34.8963 52.2004C35.2848 52.068 35.6871 51.9874 36.1143 51.9845H36.1583C40.5974 51.9845 41.3304 55.2604 41.9421 62.7102C42.4078 68.4099 43.0498 76.2167 50.5144 76.2167H50.5337C55.8077 76.208 58.0838 68.2775 60.955 56.1873L61.2609 54.9034C62.1922 51.0259 62.0544 48.2423 61.9442 46.0085C61.8423 43.9906 61.7789 42.6607 62.4981 41.1005C70.6185 23.5294 69.2049 13.7076 66.59 8.56067Z" fill="#D9D9D9"/>
<path d="M22.4986 81.643C17.2191 75.2957 0 54.9986 0 43.0524C0 28.9961 10.6362 17.5623 23.711 17.5623C36.7858 17.5623 47.422 28.9961 47.422 43.0524C47.422 54.9986 30.2029 75.2928 24.9234 81.643C24.6176 82.0115 24.1739 82.2216 23.7082 82.2216C23.2453 82.2216 22.8044 82.0115 22.4986 81.643Z" fill="#0C4076"/>
<path d="M43.881 43.2428C43.881 31.0462 34.6501 21.1265 23.3057 21.1265C11.9614 21.1265 2.73047 31.049 2.73047 43.2428C2.73047 53.6087 17.6735 72.3859 22.2504 77.8956C22.5149 78.2151 22.9007 78.3993 23.303 78.3993C23.7053 78.3993 24.091 78.2151 24.3556 77.8956C28.9379 72.3888 43.881 53.6087 43.881 43.2428ZM13.9095 41.5186C13.9095 35.6692 18.4643 30.908 24.0662 30.908C29.6681 30.908 34.223 35.6663 34.223 41.5186C34.223 47.3708 29.6681 52.1291 24.0662 52.1291C18.4643 52.1291 13.9095 47.3679 13.9095 41.5186Z" fill="#D9D9D9"/>
</svg>
