<svg width="110" height="110" viewBox="0 0 110 110" fill="none" xmlns="http://www.w3.org/2000/svg">
<path d="M89.3755 41.25V27.5C89.3755 23.7188 92.4692 20.625 96.2505 20.625C100.032 20.625 103.125 23.7188 103.125 27.5C103.125 30.525 98.5422 30.525 98.5422 27.5C98.5422 24.475 93.9588 24.475 93.9588 27.5V41.25C93.9588 44.275 89.3755 44.275 89.3755 41.25Z" fill="#425B72"/>
<path d="M75.6252 48.1251H61.8752C58.8502 48.1251 58.8502 43.5417 61.8752 43.5417H75.6252C78.6502 43.5417 78.6502 48.1251 75.6252 48.1251Z" fill="#425B72"/>
<path d="M48.1252 45.8334V9.67089C48.1252 4.56047 41.3877 2.6813 38.7522 6.9438L31.8772 17.9438C30.2731 20.5105 26.3772 18.0813 27.9814 15.5146L34.8564 4.51464C39.8981 -3.66661 52.7085 -0.0686962 52.7085 9.64797V45.8334C52.7085 48.8584 48.1252 48.8584 48.1252 45.8334Z" fill="#425B72"/>
<path d="M100.375 81.5834L83.3482 68.7959C62.2878 69.575 49.8211 70.0563 25.7128 70.95C22.4586 71.0875 19.3878 69.4375 17.6461 66.7105L3.00236 43.7021C1.32944 41.0896 2.95652 37.8125 4.62944 37.2625C6.73777 36.0709 9.41902 36.7125 10.7482 38.798L25.369 61.7834C87.7482 59.4 85.3419 58.8271 88.8482 61.4855C107.113 75.1896 107.365 74.7771 107.663 77.3209C108.213 81.2396 103.675 84.0584 100.375 81.5834Z" fill="#6FABE6"/>
<path d="M107.663 77.3209C106.081 78.2146 104.134 78.1 102.667 77L85.6398 64.2125C64.5794 64.9917 52.1127 65.473 28.0044 66.3667C24.7502 66.5042 21.6794 64.8542 19.9377 62.1271C4.03356 37.125 4.76689 38.6375 4.62939 37.2625C6.73773 36.0709 9.41898 36.7125 10.7481 38.798L25.369 61.7834C41.5252 61.1646 54.0606 60.7292 83.0044 59.6521C87.3356 59.4688 87.7023 60.6146 105.875 74.25C106.906 75.0063 107.525 76.1292 107.663 77.3209Z" fill="#82BCF4"/>
<path d="M55.0005 98.5417V107.708H20.6255V103.125C20.6255 100.604 22.688 98.5417 25.2088 98.5417H55.0005Z" fill="#374F68"/>
<path d="M55.0002 98.5417V103.125H29.7918C27.9356 103.125 25.2085 101.681 25.2085 98.5417H55.0002Z" fill="#425B72"/>
<path d="M70.5836 91.598C62.8606 90.498 60.6836 89.65 57.7961 91.7813L46.2231 80.2084H59.1711C66.4356 87.473 63.8231 84.8834 70.5836 91.598Z" fill="#374F68"/>
<path d="M57.3837 86.7855L50.8066 80.2084H59.1712C69.5754 90.6125 64.2129 83.5542 57.3837 86.7855Z" fill="#425B72"/>
<path d="M87.0834 99.9167V107.708H55.0001C55.0001 97.7167 54.1522 94.4855 57.7959 91.7813C60.798 89.5584 61.5772 90.3146 81.1709 93.1105C84.5626 93.5917 87.0834 96.5021 87.0834 99.9167Z" fill="#DAD7E5"/>
<path d="M87.0837 99.9168V103.125H66.4587C62.6546 103.125 59.5837 100.054 59.5837 96.2501C59.5837 92.4918 59.515 91.9876 59.8816 90.7272C60.8212 90.4293 61.8066 90.3376 62.8379 90.498C69.8275 91.4834 81.515 93.1564 81.1712 93.1105C84.5629 93.5918 87.0837 96.4793 87.0837 99.9168Z" fill="#EDEBF2"/>
<path d="M73.3338 69.1626V75.6251C73.3338 78.1459 71.2713 80.2084 68.7505 80.2084H38.9588C36.438 80.2084 34.3755 78.1459 34.3755 75.6251V70.6293C40.7463 70.3772 33.7109 70.6293 73.3338 69.1626Z" fill="#DAD7E5"/>
<path d="M73.3335 69.1626V75.6251H43.5418C43.3127 75.6251 38.9585 75.6022 38.9585 70.4459L73.3335 69.1626Z" fill="#EDEBF2"/>
<path d="M107.709 41.25V45.8333C107.709 48.3542 105.646 50.4167 103.125 50.4167H80.2088C77.688 50.4167 75.6255 48.3542 75.6255 45.8333V41.25H107.709Z" fill="#DAD7E5"/>
<path d="M107.708 41.25V45.8333H84.7918C82.271 45.8333 80.2085 43.7708 80.2085 41.25H107.708Z" fill="#EDEBF2"/>
<path d="M66.4588 48.1251V60.2709L34.3755 61.4397V48.1251C34.3755 45.6042 36.438 43.5417 38.9588 43.5417H61.8755C64.3963 43.5417 66.4588 45.6042 66.4588 48.1251Z" fill="#DAD7E5"/>
<path d="M66.459 48.1251V55.848L46.0861 56.6042C42.1902 56.7417 38.959 53.6251 38.959 49.7292V43.5417H61.8757C64.3965 43.5417 66.459 45.6042 66.459 48.1251Z" fill="#EDEBF2"/>
<path d="M34.3751 24.5897C34.3751 26.148 33.9855 27.7292 33.1376 29.173L17.2793 20.0063C21.8626 12.0084 34.3751 15.1022 34.3751 24.5897Z" fill="#9FDBF3"/>
<path d="M34.1689 22.7563C33.5502 23.7188 32.221 24.0625 31.1668 23.4438L20.0522 17.0271C25.3918 13.2917 32.9314 16.3625 34.1689 22.7563Z" fill="#B2E5FB"/>
<path d="M80.2084 52.7084H103.125C106.906 52.7084 110 49.6147 110 45.8334V41.2501C110 39.9897 108.969 38.9584 107.708 38.9584H93.9584V27.5001C93.9584 24.4751 98.5417 24.4751 98.5417 27.5001C98.5417 30.5251 103.125 30.5251 103.125 27.5001C103.125 23.7188 100.031 20.6251 96.2501 20.6251C92.4688 20.6251 89.3751 23.7188 89.3751 27.5001V38.9584H75.6251C74.3646 38.9584 73.3334 39.9897 73.3334 41.2501V43.5418C65.7709 43.5418 60.4084 43.5418 52.7084 43.5418V9.67092C52.7084 -0.0457469 39.898 -3.64366 34.8563 4.53759L29.0584 13.8188C20.2813 10.6793 11.9397 19.5709 16.1334 22.0001C33.3897 31.9688 32.2897 31.4647 33.1605 31.4647C36.6209 31.4647 39.0042 21.748 33.0001 16.2022L38.7751 6.96675C41.3876 2.68134 48.1251 4.5605 48.1251 9.67092V43.5418H38.9584C35.1772 43.5418 32.0834 46.6355 32.0834 50.4168V59.2397L26.6063 59.4459L12.673 37.5605C10.6334 34.3751 6.39382 33.4126 3.18549 35.4522C-0.0228441 37.4918 -0.962427 41.7543 1.07716 44.9397L15.698 67.9251C19.8001 74.3418 25.9647 73.2188 32.0834 72.9897V75.6251C32.0834 79.4063 35.1772 82.5001 38.9584 82.5001H45.2834L54.5646 91.7813C53.5792 93.0876 53.0063 94.623 52.823 96.2501H25.2084C21.4272 96.2501 18.3334 99.3438 18.3334 103.125V107.708C18.3334 108.969 19.3647 110 20.6251 110C43.9772 110 63.823 110 87.0834 110C88.3438 110 89.3751 108.969 89.3751 107.708V99.9168C89.3751 95.3793 85.9834 91.4834 81.5146 90.8418L71.6834 89.4438L64.7167 82.5001H68.7501C72.5313 82.5001 75.6251 79.4063 75.6251 75.6251V71.3855L82.6146 71.1334L99.0001 83.4168C102.071 85.7313 106.379 85.0438 108.625 82.0418C110.894 79.0168 110.275 74.6855 107.25 72.4168C83.5084 54.6105 90.7271 57.0626 68.7501 57.8876C68.7501 49.8209 68.8876 49.7063 68.3376 48.1251H73.7688C74.7084 50.7834 77.2292 52.7084 80.2084 52.7084ZM31.9688 25.8501L20.7397 19.3647C25.7355 15.1022 33.1376 19.6397 31.9688 25.8501ZM77.9167 43.5418H105.417V45.8334C105.417 47.0938 104.385 48.1251 103.125 48.1251H80.2084C78.948 48.1251 77.9167 47.0938 77.9167 45.8334V43.5418ZM22.9167 103.125C22.9167 101.865 23.948 100.833 25.2084 100.833H52.7084V105.417H22.9167V103.125ZM84.7917 99.9168V105.417H57.2917C57.2917 102.208 57.2917 100.146 57.2917 97.3043C57.2917 94.5543 59.7209 92.3772 62.5167 92.7668L80.8501 95.3793C83.0959 95.7001 84.7917 97.648 84.7917 99.9168ZM64.098 88.3438C55.4584 87.1063 61.9667 92.698 51.7688 82.4772H58.2313L64.098 88.3438ZM71.0417 75.6251C71.0417 76.8855 70.0105 77.9168 68.7501 77.9168C58.4376 77.9168 49.248 77.9168 38.9584 77.9168C37.698 77.9168 36.6667 76.8855 36.6667 75.6251V72.8293L71.0417 71.5459V75.6251ZM83.0959 61.9209C86.3042 61.7834 86.1209 62.2876 104.5 76.0605C106.952 77.8938 104.133 81.5147 101.75 79.7272C83.3938 65.9543 84.4251 66.4813 83.348 66.4813C83.1188 66.4813 73.1042 66.848 73.3334 66.848C68.5209 66.848 90.9563 66.2063 25.598 68.6355C23.2147 68.7501 20.9001 67.5355 19.5709 65.4501L4.95007 42.4647C3.32299 39.898 7.19591 37.4459 8.82299 40.0126L23.4438 62.998C24.4751 64.648 21.7021 64.2126 83.0959 61.9209ZM64.1667 50.4168V58.048L36.6667 59.0563V50.4168C36.6667 49.1563 37.698 48.1251 38.9584 48.1251H61.8751C63.1355 48.1251 64.1667 49.1563 64.1667 50.4168Z" fill="black"/>
</svg>
