<svg width="186" height="159" viewBox="0 0 186 159" fill="none" xmlns="http://www.w3.org/2000/svg">
<path d="M0 21.5287C0.834805 19.3839 2.45451 18.3045 4.53698 17.6099C10.8298 15.5121 15.0356 11.1803 17.0863 4.66146C17.3086 3.95279 17.5445 3.23005 17.8893 2.58239C18.8149 0.845919 20.2939 -0.0363954 22.1995 0.00114991C24.0279 0.0386952 25.457 0.916317 26.2964 2.61524C26.7047 3.44124 26.9588 4.35171 27.2491 5.23403C29.2817 11.3774 33.2606 15.4886 39.2358 17.5442C40.0343 17.8211 40.851 18.0839 41.6041 18.4688C43.3509 19.3511 44.2038 20.9467 44.1993 22.8569C44.1947 24.6919 43.369 26.25 41.7221 27.1417C40.8737 27.6016 39.9391 27.9067 39.0362 28.254C33.247 30.4786 29.3407 34.632 27.2264 40.6064C26.9588 41.3667 26.7455 42.1505 26.4279 42.892C25.5886 44.8584 24.0868 45.9238 22.0225 45.8862C19.9582 45.8487 18.4927 44.7458 17.7169 42.7465C17.4946 42.1692 17.2904 41.5826 17.1044 40.9912C15.0764 34.463 10.8978 30.1031 4.6005 28.0053C2.51803 27.3107 0.911934 26.2265 0 24.1522C0 23.2792 0 22.4016 0 21.5287ZM22.1858 12.6117C20.5934 14.6157 19.2686 16.568 17.6534 18.2247C16.0019 19.9189 14.0646 21.3175 12.1364 22.946C16.2878 25.424 19.5317 28.8641 22.145 33.3367C24.7583 28.9063 28.0522 25.5413 32.2716 22.8897C27.8934 20.2991 24.6404 16.9435 22.1858 12.6117Z" fill="#FC5122"/>
<path d="M185.835 47.7588C184.878 49.6454 183.254 50.5231 181.375 51.2364C177.727 52.6209 175.196 55.2678 173.83 59.0599C173.558 59.8202 173.318 60.5993 172.973 61.3173C172.201 62.9224 170.831 63.7202 169.166 63.7484C167.419 63.7765 166.018 62.9271 165.196 61.2751C164.87 60.6134 164.666 59.8859 164.43 59.1819C163.132 55.2772 160.591 52.6256 156.866 51.166C156.245 50.922 155.61 50.7155 155.006 50.4339C153.3 49.6314 152.416 48.2328 152.393 46.3086C152.375 44.3844 153.232 42.9624 154.92 42.1223C155.514 41.8266 156.154 41.6201 156.776 41.3855C160.514 39.9587 163.078 37.3306 164.407 33.4352C164.629 32.7876 164.829 32.1305 165.128 31.5204C165.94 29.8731 167.292 29.0237 169.066 29.0002C170.859 28.9767 172.197 29.8731 173.036 31.4782C173.404 32.1822 173.599 32.9847 173.862 33.745C175.141 37.4385 177.546 40.0526 181.135 41.2916C183.104 41.9721 184.733 42.9154 185.821 44.7552C185.835 45.7595 185.835 46.7591 185.835 47.7588ZM173.354 46.4635C171.956 45.0321 170.31 43.3425 168.957 41.9533C167.646 43.2487 166.008 44.8584 164.702 46.149C166.194 47.7072 167.787 49.3779 169.171 50.8234C170.514 49.4295 172.097 47.7729 173.354 46.4635Z" fill="#FC5122"/>
<path d="M153.899 85.1492C166.072 87.8337 174.865 94.8641 179.665 106.747C183.227 115.566 183.14 124.567 179.565 133.353C175.473 143.401 168.291 150.239 158.182 153.486C148.156 156.711 138.614 155.106 129.518 149.464C128.102 151.201 126.75 152.857 125.394 154.514C123.919 156.316 122.181 157.734 119.945 158.348C114.414 159.878 109.337 157.208 107.1 151.482C105.431 147.207 103.92 142.866 102.341 138.553C102.042 137.736 101.801 136.896 101.484 136.089C99.7914 131.799 95.9441 129.091 91.6339 129.124C87.2966 129.157 83.5309 131.879 81.9021 136.244C80.0147 141.303 78.1999 146.39 76.3307 151.454C75.5186 153.66 74.2482 155.542 72.3245 156.87C67.7286 160.038 62.1208 159.273 58.4051 154.969C52.7883 148.465 47.9745 141.369 43.9593 133.714C38.5512 123.408 34.5995 112.524 32.1087 101.073C29.8992 90.9077 28.8965 80.6203 29.4137 70.225C29.8901 60.7025 31.5325 51.4007 35.516 42.6855C38.2563 36.6923 42.0402 31.6565 47.6161 28.1414C53.1648 24.645 59.1219 23.6359 65.3875 25.0533C69.2666 25.9309 73.0777 27.1887 76.8706 28.4277C81.4938 29.9389 86.1442 31.2717 91.0124 31.4454C92.868 31.5111 94.7554 31.2999 96.5974 31.023C101.52 30.2815 106.152 28.4136 110.907 26.9915C114.146 26.0201 117.44 25.0861 120.77 24.6497C128.048 23.6876 134.327 26.2876 139.789 31.1638C144.444 35.3172 147.348 40.6862 149.499 46.5245C152.203 53.8693 153.6 61.5238 153.899 69.3567C154.076 73.9607 153.909 78.5835 153.895 83.1969C153.895 83.807 153.899 84.4218 153.899 85.1492ZM146.268 84.6987C146.364 83.9806 146.482 83.4315 146.509 82.8777C146.953 74.0593 146.758 65.2784 144.762 56.6336C143.496 51.1426 141.709 45.8581 138.574 41.1602C135.693 36.8425 131.854 33.8623 126.9 32.5295C123.252 31.5486 119.686 32.2573 116.179 33.2992C111.774 34.6132 107.418 36.1151 103.008 37.4198C95.513 39.6396 87.9817 39.6443 80.482 37.4432C75.7817 36.0634 71.1177 34.5381 66.4355 33.0786C59.0856 30.7836 52.7157 32.5342 47.2985 38.0768C44.903 40.5266 43.2515 43.5115 41.8814 46.6559C38.4559 54.5169 37.1402 62.8708 36.75 71.3842C36.2918 81.4839 37.4215 91.4521 39.7717 101.256C43.1381 115.312 48.6324 128.43 56.6719 140.327C58.8814 143.598 61.4539 146.606 63.8177 149.765C65.5145 152.036 68.6677 151.351 69.4072 148.77C69.5434 148.296 69.7884 147.855 69.9562 147.385C71.7256 142.547 73.4225 137.675 75.2736 132.869C77.9232 125.98 84.4972 121.507 91.7473 121.517C98.9385 121.526 105.526 126.069 108.189 132.935C109.129 135.361 109.877 137.872 110.775 140.317C111.846 143.232 112.926 146.146 114.124 149.004C115.154 151.468 117.654 151.909 119.382 149.957C120.888 148.258 122.272 146.447 123.692 144.71C122.98 143.776 122.263 143.002 121.732 142.105C120.707 140.378 121.111 138.435 122.671 137.084C123.992 135.939 125.865 135.986 127.304 137.267C127.989 137.877 128.579 138.6 129.227 139.247C136.019 146.015 144.145 148.709 153.346 146.789C167.397 143.856 176.811 130.255 174.157 114.894C171.449 99.2522 156.354 89.2933 141.532 93.3904C130.838 96.3471 124.282 103.687 121.995 114.956C121.809 115.866 121.664 116.805 121.333 117.663C120.575 119.625 118.638 120.461 116.742 119.747C114.723 118.987 113.874 117.269 114.355 114.543C116.674 101.42 123.801 92.2594 135.715 87.1016C139.032 85.6749 142.534 85.0225 146.268 84.6987Z" fill="#FC5122"/>
<path d="M143.65 125.923C145.587 121.493 147.77 117.471 150.655 113.909C154.058 109.709 158.032 106.348 163.368 105.128C165.101 104.734 166.752 104.823 167.959 106.456C169.434 108.455 168.821 111.192 166.635 112.309C166.258 112.501 165.85 112.642 165.441 112.736C161.363 113.665 158.491 116.363 156.041 119.63C152.824 123.915 150.596 128.739 148.904 133.85C148.691 134.498 148.482 135.15 148.228 135.784C147.625 137.314 146.54 138.144 144.907 138.234C143.269 138.323 141.931 137.642 141.382 136.136C139.776 131.71 136.051 130.086 132.299 128.453C131.577 128.139 130.806 127.951 130.08 127.65C128.002 126.787 126.959 124.83 127.53 122.915C128.179 120.733 130.157 119.564 132.38 120.174C135.969 121.16 139.304 122.741 142.353 124.947C142.738 125.229 143.124 125.529 143.65 125.923Z" fill="#FC5122"/>
<path d="M92.0154 95.4694C86.3396 95.5257 81.476 93.8972 77.0207 90.8983C75.6414 89.969 74.8792 88.6737 75.1333 86.9607C75.3601 85.426 76.2494 84.2997 77.733 83.9336C78.4453 83.7553 79.2846 83.8257 80.0015 84.0275C80.741 84.234 81.4034 84.7268 82.0885 85.1163C88.5219 88.8004 94.9463 88.8051 101.375 85.0975C102.006 84.7314 102.627 84.3419 103.29 84.0509C104.941 83.3329 106.797 83.9242 107.741 85.426C108.671 86.9044 108.535 89.0585 107.173 90.1943C105.921 91.2409 104.506 92.1326 103.049 92.8506C99.4742 94.6246 95.6813 95.5726 92.0154 95.4694Z" fill="#FC5122"/>
<path d="M122.803 129.218C122.798 131.457 121.183 133.08 118.991 133.043C116.945 133.01 115.348 131.306 115.348 129.199C115.348 126.702 117.508 125.327 119.205 125.304C121.16 125.271 122.812 127.125 122.803 129.218Z" fill="#FC5122"/>
<path d="M75.2828 64.5697C77.3925 64.5932 78.9123 66.1982 78.8897 68.3853C78.867 70.5159 77.2291 72.1773 75.183 72.1492C73.2003 72.121 71.4762 70.2954 71.5125 68.2773C71.5443 66.1795 73.2094 64.5462 75.2828 64.5697Z" fill="#FC5122"/>
<path d="M108.244 64.5697C110.344 64.5932 111.905 66.2405 111.846 68.3759C111.787 70.5159 110.154 72.1773 108.135 72.1492C106.17 72.121 104.501 70.3376 104.496 68.2632C104.487 66.1889 106.157 64.5462 108.244 64.5697Z" fill="#FC5122"/>
</svg>
