<svg width="142" height="147" viewBox="0 0 142 147" fill="none" xmlns="http://www.w3.org/2000/svg">
<path d="M61.6279 146.08C58.055 145.023 55.4367 142.984 55.061 139.076C54.8616 136.983 55.1377 134.848 55.2105 132.495C55.153 132.469 54.7773 132.297 54.4093 132.106C51.5264 130.631 49.924 128.313 49.878 125.061C49.855 123.597 49.8281 122.079 50.1847 120.68C50.4875 119.491 51.0741 118.05 52.0095 117.401C54.0298 116.006 53.6234 114.458 53.1174 112.601C51.6568 107.233 48.6282 102.963 44.4803 99.2804C37.6871 93.2566 33.4893 85.7039 32.0441 76.7444C28.8392 56.8505 40.7924 38.31 60.4855 33.4757C76.7668 29.4802 91.2884 33.125 102.398 46.0877C115.804 61.7267 113.88 85.3875 98.4036 99.1813C93.7879 103.295 90.5716 108.076 89.2835 114.119C89.065 115.148 89.0458 115.899 90.0655 116.666C91.9478 118.084 92.8755 120.116 92.8985 122.487C92.9139 123.814 92.9944 125.175 92.7529 126.468C92.1817 129.529 90.2074 131.481 87.2632 132.579C87.9494 135.359 88.2216 138.153 87.313 140.864C86.3354 143.773 83.997 145.271 81.1409 146.072C74.6392 146.08 68.1335 146.08 61.6279 146.08ZM79.4388 114.74C80.8457 114.74 82.0916 114.798 83.3222 114.702C83.6558 114.676 84.181 114.245 84.2385 113.932C85.6339 106.307 89.6669 100.375 95.3827 95.1781C106.604 84.9681 109.444 68.7838 102.766 55.4513C92.6072 35.1609 65.6494 32.0117 49.8051 43.8306C32.9833 56.3739 31.8333 81.0488 47.5548 95.3382C53.2017 100.47 57.1158 106.376 58.5227 113.879C58.5841 114.207 59.0748 114.679 59.3891 114.702C60.7539 114.794 62.1263 114.74 63.5447 114.74C63.5447 105.884 63.5447 97.2102 63.5447 88.3879C61.7966 88.3879 60.1328 88.4299 58.4729 88.3803C54.5971 88.2621 51.3079 85.7344 50.2843 82.143C49.2799 78.6202 50.706 74.8343 53.792 72.7641C55.7587 71.445 57.9554 71.2315 60.244 71.3153C64.7715 71.4869 68.375 75.0173 68.5552 79.5238C68.5936 80.5226 68.5246 81.5253 68.6127 82.5166C68.6396 82.8292 69.0153 83.3516 69.2491 83.3592C70.8976 83.4316 72.5537 83.3973 74.3325 83.3973C74.3325 82.4518 74.3325 81.7007 74.3325 80.9496C74.3401 74.7085 77.8479 71.2658 84.1465 71.3153C89.1915 71.3573 93.0481 75.0211 93.0826 79.8059C93.1171 84.5525 89.2336 88.3231 84.2193 88.3879C82.6552 88.4108 81.0872 88.3918 79.4465 88.3918C79.4388 97.2216 79.4388 105.895 79.4388 114.74ZM71.3576 127.909C75.7049 127.909 80.0522 127.924 84.3995 127.905C86.8875 127.894 87.9379 126.815 87.9724 124.314C87.9762 123.982 87.9762 123.65 87.9724 123.315C87.934 120.818 86.8913 119.742 84.3841 119.739C75.7356 119.723 67.0908 119.723 58.4422 119.739C55.728 119.742 54.7964 120.818 54.8003 123.829C54.8003 126.83 55.7395 127.894 58.4575 127.905C62.7588 127.92 67.0563 127.909 71.3576 127.909ZM71.5339 132.915C68.7162 132.915 65.8986 132.892 63.0809 132.922C61.1181 132.945 59.9872 134.081 59.9182 136.026C59.8913 136.739 59.8836 137.452 59.9258 138.161C60.0293 139.815 61.0567 141.013 62.7128 141.032C68.49 141.1 74.2673 141.1 80.0445 141.032C81.7045 141.013 82.7357 139.819 82.843 138.168C82.8852 137.505 82.8699 136.838 82.8545 136.175C82.8047 134.055 81.6891 132.93 79.5538 132.915C76.8818 132.896 74.2098 132.915 71.5339 132.915ZM74.2213 114.74C74.2213 105.846 74.2213 97.1759 74.2213 88.4794C72.3237 88.4794 70.5295 88.4794 68.6626 88.4794C68.6626 97.2369 68.6626 105.907 68.6626 114.641C69.0651 114.679 69.3909 114.737 69.713 114.74C71.1851 114.748 72.6572 114.74 74.2213 114.74ZM79.4235 83.4126C81.0451 83.4126 82.4712 83.4164 83.8973 83.4088C84.2308 83.4088 84.5643 83.3859 84.894 83.3439C86.9948 83.0694 88.3826 81.2242 88.0184 79.1921C87.6849 77.3315 86.1208 76.2602 83.7324 76.2564C81.3403 76.2526 79.6765 77.2972 79.4541 79.1616C79.2931 80.5036 79.4235 81.8799 79.4235 83.4126ZM63.6329 83.3363C63.6329 82.4366 63.5869 81.6817 63.6406 80.9382C63.9281 76.874 60.9417 75.6426 57.4608 76.4851C55.8354 76.8778 54.854 78.4906 54.9958 80.1986C55.13 81.7846 56.3682 83.1914 58.0128 83.3096C59.8108 83.4354 61.6203 83.3363 63.6329 83.3363Z" fill="#FC5122"/>
<path d="M99.7115 117.367C100.892 116.082 101.95 114.935 103.135 113.646C105.305 115.842 107.402 117.985 109.525 120.105C111.086 121.664 112.251 121.687 113.827 120.192C116.388 117.764 118.937 115.32 121.467 112.865C122.84 111.534 122.843 110.295 121.486 108.926C119.539 106.963 117.561 105.026 115.606 103.074C114.103 101.572 113.973 100.661 115.123 98.9334C118.665 93.6035 121.13 87.8275 122.525 81.5901C122.955 79.6686 123.744 79.07 125.742 79.0624C128.517 79.051 131.289 79.0663 134.064 79.0548C136.242 79.0472 137.039 78.2847 137.047 76.1687C137.062 72.6497 137.066 69.1307 137.043 65.6117C137.032 63.5911 136.181 62.7561 134.149 62.7447C131.136 62.7256 128.122 62.7485 125.109 62.7371C123.123 62.7295 122.299 62.0813 121.946 60.1712C120.808 54.014 118.412 48.3599 115.103 43.0643C113.589 40.6395 113.666 40.0676 115.728 38.0203C117.66 36.1064 119.6 34.2039 121.517 32.2748C122.817 30.9633 122.847 29.7585 121.563 28.4241C119.021 25.7744 116.457 23.1475 113.869 20.5397C112.654 19.3159 111.381 19.3235 110.112 20.555C108.057 22.5451 106.052 24.5848 104.005 26.5903C102.625 27.9437 101.655 28.0695 100.06 27.0249C94.6167 23.4487 88.7206 20.9705 82.3454 19.5904C80.5589 19.2053 79.9762 18.4238 79.9685 16.5747C79.9532 13.6276 79.98 10.6767 79.957 7.72955C79.9417 5.67077 79.2363 4.96545 77.2198 4.95782C73.7274 4.94639 70.2388 4.94257 66.7464 4.95782C64.4578 4.96926 63.7217 5.69746 63.7102 7.94686C63.6987 10.9435 63.7217 13.9402 63.6987 16.9369C63.6872 18.7516 63.0317 19.5637 61.2491 19.884C54.9045 21.0163 49.1042 23.4868 43.649 26.8381C41.5214 28.1458 40.8467 28.0543 39.0296 26.2624C37.0284 24.2836 35.0426 22.2897 33.03 20.3262C31.7151 19.0414 30.4921 19.0147 29.1504 20.2805C26.4784 22.8006 23.8293 25.3435 21.1995 27.9056C19.9574 29.1142 19.9651 30.3723 21.2148 31.6343C23.2275 33.6702 25.2861 35.6565 27.3026 37.6848C28.652 39.0421 28.7785 40.0371 27.7243 41.6155C24.1514 46.9836 21.648 52.7939 20.2526 59.0847C19.8309 60.9833 19.022 61.5819 17.0132 61.5895C14.1917 61.6009 11.3702 61.5819 8.54864 61.5971C6.57434 61.6086 5.75011 62.413 5.73861 64.365C5.71944 67.9336 5.7156 71.4983 5.73861 75.0669C5.75394 77.0952 6.59734 77.9034 8.62531 77.911C11.5427 77.9187 14.46 77.9072 17.3774 77.9149C19.3632 77.9225 20.1913 78.5668 20.5401 80.4807C21.6787 86.6914 24.1245 92.3721 27.4559 97.7096C28.8705 99.9743 28.7862 100.619 26.8617 102.533C24.8989 104.481 22.9246 106.418 20.9733 108.381C19.6737 109.689 19.6469 110.901 20.9235 112.232C23.469 114.878 26.0337 117.504 28.6175 120.116C29.8213 121.328 31.1247 121.332 32.3783 120.101C34.5174 118 36.6067 115.85 38.7727 113.661C39.9688 114.942 41.0383 116.086 41.8587 116.967C39.5432 119.453 37.3428 122.316 34.6362 124.588C31.8531 126.925 27.8124 126.342 25.2439 123.765C22.4837 120.997 19.7504 118.194 17.0515 115.369C14.2914 112.479 14.3374 108.076 17.1321 105.197C18.7268 103.554 20.3484 101.938 22.0122 100.367C22.6141 99.7989 22.6524 99.3681 22.2346 98.6704C19.4936 94.0648 17.4081 89.1809 16.2043 83.9539C15.9973 83.058 15.5679 82.8445 14.7284 82.8597C12.6237 82.9055 10.5191 82.8902 8.41447 82.8712C3.79115 82.8216 0.797112 79.8288 0.789445 75.2499C0.781777 71.5403 0.774114 67.8307 0.793282 64.121C0.81245 59.7519 3.86015 56.6866 8.26112 56.6141C10.3159 56.5798 12.3746 56.5722 14.4294 56.6256C15.3226 56.6484 15.7865 56.4273 16.0318 55.4818C17.3506 50.3882 19.4092 45.592 22.1771 41.1161C22.6716 40.3154 22.4953 39.8961 21.8972 39.328C20.4098 37.9174 18.9684 36.4571 17.5231 35.0046C14.6057 32.0689 14.5405 27.5243 17.4579 24.6382C20.3024 21.8207 23.193 19.0414 26.1295 16.3192C28.8935 13.7572 33.2945 13.7915 36.047 16.3612C37.7913 17.9891 39.4206 19.7315 41.1687 21.3556C41.4792 21.6416 42.2459 21.8436 42.5565 21.6644C47.6053 18.7898 52.9302 16.6204 58.7572 15.3051C58.7572 12.7812 58.7534 10.2687 58.7572 7.76004C58.7687 3.02104 61.7934 0.0129337 66.5471 0.0053086C70.2312 0.00149604 73.9114 -0.00612534 77.5955 0.00912487C81.8393 0.0243751 84.8219 2.93717 84.8832 7.15766C84.9215 9.76926 84.8908 12.3809 84.8908 14.84C88.2414 16.0828 91.4923 17.1885 94.655 18.4924C96.6332 19.3083 98.5346 20.3415 100.375 21.4357C101.314 21.9961 101.831 21.8665 102.525 21.1192C103.856 19.6895 105.278 18.3437 106.673 16.975C109.744 13.9593 114.283 13.944 117.315 16.9864C120.041 19.72 122.74 22.4879 125.404 25.2825C128.172 28.1839 128.153 32.5836 125.377 35.4621C123.787 37.1091 122.161 38.718 120.497 40.2926C119.918 40.8416 119.796 41.261 120.229 41.9853C123.004 46.629 125.044 51.5739 126.374 56.82C126.474 57.2203 127.16 57.7312 127.593 57.7503C129.74 57.8456 131.895 57.7655 134.049 57.8036C139.152 57.8951 141.992 60.7927 141.996 65.8596C141.996 69.4281 142.008 72.9929 141.992 76.5614C141.973 80.9153 138.902 84.0073 134.521 84.0836C132.37 84.1179 130.215 84.0569 128.065 84.1217C127.662 84.1331 127.011 84.4915 126.922 84.8118C125.416 90.3514 123.139 95.5517 120.056 100.546C121.751 102.212 123.418 103.836 125.063 105.483C128.302 108.72 128.291 113.204 125.021 116.372C122.349 118.961 119.665 121.534 116.963 124.093C113.873 127.017 109.449 126.99 106.409 124.031C104.12 121.771 101.87 119.51 99.7115 117.367Z" fill="#FC5122"/>
</svg>
