<svg width="128" height="119" viewBox="0 0 128 119" fill="none" xmlns="http://www.w3.org/2000/svg">
<path d="M127.993 114.002C127.993 113.671 127.99 113.343 127.99 113.012C127.977 107.607 125.998 102.401 122.422 98.3542C118.843 94.3071 113.893 91.6776 108.485 90.9556C108.185 90.9158 107.911 90.8496 107.645 90.79C107.538 90.7635 107.431 90.737 107.321 90.7138L105.767 90.386L103.365 90.694C97.6471 91.4259 92.9268 93.6083 88.9338 97.3573L88.1399 98.1025L87.4627 97.2513C82.0386 90.4389 75.1401 86.6469 66.3801 85.6501L63.9049 85.3719L61.6299 85.66C57.1832 86.2296 53.347 87.4119 49.911 89.2732C46.3917 91.1775 43.316 93.7905 40.5073 97.2613L39.8267 98.1058L39.0361 97.3573C35.1265 93.6415 30.4063 91.4689 24.6086 90.7072L21.2894 90.27L21.1326 90.3992L21.1226 90.4058C21.0292 90.4986 20.8324 90.6906 20.5055 90.7602C20.1652 90.8364 19.8283 90.896 19.4981 90.9556L19.4714 90.9589C15.1514 91.714 11.452 93.2705 8.47974 95.5822C5.46079 97.9303 3.09567 101.133 1.44776 105.104C0.987412 106.21 0.707201 107.392 0.406974 108.644C0.276876 109.177 0.146778 109.727 0 110.273V117.93C0.513721 118.705 1.24427 119 2.58862 119C30.1027 118.98 57.2332 118.977 89.5043 118.977H125.575C125.648 118.977 125.722 118.98 125.798 118.98C125.885 118.98 125.975 118.977 126.065 118.977C127.44 118.93 127.96 118.404 127.987 117.026C128.003 116.023 128 114.993 127.993 114.002ZM35.3434 108.329C34.9831 109.773 34.813 111.27 34.6328 112.853C34.5528 113.555 34.4694 114.281 34.3693 115.009L34.2492 115.867H3.20242L3.1357 114.946C2.56527 107.316 5.44411 101.308 11.6822 97.0891C14.8712 94.9364 18.6774 93.7971 22.6971 93.7971C28.1679 93.7971 33.3585 95.9299 36.9379 99.6524C37.3382 100.066 37.8686 101.037 37.5951 101.878C37.3082 102.759 36.9746 103.63 36.651 104.474C36.144 105.792 35.6669 107.038 35.3434 108.329ZM37.575 115.867L37.6051 114.844C37.8553 106.114 41.3079 99.1987 47.8695 94.2906C52.9233 90.5085 58.2773 88.591 63.7815 88.591C67.8913 88.591 72.0778 89.6706 76.2242 91.8034C85.0742 96.3472 89.8579 104.094 90.445 114.821L90.5017 115.867H37.575ZM93.7174 115.864L93.6007 114.999C93.5173 114.37 93.4506 113.738 93.3872 113.128C93.2438 111.76 93.107 110.472 92.8001 109.23C92.293 107.157 91.5758 104.981 90.6084 102.58C90.0647 101.229 90.2782 100.255 91.3223 99.3312C95.5021 95.6252 100.099 93.7474 104.986 93.7474C106.887 93.7474 108.856 94.0356 110.83 94.6052C117.966 96.6618 122.666 101.494 124.421 108.584C124.768 109.982 124.851 111.433 124.934 112.837C124.971 113.473 125.011 114.132 125.074 114.777L125.178 115.864H93.7174ZM36.7444 73.095C35.8037 65.7825 29.8559 60.4737 22.6037 60.4737H22.4436C15.1848 60.5532 9.16692 66.064 8.44304 73.2937C8.10946 76.6188 9.06351 80.0995 11.055 82.8416C13.2834 85.9117 16.6092 87.9187 20.679 88.6506L22.8172 89.0347L22.7272 89.1076L24.5419 88.7466C29.9159 87.6802 32.8748 84.7757 34.406 82.527C36.3074 79.7418 37.1581 76.3041 36.7444 73.095ZM22.6271 85.6666H22.6037C19.6515 85.6666 16.8527 84.4909 14.7211 82.3581C12.5962 80.2319 11.4386 77.4566 11.4653 74.5422C11.512 68.4849 16.5058 63.547 22.5971 63.5338H22.6204C25.5693 63.5338 28.3681 64.7062 30.4997 66.839C32.6246 68.9685 33.7822 71.7438 33.7588 74.6582C33.7088 80.7122 28.715 85.6534 22.6271 85.6666ZM119.59 73.9097C119.32 66.9781 113.586 61.093 106.54 60.5101C106.15 60.477 105.757 60.4604 105.366 60.4604C98.7212 60.4604 92.8801 65.1599 91.4758 71.6378C90.6118 75.6219 91.3823 79.351 93.7608 82.7125C96.0425 85.9349 99.2049 87.9054 103.431 88.7334L105.476 89.1341L107.338 88.7698C111.044 88.0412 114.18 86.2296 116.408 83.5272C118.633 80.8281 119.734 77.503 119.59 73.9097ZM113.249 82.378C111.124 84.4976 108.335 85.6666 105.403 85.6666H105.336C99.2416 85.6302 94.2612 80.679 94.2345 74.6317C94.2212 71.714 95.3854 68.942 97.5103 66.8191C99.6352 64.6995 102.424 63.5305 105.36 63.5305L105.423 63.5338C111.518 63.5669 116.501 68.5181 116.528 74.5687C116.541 77.4831 115.377 80.2584 113.249 82.378ZM83.2929 64.0769C83.1795 59.4139 81.4048 54.9926 78.2991 51.6345C75.1701 48.2531 70.8001 46.0673 65.9898 45.4844C65.2459 45.395 64.4887 45.3486 63.7448 45.3486C59.6951 45.3486 55.8121 46.6402 52.513 49.081C49.1938 51.5351 46.7987 54.9131 45.5778 58.8443C43.8231 64.5174 44.5737 69.919 47.8128 74.8999C50.9351 79.6954 55.5987 82.6562 61.6732 83.6961L63.8549 84.0703L66.3368 83.6828C71.444 82.8847 75.7939 80.4505 78.9229 76.6452C81.8551 73.0784 83.4063 68.6141 83.2929 64.0769ZM63.9883 80.6294H63.8916C54.9982 80.5764 47.7627 73.3467 47.7661 64.5108C47.7661 55.6285 55.0482 48.4021 63.9983 48.4021H64.0317C68.355 48.4121 72.4247 50.1044 75.4937 53.1711C78.5627 56.2379 80.2439 60.2915 80.2273 64.5869C80.1906 73.4328 72.9051 80.6294 63.9883 80.6294Z" fill="#FC5122"/>
<path d="M83.0865 13.9096C82.8863 13.34 82.516 12.9757 81.2151 12.8035C79.6539 12.5948 78.076 12.3696 76.5449 12.1477C75.0737 11.9358 73.5493 11.7172 72.0515 11.5185C70.9139 11.3661 70.16 10.8164 69.673 9.78309C68.8557 8.05433 67.9917 6.30569 67.1544 4.61666C66.6174 3.5337 66.0636 2.41431 65.5265 1.30485C65.0061 0.235139 64.5158 0.00993543 63.942 0H63.9086C63.3115 0 62.8045 0.221891 62.2741 1.3181C61.717 2.47392 61.1399 3.63637 60.5828 4.76238C59.7655 6.40836 58.9182 8.10731 58.1309 9.79634C57.6472 10.8263 56.9134 11.3595 55.7491 11.5152C54.3814 11.7039 52.9871 11.9026 51.6427 12.0947C49.9848 12.3332 48.2735 12.5816 46.5822 12.8035C45.2913 12.9724 44.9143 13.3532 44.7208 13.9129C44.5173 14.4925 44.5674 15.0522 45.4614 15.9033C46.6122 16.9995 47.7731 18.1222 48.894 19.2118C50.0015 20.2882 51.149 21.4042 52.2899 22.4839C53.0571 23.2158 53.314 24.0007 53.1238 25.024C52.6568 27.5145 52.2365 30.0216 51.8329 32.4425C51.6928 33.2738 51.556 34.0984 51.4192 34.9065C51.4159 35.4596 51.576 35.9133 51.8796 36.2213C52.1364 36.4862 52.49 36.6253 52.8937 36.6253C53.2172 36.6253 53.5508 36.5392 53.8944 36.367C55.2588 35.6815 56.6398 34.9595 57.9742 34.2607C59.5053 33.4559 61.0898 32.628 62.671 31.8431C63.1114 31.6245 63.5851 31.5781 63.9053 31.5781C64.2256 31.5781 64.6992 31.6245 65.1396 31.8431C67.4613 32.9956 69.7931 34.2176 72.0448 35.4C72.6352 35.708 73.2257 36.0159 73.8161 36.3273C74.2398 36.5458 74.6201 36.6584 74.9436 36.6584C75.2372 36.6584 75.4941 36.5723 75.7543 36.3836C76.1846 36.0756 76.5515 35.6252 76.3314 34.4528C76.0378 32.8863 75.7643 31.29 75.4974 29.7434C75.2472 28.2796 74.987 26.7627 74.7101 25.2824C74.4866 24.0835 74.8069 23.133 75.7176 22.2852C77.0286 21.0664 78.3362 19.7947 79.6038 18.5627C80.4745 17.7149 81.3752 16.8372 82.2725 15.9828C83.2366 15.0654 83.3 14.509 83.0865 13.9096ZM76.6216 16.8339C76.2113 17.2645 75.7976 17.7116 75.4007 18.1454C74.4733 19.1555 73.5126 20.1987 72.4684 21.1393C71.4177 22.0898 71.1274 22.984 71.4343 24.3319C71.7346 25.65 71.9447 26.978 72.1649 28.3888C72.265 29.0247 72.3684 29.6805 72.4851 30.3627L72.8187 32.3365L71.034 31.4092C70.4936 31.131 69.9666 30.8727 69.4595 30.6243C68.342 30.0779 67.2879 29.5612 66.2971 28.9088C65.4331 28.3392 64.6492 28.0643 63.892 28.0643C63.1514 28.0643 62.3875 28.3292 61.5602 28.879C60.5594 29.5414 59.4886 30.0646 58.3611 30.6177C57.8474 30.8694 57.3203 31.1277 56.7799 31.4092L54.9986 32.3365L55.3288 30.3627C55.4356 29.7467 55.5256 29.1373 55.6124 28.5511C55.8125 27.2231 55.9993 25.9679 56.3162 24.716C56.7299 23.08 56.3863 21.9805 55.1253 20.924C54.1179 20.0795 53.2373 19.1489 52.3032 18.162C51.9029 17.7414 51.4893 17.3042 51.0656 16.8737L49.6946 15.486L51.6294 15.1946C52.3099 15.0919 52.9804 14.9893 53.6476 14.8866C55.2554 14.6382 56.7799 14.4031 58.3378 14.1977C59.1217 14.0951 59.6121 13.7275 59.979 12.9691C60.6595 11.5682 61.3434 10.1805 62.0639 8.71338C62.3708 8.09407 62.6811 7.46151 63.0013 6.8124L63.8986 4.98428L64.7993 6.8124C65.1096 7.44164 65.4131 8.05433 65.7133 8.65707C66.4139 10.0613 67.0744 11.3893 67.7115 12.7472C68.1552 13.6977 68.7323 14.1315 69.6997 14.2441C71.2142 14.4262 72.7286 14.6581 74.1964 14.8866C74.8135 14.9826 75.4307 15.0754 76.0411 15.1681L77.9392 15.4496L76.6216 16.8339Z" fill="#FC5122"/>
<path d="M34.7563 32.8996C34.5628 32.2935 34.1692 31.8596 32.8649 31.704C31.8674 31.5848 30.8667 31.4357 29.896 31.2933C29.0153 31.1642 28.1046 31.0284 27.2106 30.9191C26.0531 30.7767 25.2925 30.2236 24.8188 29.1804C24.3117 28.0676 23.748 26.9482 23.2042 25.8653C22.8807 25.2195 22.5437 24.5505 22.2235 23.8881C21.7064 22.8283 21.1427 22.6826 20.6623 22.6826H20.6156C20.1419 22.6959 19.5882 22.8449 19.0845 23.8815C18.7542 24.5637 18.4073 25.246 18.0737 25.905C17.5333 26.9714 16.9762 28.0709 16.4825 29.1671C16.0088 30.217 15.2516 30.7734 14.094 30.9191C13.1833 31.0317 12.256 31.1675 11.3586 31.3C10.4079 31.439 9.4205 31.5848 8.44309 31.704C7.14545 31.8663 6.78184 32.2239 6.5917 32.7936C6.38487 33.4029 6.44492 33.9925 7.39897 34.8767C7.9694 35.4033 8.52315 35.9497 9.05689 36.4796C9.78411 37.195 10.538 37.9401 11.3086 38.6091C12.306 39.4768 12.6463 40.5134 12.3761 41.8646C12.0825 43.3351 11.8256 44.8419 11.5988 46.17C11.5154 46.6701 11.432 47.1503 11.352 47.6073C11.3453 48.2796 11.5221 48.836 11.8623 49.1837C12.1059 49.4321 12.4261 49.5646 12.7864 49.5646C13.0566 49.5646 13.3435 49.4917 13.637 49.3526C15.6952 48.3723 17.6601 47.3126 19.3113 46.4018C19.7716 46.1501 20.2053 46.0276 20.6456 46.0276C21.096 46.0276 21.533 46.1534 22.0167 46.4184C23.1275 47.0344 24.2817 47.6305 25.3992 48.2101C26.0564 48.5512 26.7169 48.8923 27.3741 49.24C27.8077 49.4685 28.1913 49.5845 28.5149 49.5845C28.8218 49.5845 29.0987 49.4818 29.3822 49.2632C29.7925 48.9519 30.1361 48.4949 29.9093 47.2761C29.509 45.1499 29.1554 43.2291 28.8885 41.2751C28.7885 40.53 29.0887 39.5993 29.6091 39.0595C30.9634 37.652 32.4012 36.2942 33.7922 34.9827L33.899 34.88C34.8497 33.9825 34.9331 33.4593 34.7563 32.8996ZM28.3248 35.8967C25.536 37.7216 24.8188 39.9471 25.9963 43.1032L27.2807 46.5409L24.4252 44.216C23.1175 43.1529 21.8899 42.6396 20.6657 42.6396C19.4347 42.6396 18.1771 43.1595 16.8161 44.2326L13.9272 46.5078L15.2616 43.0933C16.4892 39.9504 15.772 37.7414 12.9398 35.9299L9.90753 33.9925L13.5103 34.1017C13.6303 34.1051 13.7504 34.1084 13.8672 34.1084C17.0963 34.1084 18.881 32.7373 19.6549 29.6639L20.5489 26.1137L21.5864 29.6275C22.5004 32.7174 24.1816 34.0984 27.0438 34.0984C27.2573 34.0984 27.4775 34.0918 27.7043 34.0752L31.4972 33.8169L28.3248 35.8967Z" fill="#FC5122"/>
<path d="M121.078 32.8996C120.888 32.2935 120.491 31.8596 119.186 31.704C118.192 31.5848 117.191 31.4357 116.227 31.2933C115.343 31.1642 114.429 31.0284 113.532 30.9191C112.378 30.7767 111.617 30.2236 111.14 29.1804C110.523 27.8259 109.839 26.4647 109.179 25.1466C108.949 24.6929 108.722 24.2359 108.495 23.7821C108.011 22.8085 107.437 22.6826 106.994 22.6826H106.94C106.497 22.6959 105.93 22.8283 105.466 23.7788C105.156 24.4048 104.835 25.034 104.529 25.6434C103.945 26.7959 103.341 27.9881 102.804 29.1705C102.33 30.217 101.573 30.7734 100.415 30.9191C99.5081 31.0317 98.5808 31.1675 97.6868 31.3C96.7327 31.439 95.742 31.5815 94.7645 31.704C93.4669 31.8663 93.1033 32.2273 92.9132 32.7936C92.7097 33.4063 92.7664 33.9925 93.7238 34.8767C94.2909 35.4033 94.8446 35.9497 95.3817 36.4763C96.1089 37.1983 96.8595 37.9401 97.6334 38.6124C98.6308 39.4768 98.9677 40.5101 98.7009 41.8646C98.4073 43.3351 98.1504 44.8419 97.9236 46.17C97.8369 46.6701 97.7568 47.1536 97.6767 47.6106C97.6667 48.2796 97.8469 48.836 98.1871 49.1837C98.4273 49.4321 98.7476 49.5646 99.1078 49.5646C99.3814 49.5646 99.6683 49.4917 99.9618 49.3526C102.05 48.3558 104.092 47.2529 105.636 46.4018C106.093 46.1501 106.53 46.0276 106.967 46.0276C107.417 46.0276 107.854 46.1534 108.341 46.4217C109.342 46.9748 110.386 47.5146 111.394 48.0345C112.114 48.4055 112.862 48.7929 113.592 49.1837C114.092 49.452 114.506 49.5812 114.85 49.5812C115.153 49.5812 115.423 49.4818 115.707 49.2632C116.114 48.9486 116.461 48.4916 116.231 47.2761C115.83 45.1499 115.48 43.2324 115.213 41.2718C115.11 40.53 115.413 39.5993 115.934 39.0595C117.285 37.652 118.723 36.2975 120.11 34.986L120.224 34.88C121.174 33.9825 121.255 33.4559 121.078 32.8996ZM114.876 35.4761C114.469 35.963 114.056 36.3935 113.655 36.8108C112.885 37.609 112.221 38.3011 111.984 39.0165C111.751 39.7153 111.881 40.6492 112.034 41.7288C112.111 42.2952 112.194 42.878 112.234 43.504L112.398 45.9481L110.566 44.3054C109.326 43.1927 108.131 42.6528 106.917 42.6528C105.723 42.6528 104.485 43.1695 103.138 44.2326L100.249 46.5111L101.583 43.0966C102.811 39.9504 102.097 37.7414 99.2613 35.9299L96.2323 33.9958L99.8317 34.1017C99.9518 34.1051 100.072 34.1084 100.189 34.1084C103.418 34.1084 105.206 32.7373 105.976 29.6639L106.87 26.1103L107.908 29.6275C108.788 32.6015 110.326 33.9262 112.905 33.9262C113.242 33.9262 113.605 33.903 113.982 33.8567L116.488 33.5454L114.876 35.4761Z" fill="#FC5122"/>
<path d="M80.7744 108.677C80.5175 108.816 80.2573 108.889 80.0004 108.889C79.4667 108.889 78.9997 108.568 78.6861 107.988C77.265 105.362 75.3636 103.206 72.8684 101.391C72.2446 100.937 72.0745 100.361 72.3513 99.6358C72.5181 99.192 72.775 98.7582 73.8925 98.7085C73.9325 98.7251 73.9726 98.7383 74.0159 98.7516C74.2728 98.8443 74.5964 98.9569 74.8265 99.1159C77.5919 100.994 79.7569 103.448 81.2647 106.402C81.7684 107.385 81.585 108.237 80.7744 108.677Z" fill="#FC5122"/>
<path d="M65.5132 97.2878C65.5132 98.0594 64.7759 98.7913 63.992 98.7913C63.2114 98.788 62.4775 98.0561 62.4775 97.2811C62.4809 96.5095 63.2181 95.7776 63.9954 95.7776V95.2808H63.9987V95.7776C64.369 95.7776 64.7493 95.9498 65.0461 96.2446C65.343 96.5426 65.5132 96.9202 65.5132 97.2878Z" fill="#FC5122"/>
</svg>
