<svg width="126" height="122" viewBox="0 0 126 122" fill="none" xmlns="http://www.w3.org/2000/svg">
<g clip-path="url(#clip0_543_10574)">
<path d="M121.971 86.8049C117.902 84.2763 113.78 81.6809 109.794 79.1689C105.646 76.5536 101.355 73.8517 97.1163 71.223C96.4421 70.8066 95.7745 70.3535 95.1301 69.917C92.6755 68.2546 90.3538 66.6887 87.3379 66.5421L86.7068 66.5121V65.8758V64.3733V60.7851C86.7068 55.4545 86.7068 50.1273 86.7068 44.7967C86.7068 44.6868 86.7102 44.5769 86.7135 44.4669C86.7201 44.1837 86.7268 43.9172 86.6803 43.7006C86.4777 42.7911 85.9628 42.6745 85.541 42.6745C85.5045 42.6745 85.4646 42.6745 85.4248 42.6778C84.983 42.7045 84.4615 42.8478 84.3253 43.7573C84.2955 43.9705 84.2988 44.2071 84.3054 44.4603C84.3087 44.5669 84.3087 44.6735 84.3087 44.7768C84.3087 49.5976 84.3087 54.4151 84.3087 59.2359V63.1039V65.7759V66.4422H83.6444H80.1303H79.466V65.7759V29.4247V28.8384L80.044 28.7617L82.1265 28.4919L83.5581 28.3053L84.3087 28.2087V28.9683C84.3087 29.5347 84.3087 30.1044 84.3087 30.6741C84.3054 31.9801 84.3054 33.3294 84.3121 34.662C84.3154 35.2817 84.4748 36.3178 85.4978 36.3178C86.5806 36.3145 86.7035 35.1584 86.7068 34.6587C86.7102 33.7225 86.7102 32.7863 86.7068 31.8501C86.7035 30.2343 86.6969 28.5652 86.7301 26.9194C86.7467 26.0665 86.9095 25.1669 87.1984 24.314C88.0952 21.6754 87.2582 18.707 85.1225 16.9212C84.1626 16.1216 83.2691 15.2621 82.4653 14.3725C80.1071 11.7539 77.8385 9.17191 75.7161 6.68986C75.1681 6.04686 74.713 5.26393 74.434 4.48101C73.4708 1.75909 71.0062 0 68.1564 0C66.4392 0 64.8017 0.676316 63.5495 1.90568C62.5597 2.87851 61.3906 3.79803 59.9756 4.71755C58.7666 5.50381 57.5111 6.25342 56.2988 6.97971C55.3422 7.55275 54.3524 8.14244 53.3991 8.74546C52.9474 9.03198 52.5488 9.16524 52.1469 9.16524C51.7616 9.16524 51.3764 9.04531 50.9379 8.78211C49.1643 7.72932 47.3208 7.19626 45.4575 7.19626C43.9197 7.19626 42.3253 7.55941 40.7244 8.2757C39.3128 8.90538 38.881 9.98815 39.4722 11.4074C41.3688 15.9484 43.3251 20.5527 45.2217 25.007L46.0155 26.8727C46.3775 27.7256 46.9953 28.1554 47.8556 28.1554C47.9386 28.1554 48.025 28.1521 48.1147 28.1421C48.8919 28.0721 49.5961 27.8922 50.1507 27.629C53.2729 26.1398 55.2127 23.5711 55.9135 19.9996C56.1427 18.8302 56.6542 18.0939 57.6174 17.5409C59.2416 16.6114 60.8691 15.6186 62.4435 14.6591C63.1377 14.2359 63.8319 13.8128 64.5294 13.393C65.0143 13.0999 65.6388 12.9466 66.3329 12.9466C67.4921 12.9466 68.5882 13.3697 69.1894 14.0494L69.9068 14.859C71.2188 16.3382 72.574 17.8674 73.8627 19.4166C74.2978 19.9396 74.4407 20.7159 74.4274 21.269C74.3875 23.1913 74.9189 24.8904 76.0482 26.4563C76.3106 26.8227 76.9251 27.7822 76.9284 28.7984C76.9683 39.2463 76.965 49.8708 76.9583 60.1421V64.4599C76.9583 64.783 76.9384 65.0962 76.9151 65.4027C76.9052 65.5393 76.8952 65.6726 76.8886 65.8058L76.8554 66.4355H76.2243H51.8513H50.8449L51.2402 65.506C51.5291 64.8263 51.8115 64.1567 52.0938 63.4904C53.0039 61.3348 53.8675 59.2959 54.7975 57.2503C55.0997 56.584 56.0463 56.2075 56.6143 56.1908C57.7137 56.1609 58.8165 56.1575 59.7598 56.1575H60.3377H60.9156C61.9054 56.1575 63.0546 56.1542 64.1906 56.1209C65.9377 56.0676 67.243 54.8016 67.3659 53.0358C67.4456 51.8564 67.4456 50.6704 67.3626 49.5176C67.2364 47.7719 65.9211 46.5092 64.1607 46.4459C63.4466 46.4192 62.6926 46.4092 61.849 46.4092C61.1681 46.4092 60.434 46.4159 59.4741 46.4359C58.9593 46.4459 58.1023 46.6125 58.1189 47.6386C58.1289 48.3516 58.6072 48.7847 59.4309 48.8213C59.6966 48.8346 59.9856 48.838 60.341 48.838C60.5569 48.838 60.7728 48.8347 60.992 48.8347C61.2146 48.8313 61.4338 48.8313 61.6563 48.8313C61.8191 48.8313 61.9851 48.8313 62.1479 48.8347C62.2774 48.838 62.4003 48.838 62.5166 48.838C62.7325 48.838 62.9218 48.8347 63.0879 48.8313C63.224 48.828 63.3469 48.828 63.4565 48.828C64.9811 48.828 64.9944 49.6576 65.0143 50.9102C65.0176 51.1468 65.021 51.42 65.0342 51.7398C65.0509 52.2296 65.0143 52.8492 64.5958 53.2857C64.1773 53.7188 63.5794 53.7721 63.1011 53.7721H63.048C60.8957 53.7521 58.6105 53.7421 55.6411 53.7421C54.2893 53.7421 52.9341 53.7454 51.5823 53.7454C50.2271 53.7488 48.8753 53.7488 47.5201 53.7488C46.8592 53.7488 46.1982 53.7488 45.5372 53.7521C44.8762 53.7521 44.2119 53.7554 43.551 53.7554C42.3187 53.7554 40.6978 53.7521 39.0537 53.7188C38.5223 53.7088 37.4793 53.239 37.373 52.4994C37.2734 51.7865 37.2867 51.0835 37.3033 50.3405C37.3099 50.064 37.3166 49.7842 37.3166 49.4943V48.828H37.9809H39.5453H39.5951C40.5882 48.828 41.5813 48.828 42.5745 48.828C43.5676 48.828 44.5607 48.828 45.5538 48.828C47.0717 48.828 48.5896 48.828 50.1076 48.8213C50.8549 48.818 51.7517 48.6081 51.7616 47.6219C51.765 47.2788 51.6753 47.0223 51.4893 46.829C51.2269 46.5625 50.7652 46.4226 50.1507 46.4192H49.7555C48.7889 46.4192 47.8058 46.4326 46.8525 46.4426C45.8959 46.4559 44.9061 46.4659 43.9329 46.4659C42.4848 46.4659 41.2924 46.4392 40.1764 46.3793C39.9372 46.3659 39.7047 46.3593 39.4822 46.3593C37.7849 46.3593 36.6091 46.7257 35.8883 47.482C35.1045 48.3016 34.7823 49.6542 34.872 51.7365C35.0148 55.0281 36.1341 56.1409 39.3095 56.1475C39.821 56.1475 40.3291 56.1475 40.8506 56.1475H42.1626H43.624H44.6304L44.2352 57.077C43.9861 57.6601 43.7469 58.2231 43.5178 58.7662C43.0063 59.9722 42.5246 61.1116 42.0264 62.2377C41.8769 62.5808 41.7441 62.964 41.6046 63.3704C41.2259 64.4799 40.8307 65.6226 39.9306 66.209C39.3161 66.6088 38.5688 66.6521 38.0606 66.6521C37.6852 66.6521 37.2966 66.6221 36.918 66.5954C36.5593 66.5688 36.1873 66.5421 35.8452 66.5421C35.7156 66.5421 35.5994 66.5455 35.4898 66.5521C35.4001 66.5588 35.317 66.5621 35.2373 66.5621C33.8855 66.5621 33.3541 65.7159 33.0119 64.8897C30.5972 59.0427 28.1128 53.1124 25.7113 47.3754C24.8378 45.2932 23.9676 43.2109 23.0974 41.1253C22.9844 40.8588 22.8914 40.5956 22.7951 40.3157C22.7486 40.1891 22.7021 40.0559 22.6523 39.9226L22.4331 39.3263L23.0143 39.0797C23.3764 38.9265 23.7318 38.7765 24.0838 38.6266C24.8411 38.3068 25.5552 38.0069 26.2694 37.6904C28.6741 36.6277 29.4148 34.7786 28.4117 32.3399C26.9503 28.7917 25.6051 25.5634 24.2964 22.4683C23.5657 20.7392 22.4297 19.863 20.9118 19.863C20.2874 19.863 19.6032 20.0163 18.8824 20.3161C18.1683 20.6126 17.4509 20.9091 16.7234 21.2123L15.6805 21.6454L15.0793 21.8953L14.8202 21.2956L14.5147 20.5926C14.322 20.1462 14.146 19.7431 13.97 19.3433C13.0333 17.2244 11.336 16.0117 9.30993 16.0117C8.57588 16.0117 7.80862 16.1683 7.03472 16.4781C5.43045 17.1178 4.20815 17.6375 3.06888 18.1639C0.491421 19.36 -0.651165 22.0585 0.371848 24.5839C2.5142 29.8778 4.76948 35.2317 6.955 40.4057C7.37683 41.4052 7.79866 42.4047 8.22048 43.4075C8.38988 43.8073 8.71538 44.287 9.30328 44.287C9.45607 44.287 9.6155 44.2537 9.78158 44.1937C10.4658 43.9372 10.7016 43.2942 10.416 42.4746C10.3529 42.288 10.2698 42.1015 10.1835 41.9049C10.137 41.8016 10.0938 41.6984 10.0506 41.5951L8.10091 36.9308C6.37375 32.813 4.59344 28.5618 2.84967 24.374C1.9894 22.3084 2.49759 21.0424 4.55358 20.1462C5.34741 19.7997 6.15785 19.4566 6.94172 19.1267L7.07126 19.0701C8.13081 18.6237 8.80174 18.4404 9.38964 18.4404C10.8909 18.4404 11.542 19.6998 12.1299 21.1024C18.3045 35.8714 24.4758 50.6404 30.6471 65.4094C31.9457 68.5178 32.5901 68.9475 35.9382 68.9475H46.8758C50.9479 68.9475 55.02 68.9475 59.0955 68.9475C66.4226 68.9475 76.0947 68.9442 85.9064 68.9309H85.923C88.0686 68.9309 89.9453 69.4673 91.6592 70.5734C94.9076 72.6656 98.239 74.7545 101.461 76.7735C102.676 77.5364 103.892 78.2994 105.108 79.0623C106.988 80.245 108.868 81.4277 110.748 82.6105C114.444 84.9359 118.141 87.2614 121.835 89.5902C123.768 90.8095 124.08 92.1655 122.878 94.1245C122.306 95.054 121.722 95.9835 121.227 96.7731C120.679 97.6426 119.892 98.6388 118.656 98.6388C118.042 98.6388 117.361 98.3923 116.52 97.8625C114.298 96.4633 112.073 95.0673 109.848 93.668C103.201 89.4935 96.3325 85.1758 89.5965 80.8913C87.3612 79.4688 85.0029 78.7758 82.3856 78.7758H82.3457C74.8592 78.7958 66.8843 78.8058 56.4848 78.8058C51.9941 78.8058 47.5035 78.8058 43.0129 78.8024C38.9275 78.8024 34.8454 78.7991 30.76 78.7991C26.8672 78.7991 25.1301 77.633 23.6089 73.9983L22.0146 70.1869C19.3906 63.9135 16.6736 57.4235 13.9965 51.0468C13.8238 50.6337 13.4352 49.9407 12.7875 49.9407C12.648 49.9407 12.4985 49.9707 12.3424 50.0307C12.0103 50.1606 11.7745 50.3739 11.6615 50.6437C11.522 50.9702 11.5519 51.3833 11.7412 51.8398C12.4487 53.5322 13.1529 55.228 13.857 56.9205C16.4976 63.2738 19.2312 69.8404 22.0013 76.2637C23.1937 79.029 25.5054 80.6981 28.6807 81.0879C29.4314 81.1812 30.1887 81.2078 30.9858 81.2345C31.3545 81.2478 31.7199 81.2612 32.0886 81.2811L32.6798 81.3111L32.7163 81.9042C33.0917 88.1709 36.3367 91.256 42.6276 91.3359L43.2819 91.3426V91.9989V102.463V103.13H42.6176H41.5116H40.4919H39.2895H39.263C35.6492 103.13 32.7828 103.933 30.5009 105.589C28.7904 106.828 27.2359 108.384 25.7313 109.893C25.5187 110.106 25.3061 110.319 25.0902 110.533C24.4492 111.169 23.6985 111.759 22.5493 111.759C22.4397 111.759 22.3234 111.752 22.2072 111.742C22.0611 111.729 21.9182 111.722 21.7787 111.722C20.6727 111.722 19.7427 112.162 19.0153 113.025C17.7631 114.517 17.7531 119.155 19.002 120.661C19.7626 121.577 20.7989 121.983 22.3666 121.983C42.7638 121.973 63.4001 121.973 81.6051 121.973H85.7635H101.554C101.879 121.973 102.138 121.967 102.374 121.947C104.171 121.813 105.493 120.571 105.659 118.855C105.789 117.532 105.792 116.196 105.666 114.88C105.496 113.081 104.111 111.779 102.381 111.779C102.338 111.779 102.291 111.779 102.248 111.782C102.165 111.785 102.085 111.785 102.006 111.785C100.464 111.785 99.3284 111.226 98.322 109.97C97.7806 109.293 97.1296 108.654 96.5019 108.041C96.3823 107.924 96.2627 107.804 96.1431 107.687C94.1835 105.752 91.8418 104.419 89.1847 103.723C88.7495 103.61 88.3144 103.5 87.8926 103.396L87.3246 103.253L86.8231 103.126V102.607V83.2168V82.0208L87.8362 82.6504L88.3908 82.9936C88.7329 83.2068 89.0385 83.3934 89.3374 83.5833C91.8917 85.1891 94.4459 86.7983 97.0001 88.4074C103.072 92.2321 109.353 96.1867 115.537 100.065C116.58 100.718 117.636 101.048 118.676 101.048C120.4 101.048 121.944 100.108 123.024 98.4023C123.771 97.2162 124.472 95.9635 125.15 94.7475C125.435 94.2378 125.718 93.728 126.006 93.2216V91.0194C125.336 89.1837 123.96 88.041 121.971 86.8049ZM53.0836 21.1823C52.2499 23.2279 50.7054 24.7638 48.7391 25.5034L48.1446 25.7266L47.8955 25.1403L43.7204 15.3021L41.9998 11.2475L41.7673 10.6978L42.2855 10.4046C43.2354 9.86821 44.3049 9.59502 45.4608 9.59502C48.5365 9.59502 51.6089 11.5807 52.9308 14.4192C53.914 16.5447 53.9704 19.0068 53.0836 21.1823ZM62.7026 11.6739L60.0122 13.3064L56.7804 15.2687L56.1593 15.6452L55.8404 14.9922L54.844 12.9566L54.2528 11.7439L53.9837 11.1975L54.5052 10.881L60.5403 7.21959L61.1847 6.82979L61.4902 7.51943L62.5299 9.86155L62.9616 10.8344L63.2008 11.3708L62.7026 11.6739ZM21.4333 37.1241L21.1742 36.5077L19.8955 33.456L16.2684 24.7838L16.0127 24.1708L16.6205 23.9109C16.9991 23.751 17.3579 23.5977 17.7099 23.4478C18.4938 23.118 19.2345 22.8048 19.9586 22.4817C20.2309 22.3584 20.4834 22.2984 20.7225 22.2984C21.3337 22.2984 21.7953 22.6616 22.0909 23.3812C23.476 26.7228 24.8611 30.0377 26.2062 33.2294C26.3557 33.5826 26.5284 34.1123 26.3059 34.6354C26.1465 35.0085 25.8176 35.295 25.3261 35.4849C24.592 35.7681 23.8646 36.0813 23.0974 36.4111C22.7552 36.5577 22.4065 36.7076 22.0478 36.8609L21.4333 37.1241ZM47.1747 66.5188C46.7529 66.5388 46.3045 66.5488 45.7199 66.5488C45.4376 66.5488 45.1486 66.5455 44.8497 66.5455C44.5308 66.5421 44.1987 66.5421 43.8466 66.5421H42.8402L43.2354 65.6159L43.8001 64.29L45.4608 60.382C45.5372 60.2021 45.6136 60.0222 45.69 59.8423C45.7896 59.6024 45.8926 59.3625 45.9956 59.1226C46.8425 57.1403 47.4105 56.0209 49.2274 56.0209C49.8385 56.0209 50.5792 56.1375 51.6554 56.3441L52.4691 56.4973L52.1436 57.2603L51.4029 58.9927C50.463 61.1916 49.4931 63.4671 48.5132 65.6859C48.2974 66.1723 47.663 66.4922 47.1747 66.5188ZM68.2063 10.7711C68.173 10.7711 68.1398 10.7711 68.1033 10.7711C65.8546 10.7144 64.0411 8.81542 64.0577 6.53994C64.0777 4.2378 65.8845 2.4354 68.1764 2.4354H68.2063C70.4383 2.44873 72.3813 4.39105 72.3681 6.58658C72.3548 8.8554 70.4482 10.7711 68.2063 10.7711ZM75.6297 17.7208L75.2611 17.301L71.6938 13.2598L71.2919 12.8067L71.7038 12.3636L74.1683 9.71496L74.6665 9.17857L75.1514 9.72828L76.9982 11.8239L79.3631 14.5091L79.8879 15.1055L79.2136 15.5186L77.9315 16.3049L76.1047 17.4243L75.6297 17.7208ZM76.8255 21.9986C76.8686 19.7431 78.742 17.9074 81.0039 17.9074H81.0205C83.3256 17.9174 85.1325 19.7364 85.1391 22.0519C85.1424 24.3374 83.309 26.2164 81.0437 26.243H80.9972C79.9011 26.243 78.8184 25.78 78.0245 24.967C77.244 24.1641 76.8055 23.0847 76.8255 21.9986ZM79.4461 102.37V81.9475V81.2811H80.1104H83.5681H84.2323V81.9475V102.37V103.037H83.5681H80.1104H79.4461V102.37ZM63.9979 81.2178H64.546H65.7384H76.2176H76.8819V81.8842V102.37V103.037H76.2176H53.8874H53.2231V102.37V92.0156V91.4126L53.821 91.3526C60.889 90.6363 62.49 89.1104 63.895 81.7609L63.9979 81.2178ZM41.0134 88.8106C39.3726 88.7773 37.8812 88.0843 36.815 86.8582C35.6691 85.5423 35.1344 83.7232 35.3469 81.8708L35.4134 81.2811H36.0046H60.4938H61.0518L61.1481 81.8309C61.4504 83.5566 60.9854 85.3224 59.876 86.6817C58.8032 87.9943 57.2321 88.7673 55.5681 88.8039C53.2065 88.8572 50.7652 88.8839 48.3173 88.8839C45.9424 88.8872 43.4845 88.8605 41.0134 88.8106ZM50.649 91.3193V91.9856V102.43V103.096H49.9847H46.5669H45.9026V102.43V91.9856V91.3193H46.5669H49.9847H50.649ZM95.6084 110.639L96.5749 111.745H95.1102H93.5956H85.8532H78.1109H62.9019C60.7529 111.745 60.7495 112.545 60.7495 112.928C60.7495 113.358 60.8957 113.554 61.0053 113.668C61.3208 113.984 61.9718 114.154 62.8886 114.154H81.8708H101.039C102.016 114.154 102.55 114.154 102.952 114.557C103.354 114.96 103.354 115.527 103.351 116.466C103.351 116.679 103.351 116.876 103.351 117.056C103.354 118.212 103.357 118.792 102.942 119.211C102.587 119.568 102.102 119.598 101.597 119.598C101.444 119.598 101.275 119.595 101.079 119.591C100.836 119.585 100.554 119.581 100.229 119.581C86.1654 119.585 72.1123 119.588 58.0558 119.588H38.3628H23.0475C21.988 119.588 21.4067 119.588 20.9816 119.161C20.5564 118.732 20.5597 118.145 20.5664 117.079C20.5697 116.803 20.5664 116.556 20.5631 116.343C20.5531 115.47 20.5465 114.94 20.9351 114.551C21.2971 114.184 21.8086 114.157 22.4895 114.157C22.6124 114.157 22.7486 114.157 22.8947 114.161C23.0675 114.161 23.2601 114.164 23.4727 114.164H23.4959C27.774 114.161 32.0554 114.161 36.3334 114.161C41.7042 114.161 47.0784 114.161 52.4492 114.154C52.9109 114.154 53.356 114.144 53.728 114.034C54.3159 113.858 54.5716 113.461 54.5118 112.828C54.452 112.195 54.1332 111.865 53.5021 111.782C53.2829 111.755 53.0504 111.749 52.8511 111.749C52.7681 111.749 52.6883 111.749 52.6053 111.749C52.5189 111.749 52.4359 111.749 52.3495 111.749C47.7227 111.749 43.1026 111.749 38.4791 111.749H34.4767H30.4777H28.8003H27.3389L28.2988 110.646C31.2615 107.238 34.7856 105.579 39.0703 105.572C46.5569 105.562 54.266 105.555 61.9752 105.555C69.4286 105.555 77.1078 105.562 84.8003 105.572C89.0917 105.569 92.6257 107.231 95.6084 110.639Z" fill="#FC5122"/>
</g>
<defs>
<clipPath id="clip0_543_10574">
<rect width="126" height="122" fill="white"/>
</clipPath>
</defs>
</svg>
