<svg width="110" height="110" viewBox="0 0 110 110" fill="none" xmlns="http://www.w3.org/2000/svg">
<path d="M81.5216 56.7354C74.0191 56.7354 66.5196 56.7354 59.0171 56.7354C58.7103 56.7354 58.4034 56.7323 58.0996 56.7385C56.7863 56.7569 56.7525 56.7784 56.7525 58.1021C56.7464 66.4528 56.7495 74.8036 56.7495 83.1543C56.7495 90.3932 56.7495 97.6353 56.7495 104.874C56.7495 106.576 56.817 106.671 58.4924 106.502C60.4317 106.305 62.3618 106.035 64.2919 105.759C65.415 105.599 65.5162 105.636 65.7709 106.745C65.8384 107.043 65.9059 107.343 65.9612 107.641C66.1882 108.848 66.1545 108.928 64.9301 109.125C60.7692 109.8 56.6022 110.151 52.3707 109.936C45.9176 109.607 39.6793 108.329 33.7878 105.719C16.1009 97.881 5.18621 84.4534 1.08054 65.5192C0.0157674 60.6144 -0.254262 55.6144 0.239769 50.6604C2.16679 31.2716 11.5749 16.5941 28.4547 6.8306C34.4874 3.34166 41.0418 1.18257 47.9521 0.411681C66.1514 -1.61535 81.8131 3.84534 94.6517 16.9412C102.685 25.1353 107.454 35.08 109.304 46.4006C110.307 52.5339 110.206 58.6734 109.114 64.7944C109.074 65.0186 109.003 65.2397 108.963 65.467C108.862 66.0413 108.518 66.2378 107.972 66.1181C107.45 66.0044 106.932 65.857 106.404 65.771C105.711 65.6543 105.56 65.2428 105.649 64.6101C105.913 62.795 106.153 60.9737 106.401 59.1555C106.723 56.7815 106.683 56.7354 104.37 56.7354C96.7537 56.7354 89.1376 56.7354 81.5216 56.7354ZM84.3262 53.1451C84.7987 53.1789 85.1731 53.228 85.5475 53.228C92.0926 53.2311 98.6377 53.2342 105.183 53.228C106.453 53.228 106.533 53.1267 106.49 51.8337C106.484 51.6433 106.481 51.4498 106.453 51.2593C106.091 48.7993 105.864 46.3116 105.333 43.8883C103.198 34.1371 98.5549 25.7249 91.5587 18.615C90.7424 17.7858 90.7026 17.7888 89.7667 18.5474C86.9651 20.8232 83.9733 22.8165 80.7913 24.5179C80.5887 24.6254 80.3341 24.7022 80.2083 24.8711C80.0487 25.0892 79.9198 25.384 79.9137 25.6482C79.9075 25.943 80.0456 26.2409 80.1346 26.5358C82.5955 34.6777 84.0285 42.9854 84.1513 51.505C84.1605 52.0241 84.2617 52.5462 84.3262 53.1451ZM14.5881 53.2311C17.6873 53.2311 20.7896 53.2311 23.8888 53.2311C25.7821 53.2311 25.8035 53.2311 25.8342 51.3638C25.9048 47.1439 26.3313 42.9608 27.0003 38.7993C27.6815 34.5579 28.6818 30.3933 29.946 26.2901C30.305 25.123 30.2652 25.1506 29.2004 24.4964C26.9205 23.0929 24.6498 21.6709 22.4067 20.209C21.5444 19.6469 20.7528 18.9682 19.958 18.3079C19.4763 17.9086 19.0804 17.927 18.6723 18.3816C18.4943 18.5812 18.2918 18.7593 18.1046 18.9528C13.8824 23.3109 10.5039 28.2464 7.9939 33.7778C5.41942 39.4535 3.98642 45.4148 3.51694 51.6187C3.40034 53.1574 3.48625 53.228 5.05733 53.2311C8.23324 53.2342 11.4122 53.2311 14.5881 53.2311ZM25.6685 56.8214C25.196 56.7876 24.8216 56.7385 24.4473 56.7385C17.9021 56.7354 11.357 56.7323 4.81185 56.7385C3.54149 56.7385 3.46171 56.8398 3.5016 58.1328C3.50773 58.3232 3.50773 58.5167 3.53842 58.7071C3.9005 61.1672 4.12757 63.6549 4.65843 66.0781C6.79718 75.8294 11.4337 84.2415 18.433 91.3515C19.2553 92.1869 19.2983 92.1807 20.2219 91.4252C22.9621 89.1955 25.8803 87.236 28.9948 85.5652C30.2836 84.8742 30.2866 84.8711 29.857 83.4399C27.3961 75.298 25.957 66.9903 25.8404 58.4706C25.8342 57.9455 25.733 57.4203 25.6685 56.8214ZM33.5024 26.6371C33.2907 27.1992 33.0943 27.6107 32.9808 28.0437C32.4254 30.1107 31.827 32.1715 31.3606 34.26C30.0596 40.0585 29.2955 45.9277 29.2065 51.8767C29.1881 53.1789 29.2495 53.2157 30.5597 53.2342C30.6733 53.2372 30.7899 53.2342 30.9034 53.2342C37.7861 53.2342 44.6687 53.2342 51.5545 53.2342C51.8613 53.2342 52.1651 53.2188 52.472 53.2219C52.9936 53.2249 53.2422 52.967 53.2391 52.4479C53.236 52.2176 53.2514 51.9903 53.2514 51.76C53.2514 45.2919 53.2544 38.8238 53.2514 32.3558C53.2514 30.9246 53.1839 30.8632 51.7908 30.7956C46.9517 30.5652 42.2416 29.6439 37.6511 28.1021C36.3101 27.6506 34.9876 27.1623 33.5024 26.6371ZM33.4625 83.228C33.7448 83.2004 33.8614 83.2065 33.9688 83.1758C34.1898 83.1144 34.4076 83.0376 34.6194 82.9547C40.2102 80.7464 45.9913 79.4258 52.0056 79.1586C53.1317 79.1095 53.2391 78.9866 53.2422 77.8503C53.2483 71.2286 53.2483 64.607 53.2422 57.9854C53.2422 56.7999 53.1808 56.7385 52.0178 56.7385C44.8283 56.7292 37.6388 56.7323 30.4523 56.7385C29.2802 56.7385 29.1636 56.8183 29.2157 57.97C29.317 60.2612 29.4551 62.5493 29.6453 64.8343C30.1301 70.6482 31.3177 76.33 32.9777 81.9166C33.1035 82.3496 33.2876 82.7612 33.4625 83.228ZM76.526 26.7385C76.2345 26.7722 76.121 26.7692 76.0136 26.7999C75.8295 26.849 75.6454 26.9074 75.4674 26.975C69.8459 29.2078 64.028 30.5468 57.9738 30.8109C56.8599 30.8601 56.7525 30.9891 56.7495 32.1285C56.7433 38.7501 56.7433 45.3687 56.7495 51.9903C56.7495 53.1635 56.8108 53.2249 57.9861 53.2249C65.1756 53.2311 72.3621 53.2311 79.5516 53.2249C80.7176 53.2249 80.8312 53.1451 80.779 51.9842C80.6777 49.693 80.5396 47.4049 80.3494 45.1199C79.8584 39.2692 78.6617 33.5505 76.9771 27.9301C76.8605 27.5401 76.6887 27.1623 76.526 26.7385ZM53.2452 3.72556C52.923 3.67642 52.7727 3.62421 52.6315 3.63957C52.3278 3.67028 52.024 3.71635 51.7325 3.79313C48.6118 4.60701 46.022 6.32077 43.739 8.54436C39.71 12.4663 37.0895 17.2851 34.9692 22.4141C34.6194 23.2587 34.6961 23.3539 35.7639 23.7931C40.83 25.8662 46.1202 26.9934 51.5606 27.4295C53.1931 27.5616 53.2452 27.4786 53.2452 25.8539C53.2483 18.9252 53.2452 11.9995 53.2452 5.07077C53.2452 4.65308 53.2452 4.23539 53.2452 3.72556ZM56.8323 3.615C56.7986 4.11254 56.7525 4.48416 56.7495 4.85578C56.7464 11.8982 56.7433 18.9405 56.7495 25.9799C56.7495 27.4418 56.8415 27.5769 58.3359 27.4172C60.5759 27.1777 62.8159 26.9105 65.0314 26.5143C68.2349 25.9399 71.3433 24.9878 74.3535 23.7378C75.317 23.3386 75.3661 23.2311 74.9795 22.2882C74.5714 21.2993 74.1357 20.3195 73.6723 19.3521C71.6226 15.0738 69.1248 11.1119 65.5714 7.90247C63.445 5.98293 61.0638 4.48416 58.2469 3.79006C57.8204 3.68871 57.3693 3.67949 56.8323 3.615ZM53.1624 106.37C53.1992 105.866 53.2422 105.562 53.2422 105.261C53.2452 98.1052 53.2483 90.9491 53.2422 83.7931C53.2422 82.5738 53.1348 82.4141 51.9288 82.5401C49.6152 82.7796 47.2985 83.053 45.0063 83.4522C41.7966 84.0112 38.6913 84.9725 35.6811 86.2133C34.6685 86.631 34.6255 86.7385 35.049 87.752C35.4601 88.7409 35.8928 89.7206 36.3562 90.685C38.3936 94.9233 40.8791 98.8515 44.3987 102.036C46.5252 103.959 48.9033 105.455 51.7171 106.164C52.1436 106.272 52.5947 106.293 53.1624 106.37ZM78.7077 21.5542C80.4905 21.1365 86.8577 16.9043 87.947 15.3042C82.0862 10.4393 75.5073 7.0118 67.9465 5.01856C70.0852 7.77347 72.2455 10.2059 73.9945 12.9055C75.7742 15.6482 77.1489 18.6488 78.7077 21.5542ZM41.9439 5.2489C34.469 7.0333 27.8809 10.4393 21.8912 15.4424C24.8953 18.0069 27.9699 20.0616 31.4956 21.7999C33.8369 15.4485 37.3657 10.0462 41.9439 5.2489ZM22.0446 94.3582C24.4196 97.7673 38.8815 105.187 41.9777 104.638C40.5631 102.967 39.0748 101.373 37.783 99.6377C36.485 97.8902 35.2914 96.0536 34.2266 94.1555C33.171 92.2759 32.3364 90.2735 31.3575 88.2311C27.9208 89.9295 24.883 91.9903 22.0446 94.3582Z" fill="#FC5122"/>
<path d="M58.762 84.3396C59.0596 69.8586 70.2842 58.8236 84.3196 58.8082C98.7846 58.7929 110.034 70.1596 109.975 84.5361C109.917 98.7407 98.7385 109.972 84.5313 110C69.916 110.028 58.9921 98.6147 58.762 84.3396ZM84.4331 62.2542C72.2757 62.0853 62.214 72.2695 62.2294 84.4286C62.2447 96.5693 72.2726 106.628 84.473 106.594C96.5261 106.563 106.523 96.557 106.56 84.5024C106.603 72.2573 96.5353 62.1344 84.4331 62.2542Z" fill="#FC5122"/>
<path d="M84.3439 99.0295C83.273 99.0295 82.199 99.0602 81.1311 99.0234C79.7135 98.9742 79.0169 98.2924 78.9863 96.8735C78.9464 94.9601 78.9801 93.0436 78.9678 91.1302C78.9586 89.8802 78.931 89.8526 77.6637 89.8434C75.8656 89.8311 74.0674 89.8495 72.2693 89.8342C70.4466 89.8188 69.8022 89.1616 69.7899 87.3127C69.7777 85.3594 69.7746 83.406 69.7899 81.4527C69.8053 79.6315 70.4619 78.9926 72.3153 78.9804C74.1135 78.9681 75.9116 78.9865 77.7098 78.9711C78.9034 78.9619 78.9556 78.9128 78.9648 77.7519C78.9801 75.9521 78.9617 74.1523 78.974 72.3526C78.9863 70.4331 79.6184 69.7942 81.5209 69.782C83.4724 69.7697 85.424 69.7666 87.3756 69.785C89.14 69.8004 89.8028 70.4607 89.8181 72.2267C89.8365 74.1032 89.812 75.9797 89.8304 77.8563C89.8396 78.8851 89.9163 78.9589 90.9565 78.9681C92.7915 78.9865 94.6295 78.965 96.4645 78.9804C98.3639 78.9926 98.9929 79.6345 99.0052 81.5571C99.0175 83.4705 99.0175 85.387 99.0052 87.3004C98.9929 89.1953 98.3486 89.8219 96.4215 89.8342C94.6602 89.8434 92.902 89.8311 91.1406 89.8403C89.8703 89.8495 89.8334 89.8802 89.8273 91.1149C89.815 92.9146 89.8334 94.7144 89.8181 96.5141C89.8028 98.36 89.1584 99.0049 87.3295 99.0264C86.3353 99.0387 85.3411 99.0295 84.3439 99.0295C84.3439 99.0326 84.3439 99.0326 84.3439 99.0295ZM86.3231 77.3157C86.32 77.3157 86.32 77.3157 86.3231 77.3157C86.32 76.3974 86.3292 75.4791 86.3169 74.5577C86.3016 73.3569 86.2617 73.317 85.1049 73.2924C84.6446 73.2832 84.1874 73.2832 83.7271 73.2924C82.5396 73.3139 82.4844 73.3538 82.4752 74.5178C82.4598 76.3944 82.4874 78.2709 82.4629 80.1474C82.4414 81.7721 81.7633 82.4509 80.1462 82.4785C78.7316 82.5031 77.3139 82.4662 75.8993 82.4908C72.929 82.5399 73.3034 81.9994 73.2942 85.2273C73.2911 86.2531 73.377 86.3237 74.4264 86.3329C76.2614 86.3514 78.0995 86.3299 79.9344 86.3452C81.8277 86.3575 82.4567 86.9994 82.469 88.9281C82.4813 90.7279 82.4629 92.5277 82.4782 94.3274C82.4874 95.4576 82.5457 95.5068 83.632 95.5344C84.1291 95.5467 84.6262 95.5467 85.1233 95.5344C86.2494 95.5098 86.3047 95.4699 86.3139 94.3673C86.3323 92.7211 86.32 91.0749 86.32 89.4288C86.3231 86.8182 86.7925 86.3452 89.3885 86.3421C91.1099 86.3391 92.8314 86.3237 94.5528 86.3421C95.2371 86.3483 95.5347 86.0657 95.504 85.3839C95.4826 84.8495 95.5102 84.312 95.501 83.7746C95.4826 82.5307 95.4611 82.5 94.1907 82.4908C92.3926 82.4785 90.5944 82.4969 88.7963 82.4816C86.9767 82.4662 86.3384 81.809 86.3169 79.9601C86.3139 79.0756 86.3231 78.1941 86.3231 77.3157Z" fill="#FC5122"/>
</svg>
