<svg width="116" height="105" viewBox="0 0 116 105" fill="none" xmlns="http://www.w3.org/2000/svg">
<path d="M116 95.9548C115.812 96.5985 115.661 97.2573 115.428 97.8829C113.899 102.011 110.933 104.495 106.566 104.933C102.259 105.366 98.7 103.679 96.5481 99.8926C93.4034 94.3621 90.4919 88.6957 87.5258 83.0625C86.6269 81.358 87.2625 79.4541 88.918 78.4659C89.3054 78.2362 89.7049 78.0277 90.2195 77.7436C89.6323 76.6345 89.0663 75.5495 88.4913 74.4676C87.4834 72.5728 86.4877 70.6688 85.4435 68.7951C85.2801 68.502 84.8473 68.1212 84.593 68.1575C82.1022 68.5231 79.6234 68.9704 77.0145 69.4177C76.8783 71.1856 76.7693 73.1349 76.5756 75.0781C76.161 79.2153 75.4528 83.2922 73.5975 87.0728C70.1381 94.1204 62.2417 96.6348 55.6407 92.7937C52.6202 91.0348 50.8436 88.2696 49.639 85.1024C47.9502 80.6569 47.4114 75.9787 46.8908 71.2944C46.4883 67.6649 46.0555 64.0383 45.541 60.4239C45.4048 59.478 45.0023 58.5351 44.5513 57.6828C43.831 56.3229 42.9533 56.2927 42.2935 57.6587C41.7124 58.8615 41.216 60.1761 41.0344 61.4907C40.4836 65.4829 40.1173 69.4993 39.6482 73.5005C39.1367 77.8463 38.4951 82.174 36.6852 86.2115C34.8481 90.3125 32.0061 93.2863 27.3936 94.1959C21.2829 95.3987 16.2255 92.972 13.3653 87.4083C11.3648 83.5188 10.5567 79.3 10.2268 75.0025C9.93925 71.2491 9.69107 67.4715 9.78187 63.712C9.95135 56.6674 8.42595 50.049 5.52648 43.6724C3.67421 39.5986 1.71601 35.552 0.823167 31.1155C-0.484318 24.612 -0.454053 18.2263 2.53319 12.1186C3.75593 9.61628 5.45082 7.46152 7.58759 5.66337C8.50465 4.88971 9.40959 4.87158 10.1057 5.59386C10.8381 6.35241 10.7837 7.34668 9.85148 8.17172C4.47626 12.9164 3.081 19.0694 3.49564 25.8812C3.80133 30.901 5.5507 35.4915 7.60575 40.0035C9.74555 44.7029 11.8036 49.4506 12.5361 54.6124C12.8781 57.0301 13.0778 59.484 13.1081 61.9259C13.1747 67.3929 13.1656 72.8599 14.0645 78.2755C14.5215 81.0347 15.2812 83.6941 16.5523 86.2176C19.93 92.9146 29.4638 92.425 32.7204 86.547C34.4546 83.4191 35.3202 80.0434 35.7863 76.568C36.4128 71.9019 36.8365 67.2085 37.3995 62.5333C37.7021 60.0189 38.1743 57.5287 39.6694 55.3921C41.6851 52.512 45.084 52.503 47.1088 55.374C47.6021 56.0721 48.0742 56.8608 48.2679 57.6768C48.8006 59.9011 49.2819 62.1495 49.6057 64.4131C50.3442 69.593 50.8315 74.8121 51.7213 79.9648C52.1057 82.18 53.0257 84.3771 54.0699 86.3898C55.7678 89.6567 58.6855 91.1043 62.3688 91.0711C66.031 91.0378 68.5763 89.2759 70.2652 86.1269C72.1023 82.7029 72.7137 78.9494 73.1556 75.1627C73.3553 73.4431 73.3947 71.7024 73.5672 69.9798C73.6459 69.194 73.4734 68.8979 72.6047 68.7558C58.7036 66.5255 48.613 54.3585 48.9762 40.3209C49.3848 24.5304 62.9741 12.1095 78.7548 13.1008C79.4297 13.1431 80.1046 13.1854 80.9218 13.2368C80.7705 12.8953 80.6827 12.6293 80.5404 12.3996C77.5078 7.47965 72.9346 4.89273 67.3808 3.88939C60.7284 2.6866 54.3181 3.87731 48.0258 6.01998C47.6324 6.15295 47.2298 6.26779 46.8576 6.44005C44.5604 7.50685 42.3207 7.38597 39.966 6.47027C35.0085 4.54821 29.8663 3.27893 24.5183 3.46932C21.8307 3.56603 19.1522 4.13116 16.4888 4.60865C15.1208 4.85345 14.2098 4.61168 13.898 3.56905C13.6075 2.59593 14.1825 1.76788 15.4537 1.36896C21.4978 -0.528923 27.5964 -0.302265 33.6798 1.07581C36.21 1.65001 38.707 2.42065 41.1464 3.29404C42.696 3.85011 44.0701 3.89846 45.6167 3.29706C49.9598 1.61073 54.4543 0.486504 59.1152 0.145006C66.4547 -0.389906 73.3462 0.78267 79.2087 5.63617C81.7269 7.72142 83.5701 10.3204 84.8019 13.3335C85.0712 13.9923 85.4647 14.3157 86.1245 14.5423C92.9767 16.9177 98.1703 21.2816 101.696 27.6099C102.296 28.6827 102.084 29.68 101.212 30.1726C100.319 30.6773 99.3961 30.3479 98.7575 29.2962C98.6394 29.1028 98.5335 28.9034 98.4185 28.7069C95.6128 23.932 91.6692 20.4505 86.5482 18.3169C71.267 11.9524 54.1789 22.152 52.5173 38.6255C51.1735 51.9681 60.5044 63.7784 74.0878 65.5222C87.208 67.2085 99.2841 58.2299 101.388 45.1472C101.817 42.4786 101.5 39.6741 101.391 36.9391C101.336 35.5943 101.642 34.7723 102.686 34.5758C103.757 34.3764 104.52 34.9596 104.72 36.2924C106.233 46.35 103.279 54.8814 95.8943 61.8836C95.5947 62.1677 95.286 62.4396 94.9288 62.763C96.651 65.9997 98.358 69.2061 100.047 72.3763C100.237 72.3582 100.316 72.3703 100.38 72.3401C103.742 70.7655 104.959 71.1735 106.708 74.4646C108.848 78.487 111.039 82.4853 113.113 86.544C114.181 88.6383 115.044 90.8414 115.997 92.9961C116 93.9934 116 94.9726 116 95.9548ZM94.4204 88.7984C96.0093 91.7903 97.5317 94.6885 99.0813 97.5716C101.076 101.283 105.246 102.667 108.794 100.817C112.38 98.9467 113.594 94.7006 111.605 90.9048C110.207 88.2363 108.778 85.5859 107.359 82.9295C107.223 82.6726 107.044 82.4399 106.875 82.1831C102.722 84.3892 98.6303 86.5621 94.4204 88.7984ZM105.349 79.1489C104.538 77.6287 103.797 76.2446 103.028 74.8091C98.8029 77.0515 94.6897 79.2365 90.51 81.4577C91.309 82.9597 92.0475 84.3408 92.8254 85.7975C97.0202 83.5702 101.139 81.3852 105.349 79.1489ZM92.1625 64.809C90.8248 65.5222 89.6051 66.175 88.3006 66.87C89.9501 69.9707 91.5814 73.0321 93.243 76.157C94.5777 75.4438 95.7944 74.794 97.0959 74.0989C95.4373 70.9741 93.8211 67.9308 92.1625 64.809Z" fill="#FC5122"/>
<path d="M77.069 20.6046C88.4278 20.6107 97.6407 29.7948 97.6165 41.0854C97.5923 52.4183 88.3824 61.6085 77.0751 61.5813C65.6981 61.5541 56.5306 52.4032 56.5487 41.0915C56.5669 29.7284 65.7132 20.5986 77.069 20.6046ZM59.9476 41.022C59.875 50.3995 67.4777 58.0968 76.8965 58.1875C86.4181 58.2751 94.1692 50.6594 94.2237 41.1579C94.2782 31.7864 86.6391 24.0619 77.2536 24.0015C67.6775 23.935 60.0202 31.4661 59.9476 41.022Z" fill="#FC5122"/>
<path d="M82.4351 35.7968C84.3873 36.0477 86.5785 35.3163 88.1675 37.1356C88.9392 38.0181 89.139 39.0577 89.0906 40.1849C89.0119 42.0284 89.4931 43.9958 87.7619 45.4373C86.1608 46.7701 84.2147 46.1143 82.3473 46.3923C82.0507 48.4715 82.9345 50.8892 80.713 52.4124C79.1089 53.5124 77.2839 53.0954 75.5436 53.0923C73.9304 53.0893 72.6048 52.2824 72.1659 50.7351C71.7845 49.3933 71.8451 47.9245 71.6937 46.3682C69.678 46.1052 67.2174 46.9363 65.7011 44.6758C64.5964 43.0287 64.896 41.1339 65.0958 39.3962C65.5679 35.2861 68.8911 35.8966 71.7755 35.8391C72.0327 33.7237 71.2428 31.3846 73.3372 29.8312C74.8838 28.6828 76.6695 29.0938 78.3734 29.0666C80.0229 29.0424 81.4454 29.7466 81.9297 31.3392C82.3443 32.7052 82.2777 34.2163 82.4351 35.7968ZM68.4311 42.923C70.1018 42.923 71.6726 42.9018 73.2434 42.929C74.6477 42.9532 75.2137 43.5455 75.2288 44.9447C75.2439 46.2624 75.2016 47.583 75.2591 48.8977C75.2712 49.1757 75.5769 49.6592 75.7796 49.6774C76.7754 49.759 77.7832 49.7136 78.8789 49.7136C78.8789 48.668 78.8789 47.8067 78.8789 46.9454C78.8789 42.9199 78.8789 42.9199 82.8497 42.9199C83.7698 42.9199 84.6869 42.9199 85.5888 42.9199C85.5888 41.5811 85.5888 40.4781 85.5888 39.2481C83.9908 39.2481 82.4896 39.2632 80.9884 39.2451C79.466 39.2269 78.9031 38.6437 78.8789 37.0994C78.8698 36.4224 78.8758 35.7424 78.8758 35.0655C78.8758 32.2277 78.8758 32.2459 76.0581 32.4332C75.4195 32.4755 75.2076 32.7143 75.2227 33.3308C75.253 34.6091 75.2409 35.8905 75.2288 37.1719C75.2167 38.6497 74.6598 39.2209 73.1859 39.2451C71.9056 39.2662 70.6193 39.2088 69.3421 39.2843C69.0243 39.3025 68.5007 39.6772 68.4704 39.9371C68.3675 40.8558 68.4311 41.7987 68.4311 42.923Z" fill="#FC5122"/>
</svg>
