<svg width="72" height="69" viewBox="0 0 72 69" fill="none" xmlns="http://www.w3.org/2000/svg">
<path d="M34.0273 68.0952C27.8357 68.0952 21.6441 68.1129 15.4525 68.0916C6.58964 68.0597 0.0336116 61.5034 0.0159213 52.6315C-0.0053071 40.2209 -0.0053071 27.8138 0.0159213 15.4032C0.0336116 6.63778 6.60026 0.0530548 15.3428 0.01405C21.2974 -0.0107712 27.2519 0.00341226 33.21 0.010504C36.0193 0.0140499 37.7883 1.50332 37.7671 3.82234C37.7458 6.12362 36.0016 7.54553 33.1428 7.54907C27.4819 7.55971 21.821 7.54553 16.1601 7.55616C10.5452 7.56325 7.54492 10.5737 7.54138 16.2188C7.53431 28.0975 7.53431 39.9727 7.54138 51.8514C7.54492 57.5142 10.5346 60.5424 16.1353 60.546C28.0445 60.5566 39.9571 60.5566 51.8662 60.546C57.3785 60.5424 60.4071 57.5071 60.4177 51.9897C60.4319 46.4333 60.4107 40.8805 60.4248 35.324C60.4319 32.4696 61.8931 30.7924 64.2707 30.8491C66.5457 30.9023 67.9432 32.5937 67.9467 35.3418C67.9538 41.1925 67.9786 47.0432 67.9432 52.8939C67.8901 61.4324 61.2987 68.0349 52.7755 68.0881C46.5273 68.1271 40.2755 68.0952 34.0273 68.0952Z" fill="#21231E"/>
<path d="M33.7942 36.3666C42.6606 27.5089 51.2192 18.9598 59.7742 10.4106C61.5256 8.65897 63.2557 6.88248 65.0282 5.14854C66.8043 3.4146 69.1359 3.35786 70.6715 4.96061C72.1999 6.55626 72.1398 8.72989 70.3955 10.4851C59.24 21.6937 48.0703 32.8881 36.8865 44.0683C35.029 45.9263 32.9663 45.9369 31.1194 44.1037C26.1768 39.1997 21.2589 34.2674 16.3693 29.3138C14.717 27.6401 14.7135 25.2786 16.2419 23.7787C17.7986 22.2539 20.0347 22.3036 21.7542 24.0056C25.3595 27.5763 28.9258 31.186 32.4958 34.7957C32.9451 35.2567 33.3166 35.7886 33.7942 36.3666Z" fill="#21231E"/>
</svg>
