<svg width="107" height="86" viewBox="0 0 107 86" fill="none" xmlns="http://www.w3.org/2000/svg">
<path d="M91.2998 28.0643C88.9859 28.8834 86.7357 29.5855 84.5881 30.5216C84.1494 30.7131 83.8946 31.7804 83.8911 32.447C83.838 38.0282 83.7212 43.613 83.9194 49.1907C84.0184 51.9707 82.9252 53.8217 80.8554 55.4067C76.1463 59.0128 70.7507 60.9666 64.9943 61.9205C53.4425 63.8388 41.9509 63.8424 30.8484 59.6121C27.7915 58.449 25.0637 56.3676 22.2828 54.5557C20.726 53.5415 20.2378 51.9175 20.2661 50.0063C20.351 44.1485 20.2555 38.2836 20.3298 32.4257C20.3475 31.0287 19.9689 30.3478 18.5855 29.8621C13.3386 28.0217 8.1553 26.0041 2.93312 24.0964C1.31623 23.5078 -0.0105509 22.7029 6.32451e-05 20.7704C0.0106774 18.8272 1.39052 18.0578 2.98619 17.4798C18.8013 11.7532 34.5988 5.97692 50.4458 0.335409C51.7548 -0.129103 53.5203 -0.104282 54.833 0.367322C70.6127 5.98756 86.3465 11.7425 102.098 17.4443C103.771 18.0507 105.226 18.8662 105.165 20.898C105.109 22.8022 103.718 23.561 102.109 24.1425C97.7072 25.724 97.7178 25.7559 97.7178 30.4081C97.7178 37.7339 97.6683 45.0598 97.7744 52.3856C97.7886 53.4174 98.344 54.6479 99.0446 55.4279C101.09 57.708 103.35 59.7894 105.494 61.9843C107.419 63.9594 107.433 65.438 105.53 67.3953C103.393 69.5938 101.256 71.7958 99.0163 73.8914C98.0044 74.8382 97.6152 75.8381 97.6931 77.1926C97.7886 78.7918 97.7603 80.4017 97.7001 82.0044C97.6258 83.9901 96.4017 85.2524 94.6362 85.2844C92.7858 85.3163 91.5439 84.0078 91.4448 81.9193C91.4413 81.8484 91.4307 81.7775 91.4448 81.7101C92.4355 76.7636 90.3233 73.1929 86.5305 70.2817C85.3806 69.3988 84.4147 68.2605 83.4205 67.1897C81.8072 65.4522 81.7824 63.9416 83.4276 62.229C85.6955 59.8674 88.0801 57.6158 90.3233 55.2294C90.8787 54.6372 91.3882 53.7117 91.3953 52.9352C91.4731 44.9817 91.4413 37.0283 91.4378 29.0749C91.4342 28.8018 91.367 28.5359 91.2998 28.0643ZM92.5275 20.8909C91.926 20.5576 91.7102 20.3981 91.4731 20.313C78.8812 15.7281 66.2963 11.1327 53.6831 6.61164C52.933 6.34215 51.8999 6.47335 51.118 6.75347C38.8975 11.1362 26.6947 15.5686 14.4884 20.0009C13.9011 20.2137 13.3421 20.5044 12.4399 20.9016C25.559 25.7736 38.2465 30.4932 50.9482 35.1703C51.539 35.3866 52.3457 35.3866 52.9436 35.1738C66.0132 30.4897 79.0652 25.7595 92.5275 20.8909ZM26.5745 32.869C26.5745 37.0177 26.5745 40.7763 26.5745 44.5314C26.5745 51.0062 26.9176 51.4991 33.042 53.8004C33.4984 53.9706 33.9584 54.1266 34.4219 54.2684C43.3626 57.0271 52.4695 57.3746 61.672 56.0839C66.8022 55.3641 71.7697 54.0734 76.1073 51.0559C76.6911 50.6481 77.4943 49.9779 77.5049 49.4141C77.611 44.074 77.5686 38.7303 77.5686 33.1136C76.5708 33.415 75.8526 33.5994 75.1556 33.8512C68.8826 36.117 62.553 38.2445 56.3685 40.7302C53.2444 41.9855 50.5271 41.9358 47.4101 40.6628C40.6666 37.9148 33.7744 35.5355 26.5745 32.869ZM99.1684 64.8139C97.5338 63.1332 96.0549 61.6155 94.8838 60.4135C93.2386 61.8957 91.6607 63.3176 90.2313 64.6083C91.6854 66.1968 93.1183 67.7641 94.5017 69.2747C96.0868 67.757 97.5869 66.3245 99.1684 64.8139Z" fill="#21231E"/>
</svg>
