<svg width="91" height="76" viewBox="0 0 91 76" fill="none" xmlns="http://www.w3.org/2000/svg">
<path d="M77.9769 61.9674C76.031 67.9067 74.3398 69.123 67.8474 69.2861C67.108 72.2611 65.4062 74.4702 62.4094 75.4808C60.0248 76.2821 57.7746 75.8779 55.6234 74.6227C52.517 72.8107 49.3894 71.0413 46.2688 69.2542C46.2263 69.2294 46.1591 69.2506 45.9928 69.2506C45.7629 69.5733 45.5011 69.9527 45.2251 70.325C41.6906 75.0978 34.6604 74.6546 31.8052 69.4244C31.3063 68.5131 30.8605 68.2613 29.8027 68.2826C26.6042 68.3464 24.1064 66.9458 22.585 64.0665C22.1534 63.2474 21.7748 62.9177 20.7417 62.9531C17.4654 63.0701 14.9145 61.6553 13.3754 58.7016C12.9296 57.8435 12.498 57.6059 11.5038 57.6449C5.38293 57.8931 1.37078 51.546 4.1517 46.0428C5.07867 44.2095 6.16133 42.4543 7.25459 40.5183C5.40418 39.4368 3.62806 38.412 1.86964 37.3589C-0.132899 36.1639 -0.483166 35.0009 0.610095 32.9513C5.41125 23.9448 10.2266 14.9453 15.0525 5.9529C16.2342 3.74736 17.4796 3.41404 19.6838 4.67638C23.0096 6.57698 26.2929 8.55559 29.6576 10.3853C30.2272 10.6938 31.2568 10.7009 31.8229 10.3888C35.7466 8.22582 39.6172 5.97063 43.4737 3.69417C46.4139 1.95668 49.4354 1.66592 52.6267 2.88925C54.9371 3.77572 57.2403 4.68347 59.5967 5.41747C60.3255 5.64441 61.348 5.56995 62.0167 5.21536C64.7233 3.78282 67.3344 2.16943 69.9986 0.655339C72.0082 -0.482893 73.2324 -0.167309 74.4035 1.82903C79.5761 10.6299 84.7346 19.4379 89.8825 28.253C91.0182 30.1962 90.8024 31.1855 89.0263 32.6854C87.6818 33.8201 86.3232 34.937 84.8478 36.1639C87.0804 37.9298 88.4071 40.0821 88.4213 42.855C88.4354 45.6385 87.2113 47.8512 85.0318 49.4965C88.3257 56.379 83.698 61.8574 77.9769 61.9674ZM18.7533 10.2966C14.543 18.165 10.4105 25.8879 6.271 33.625C8.34076 35.1391 10.2195 36.7844 12.682 34.6427C12.8483 34.4973 13.1136 34.4619 13.34 34.3981C17.0055 33.3662 19.9032 34.6675 22.2347 37.4369C28.6634 34.3591 34.2111 38.1 34.7595 44.5854C39.7942 46.1066 40.661 47.0853 42.2 53.0104C48.0944 54.4855 49.9236 57.613 48.8622 64.563C52.1314 66.4423 55.4182 68.389 58.7688 70.2328C60.1026 70.9669 61.5709 70.4208 62.2573 69.1655C62.9437 67.9067 62.604 66.4742 61.2631 65.6338C59.4658 64.5062 57.5977 63.4992 55.7685 62.4248C53.8827 61.3149 53.3272 59.8327 54.2259 58.3718C55.0856 56.9748 56.5681 56.7549 58.4044 57.8045C61.5745 59.62 64.7269 61.4674 67.897 63.2829C69.7792 64.3609 71.3678 64.0843 72.1745 62.5808C72.9458 61.1483 72.3797 59.7689 70.5328 58.691C67.3769 56.8471 64.2032 55.0387 61.0508 53.1948C59.2323 52.1311 58.6803 50.7269 59.4658 49.2837C60.2831 47.7803 61.8434 47.5179 63.7433 48.6064C67.8298 50.9538 71.9021 53.3296 75.985 55.684C78.0406 56.8719 79.615 56.7195 80.4783 55.2763C81.377 53.7728 80.7119 52.2977 78.5678 51.0531C74.4884 48.688 70.4055 46.3371 66.3332 43.9649C64.5252 42.9082 63.9839 41.4792 64.787 40.0431C65.5937 38.6035 67.1363 38.3163 68.9195 39.3339C72.0931 41.1423 75.2455 42.9898 78.4121 44.8088C80.3262 45.908 81.8829 45.7024 82.7356 44.2663C83.5989 42.8054 83.0293 41.3586 81.0975 40.2381C70.0375 33.8236 58.9634 27.4304 47.914 20.9981C46.9729 20.4485 46.2688 20.4946 45.3489 21.0407C41.2943 23.4448 37.2291 25.8312 33.1037 28.1076C30.1317 29.7458 27.1527 29.4622 24.4814 27.402C21.8031 25.3348 20.7063 22.4342 21.6934 19.2252C22.2843 17.3104 23.7313 15.658 24.8281 13.8283C23.052 12.7858 21.0141 11.6051 18.7533 10.2966ZM84.4657 29.5295C79.8662 21.6754 75.38 14.0234 70.8583 6.3004C68.1234 7.88187 65.6362 9.47397 63.0003 10.7647C62.0167 11.2469 60.5873 11.3604 59.5365 11.0484C56.6105 10.1796 53.7589 9.03428 50.9072 7.92796C49.1771 7.25424 47.631 7.4209 46.0282 8.36411C40.2895 11.7398 34.5154 15.0446 28.7554 18.3848C26.8661 19.4805 26.2363 20.9627 27.0217 22.3952C27.8497 23.9022 29.4524 24.1043 31.4762 22.9377C35.7607 20.4662 40.0843 18.0515 44.3087 15.4772C45.9964 14.4489 47.3479 14.5056 49.0285 15.4914C58.3725 20.9804 67.7732 26.3772 77.1561 31.8025C78.0583 32.3237 78.9747 32.8201 79.8946 33.3343C81.4371 32.0471 82.8807 30.8451 84.4657 29.5295ZM20.7558 57.6733C21.1096 57.4676 22.0118 57.2584 22.3515 56.7017C24.6371 52.9289 26.8661 49.1135 28.9783 45.2379C29.6505 44.0074 29.1269 42.7486 27.9239 42.0324C26.6432 41.27 25.2562 41.4686 24.4885 42.7309C22.2277 46.4541 20.0411 50.2269 17.9926 54.0707C17.1152 55.7089 18.541 57.6591 20.7558 57.6733ZM18.5127 41.5714C17.8334 40.9189 17.2001 39.9545 16.312 39.5396C15.1091 38.9793 13.991 39.6247 13.3224 40.7452C11.8753 43.1706 10.4636 45.6208 9.0873 48.0887C8.2134 49.6525 8.53889 51.1701 9.82675 51.9538C11.1818 52.78 12.728 52.3048 13.6868 50.6879C15.0666 48.3582 16.4076 46.0038 17.7308 43.6422C18.0032 43.1387 18.1412 42.5572 18.5127 41.5714ZM30.0114 62.9744C30.3581 62.7652 31.2356 62.5312 31.5823 61.9674C33.2841 59.2193 34.9258 56.4251 36.4118 53.553C37.0521 52.319 36.5073 51.0992 35.2796 50.3829C34.0306 49.6525 32.7216 49.8759 31.9856 51.0354C30.2555 53.7657 28.6209 56.5705 27.1527 59.4498C26.3212 61.0951 27.8001 63.0276 30.0114 62.9744ZM44.5741 61.0915C43.7037 60.088 43.1659 58.9108 42.3769 58.7087C41.4889 58.4818 39.9711 58.8009 39.4439 59.4604C38.1737 61.0454 37.1265 62.8893 36.4012 64.7899C36.1075 65.5629 36.6028 67.077 37.2609 67.6514C37.8518 68.162 39.688 68.2755 40.0595 67.8181C41.6941 65.804 42.9961 63.5205 44.5741 61.0915Z" fill="#21231E"/>
</svg>
