<svg width="91" height="91" viewBox="0 0 91 91" fill="none" xmlns="http://www.w3.org/2000/svg">
<path d="M34.1046 36.431C34.1046 28.3961 34.094 20.3611 34.1082 12.3296C34.1188 4.5712 38.6935 0.00409444 46.4313 0.00409444C57.1587 0.000548551 67.8861 -0.00299734 78.6135 0.00409444C85.8913 0.0111862 90.5898 4.68467 90.5969 11.9325C90.6075 22.8609 90.6075 33.7894 90.5969 44.7178C90.5898 51.8699 85.9231 56.5788 78.7373 56.6107C69.365 56.6533 59.9927 56.593 50.6203 56.6639C49.6509 56.671 48.5435 57.061 47.7474 57.6248C44.7613 59.7311 41.9344 62.0678 38.92 64.128C38.0708 64.7095 36.7122 65.0003 35.718 64.7911C34.3346 64.5003 34.1046 63.082 34.1046 61.7735C34.1082 53.3237 34.1082 44.8774 34.1046 36.431ZM39.4259 57.1639C41.7009 55.4548 43.6185 54.0931 45.4406 52.6145C46.6577 51.6252 47.9562 51.2635 49.5094 51.2706C59.1152 51.3132 68.7211 51.3025 78.3269 51.2883C83.0396 51.2812 85.2863 49.0331 85.2898 44.3632C85.2969 33.6723 85.2934 22.9815 85.2898 12.2942C85.2863 7.56394 83.0785 5.33357 78.3835 5.33357C67.8932 5.33002 57.4028 5.33002 46.9124 5.33357C41.478 5.33357 39.4259 7.376 39.4259 12.8048C39.4224 26.8607 39.4259 40.9166 39.4259 54.9761C39.4259 55.5399 39.4259 56.1143 39.4259 57.1639Z" fill="#21231E"/>
<path d="M25.6101 67.9186C29.8204 70.7127 32.6862 74.404 33.3796 79.3505C33.8042 82.3645 33.7334 85.4707 33.6238 88.5273C33.5636 90.2293 32.1802 90.7896 30.581 90.786C24.5734 90.7754 18.5622 90.7825 12.5546 90.7825C9.43049 90.7825 6.30993 90.8002 3.18582 90.7754C1.01345 90.7577 0.0334054 89.8003 0.0263293 87.6479C0.0157151 83.3539 -0.320403 79.0208 1.74936 74.9855C3.24243 72.0708 5.36172 69.7731 8.19925 67.9009C4.45951 64.5784 2.49942 60.5077 2.92752 55.5221C3.24949 51.7848 4.88408 48.6254 7.73576 46.1574C13.3542 41.2925 21.7359 41.7003 26.9474 46.9943C31.6283 51.7564 33.1886 61.036 25.6101 67.9186ZM5.4254 85.3466C13.1207 85.3466 20.6921 85.3466 28.3025 85.3466C28.8686 80.1306 27.7117 75.6805 23.1688 72.7445C19.2734 70.227 15.1162 70.1029 11.1111 72.4396C6.24269 75.2799 4.88053 79.8505 5.4254 85.3466ZM25.557 56.8306C25.5747 52.0259 21.7571 48.1325 16.9772 48.0793C12.2468 48.0261 8.2417 51.9337 8.17802 56.6533C8.11433 61.4367 12.13 65.5287 16.8887 65.5322C21.6156 65.5357 25.5393 61.5998 25.557 56.8306Z" fill="#21231E"/>
<path d="M59.777 31.1086C59.7381 27.8748 59.9928 27.5734 63.2089 26.9493C65.3707 26.5309 66.9593 24.4956 66.8072 22.3432C66.6515 20.1412 64.8966 18.3505 62.6995 18.1555C60.5519 17.964 58.4892 19.5278 58.0469 21.6837C57.4525 24.5665 56.4831 25.5629 54.6681 25.1693C52.8955 24.7863 52.2233 22.9602 52.8707 20.3079C53.9463 15.9074 57.9479 12.7693 62.427 12.8047C66.8532 12.8402 70.8441 16.0031 71.8383 20.2582C72.882 24.7225 70.83 29.2364 66.7612 31.2788C65.8024 31.7611 64.9992 32.1228 64.7799 33.417C64.557 34.7325 63.4177 35.2857 62.0803 35.151C60.7323 35.0162 59.9504 34.2148 59.7841 32.8709C59.7169 32.2965 59.777 31.6973 59.777 31.1086Z" fill="#21231E"/>
<path d="M62.4341 38.4877C63.8352 38.5231 65.0062 39.7004 65.0204 41.0975C65.0345 42.5584 63.7892 43.764 62.3032 43.7285C60.7712 43.693 59.6885 42.5123 59.7699 40.9627C59.8407 39.5124 60.987 38.4522 62.4341 38.4877Z" fill="#21231E"/>
</svg>
