<svg width="78" height="102" viewBox="0 0 78 102" fill="none" xmlns="http://www.w3.org/2000/svg">
<path d="M58.2898 89.2715C56.9064 92.321 55.5408 95.296 54.214 98.2851C53.5736 99.7283 52.82 101.044 51.0298 101.104C49.1404 101.168 48.3125 99.8453 47.5978 98.3419C45.0009 92.8812 42.365 87.4383 39.7398 81.9918C39.4603 81.4138 39.1489 80.8535 38.7456 80.077C36.0213 86.105 33.396 91.9096 30.7708 97.7142C30.555 98.1929 30.4701 98.8277 30.1056 99.1255C29.1964 99.8702 28.1845 100.934 27.1761 100.98C26.2668 101.019 24.9401 100.086 24.4412 99.2106C22.9092 96.537 21.6391 93.7074 20.3724 90.892C19.87 89.7715 19.2969 89.4594 18.1081 89.8353C15.6067 90.6225 13.0628 91.2785 10.5366 91.9876C8.87017 92.4592 7.18253 92.9911 5.81684 91.3494C4.51837 89.7892 5.26136 88.2751 5.95482 86.7468C8.75343 80.584 11.6299 74.4532 14.2905 68.2302C16.2329 63.6879 14.8141 58.3123 9.28765 57.4187C4.55019 56.6528 1.5181 53.3587 0.389459 48.6817C-0.778102 43.838 0.700801 39.7176 4.5396 36.5121C8.03521 33.5903 8.46686 31.7216 6.58107 27.5765C4.53961 23.0909 4.95356 18.7933 7.99275 14.9567C11.0921 11.042 15.2705 9.73002 20.1389 10.7548C24.3103 11.6306 26.2421 10.7477 28.1102 6.95713C30.325 2.46803 33.9374 0.0178233 38.9083 9.37932e-05C43.9678 -0.0176357 47.6155 2.47867 49.8551 7.04224C51.656 10.7087 53.6868 11.6519 57.6813 10.7832C62.5461 9.72293 66.7281 10.9888 69.8593 14.8822C72.987 18.7685 73.3832 23.1193 71.2993 27.6687C69.463 31.6756 69.9088 33.64 73.2983 36.4483C77.1477 39.6361 78.6762 43.7316 77.544 48.5859C76.4295 53.3587 73.2983 56.3301 68.5467 57.5393C64.1878 58.6492 63.1476 60.1136 62.8681 64.5283C62.7372 66.6097 63.2361 68.3401 64.1206 70.1343C66.8237 75.6163 69.417 81.1514 72.0883 86.6511C72.7853 88.0872 73.2558 89.4807 72.0918 90.8778C70.9419 92.2607 69.509 92.1188 67.9488 91.7004C64.7963 90.853 61.6121 90.1012 58.2898 89.2715ZM21.2216 63.8226C20.9739 66.3969 21.9221 68.5989 24.4801 69.8187C26.9426 70.996 29.1221 70.3364 31.2131 68.6344C36.0496 64.6949 41.8803 64.702 46.731 68.6557C48.8255 70.3612 51.012 70.9889 53.4674 69.8081C55.937 68.6202 56.7614 66.4891 56.726 63.7942C56.6376 57.5818 60.3101 53.0147 66.4203 51.6673C69.0279 51.0929 70.9066 49.7986 71.5222 47.1108C72.1449 44.4018 70.9526 42.4586 68.851 40.8133C63.9755 37.0015 62.6664 31.211 65.4119 25.6369C66.5972 23.2328 66.7635 20.9599 65.044 18.8075C63.3245 16.6552 61.0884 16.3289 58.4774 16.953C52.4166 18.3962 47.1131 15.8219 44.4985 10.2016C43.3663 7.76914 41.7353 6.23732 38.9473 6.24087C36.1593 6.24796 34.5459 7.79751 33.4173 10.23C30.8133 15.8361 25.5239 18.3182 19.4101 16.9956C18.4017 16.7757 17.3014 16.57 16.3143 16.7438C12.3764 17.4388 10.5578 21.4917 12.3693 25.3071C15.1786 31.2252 14.0605 36.9022 9.1992 40.7105C7.0516 42.3948 5.74963 44.3415 6.40771 47.1463C7.06225 49.9334 9.05769 51.146 11.7289 51.7169C17.5101 52.9474 21.2145 57.6776 21.2216 63.8226ZM27.1337 90.6508C29.7129 84.9313 32.0799 79.6834 34.6591 73.9639C28.9487 77.7296 23.8362 77.3998 18.7449 73.5454C17.0891 77.2261 15.5111 80.7436 13.7846 84.5803C16.1621 83.9314 18.0514 83.3888 19.9514 82.8995C22.1485 82.3322 23.2984 82.8286 24.3103 84.8178C25.2054 86.5731 26.0298 88.3602 27.1337 90.6508ZM58.9479 73.7227C53.5807 77.6658 48.3125 77.6374 42.8391 74.0809C45.4361 79.4742 48.033 84.8639 50.821 90.6473C51.7586 88.5658 52.498 86.9064 53.2552 85.2575C54.4546 82.6548 55.4948 82.1584 58.2438 82.8321C60.0553 83.2754 61.8739 83.708 64.0144 84.2221C62.2277 80.5202 60.6108 77.1658 58.9479 73.7227Z" fill="#21231E"/>
<path d="M38.9584 16.4139C51.7414 16.4139 62.1681 26.8211 62.1999 39.6076C62.2318 52.4686 51.7167 62.9644 38.8629 62.8935C26.0551 62.8261 15.6886 52.3977 15.7169 39.6112C15.7452 26.8247 26.1754 16.4139 38.9584 16.4139ZM55.9411 39.6537C55.9376 30.2323 48.267 22.5448 38.9053 22.5909C29.5896 22.637 22.0076 30.2358 21.9757 39.5615C21.9403 49.0113 29.5012 56.6705 38.9124 56.7201C48.2706 56.7697 55.9447 49.0822 55.9411 39.6537Z" fill="#21231E"/>
<path d="M36.503 40.0261C39.4679 37.8702 42.1887 35.6965 45.1253 33.8739C46.0275 33.3137 47.7894 33.2782 48.6669 33.8101C49.4558 34.2888 49.8202 35.8632 49.8875 36.9837C49.9264 37.622 49.1126 38.4801 48.4758 38.9588C45.0262 41.565 41.5306 44.1145 38.0102 46.6285C35.9864 48.0752 34.3978 47.8058 32.9472 45.8449C31.9353 44.4762 30.9447 43.0826 30.0107 41.6572C28.8997 39.9622 29.1827 38.1255 30.6263 37.1291C32.0733 36.1291 33.8424 36.5085 35.0913 38.1042C35.5336 38.6715 35.9404 39.2602 36.503 40.0261Z" fill="#21231E"/>
</svg>
