<svg width="64" height="65" viewBox="0 0 64 65" fill="none" xmlns="http://www.w3.org/2000/svg">
<rect width="64" height="64" rx="32" fill="url(#paint0_linear_1416_6321)"/>
<g opacity="0.25" filter="url(#filter0_f_1416_6321)">
<rect x="9.64209" y="32" width="43.5983" height="27.2489" rx="13.6245" fill="url(#paint1_radial_1416_6321)"/>
</g>
<rect x="8.31982" y="8.31982" width="47.2314" height="47.2314" rx="23.6157" fill="url(#paint2_radial_1416_6321)"/>
<g filter="url(#filter1_i_1416_6321)">
<path d="M31.9994 19.2C24.79 19.2 19.1997 24.483 19.1997 31.6156C19.1997 35.3467 20.7293 38.5722 23.2188 40.7994C23.4268 40.985 23.5548 41.2473 23.5612 41.5289L23.6316 43.8073C23.6367 43.9749 23.6829 44.1387 23.7662 44.2843C23.8495 44.4299 23.9672 44.5528 24.1091 44.6422C24.251 44.7317 24.4126 44.7849 24.5799 44.7972C24.7472 44.8095 24.9149 44.7805 25.0683 44.7129L27.6091 43.5929C27.8235 43.4969 28.0667 43.4809 28.2939 43.5417C29.4618 43.8617 30.7034 44.0345 31.9994 44.0345C39.2088 44.0345 44.799 38.7514 44.799 31.6188C44.799 24.4862 39.2088 19.2 31.9994 19.2Z" fill="white"/>
<path d="M24.3132 35.2475L28.0731 29.2829C28.2145 29.0583 28.401 28.8655 28.6207 28.7166C28.8404 28.5678 29.0886 28.4661 29.3496 28.418C29.6106 28.3699 29.8787 28.3764 30.1371 28.4371C30.3954 28.4979 30.6384 28.6115 30.8506 28.7709L33.8425 31.014C33.9761 31.114 34.1386 31.1678 34.3054 31.1672C34.4723 31.1666 34.6344 31.1117 34.7673 31.0108L38.8056 27.9453C39.3432 27.5357 40.0471 28.1821 39.6887 28.7549L35.9256 34.7163C35.7842 34.9409 35.5977 35.1337 35.378 35.2826C35.1583 35.4314 34.9101 35.5331 34.6491 35.5812C34.3881 35.6293 34.12 35.6228 33.8616 35.5621C33.6033 35.5013 33.3603 35.3877 33.1481 35.2283L30.1562 32.9852C30.0226 32.8852 29.8601 32.8314 29.6933 32.832C29.5264 32.8326 29.3643 32.8875 29.2314 32.9884L25.1931 36.0539C24.6556 36.4635 23.9516 35.8203 24.3132 35.2475Z" fill="url(#paint3_radial_1416_6321)"/>
</g>
<defs>
<filter id="filter0_f_1416_6321" x="4.18209" y="26.54" width="54.5181" height="38.169" filterUnits="userSpaceOnUse" color-interpolation-filters="sRGB">
<feFlood flood-opacity="0" result="BackgroundImageFix"/>
<feBlend mode="normal" in="SourceGraphic" in2="BackgroundImageFix" result="shape"/>
<feGaussianBlur stdDeviation="2.73" result="effect1_foregroundBlur_1416_6321"/>
</filter>
<filter id="filter1_i_1416_6321" x="17.2798" y="17.28" width="28.7998" height="29.3" filterUnits="userSpaceOnUse" color-interpolation-filters="sRGB">
<feFlood flood-opacity="0" result="BackgroundImageFix"/>
<feBlend mode="normal" in="SourceGraphic" in2="BackgroundImageFix" result="shape"/>
<feColorMatrix in="SourceAlpha" type="matrix" values="0 0 0 0 0 0 0 0 0 0 0 0 0 0 0 0 0 0 127 0" result="hardAlpha"/>
<feOffset dy="0.5"/>
<feGaussianBlur stdDeviation="1.25"/>
<feComposite in2="hardAlpha" operator="arithmetic" k2="-1" k3="1"/>
<feColorMatrix type="matrix" values="0 0 0 0 0 0 0 0 0 0 0 0 0 0 0 0 0 0 0.1 0"/>
<feBlend mode="normal" in2="shape" result="effect1_innerShadow_1416_6321"/>
</filter>
<linearGradient id="paint0_linear_1416_6321" x1="5.37991" y1="4.19214" x2="52.8908" y2="64" gradientUnits="userSpaceOnUse">
<stop stop-color="#FBFBFC"/>
<stop offset="1" stop-color="#DBDDE8"/>
</linearGradient>
<radialGradient id="paint1_radial_1416_6321" cx="0" cy="0" r="1" gradientUnits="userSpaceOnUse" gradientTransform="translate(16.9448 59.2482) scale(47.9581 29.973)">
<stop stop-color="#0099FF"/>
<stop offset="0.6" stop-color="#A033FF"/>
<stop offset="0.9" stop-color="#FF5280"/>
<stop offset="1" stop-color="#FF7061"/>
</radialGradient>
<radialGradient id="paint2_radial_1416_6321" cx="0" cy="0" r="1" gradientUnits="userSpaceOnUse" gradientTransform="translate(16.2311 55.55) scale(51.9546 51.9532)">
<stop stop-color="#0099FF"/>
<stop offset="0.6" stop-color="#A033FF"/>
<stop offset="0.9" stop-color="#FF5280"/>
<stop offset="1" stop-color="#FF7061"/>
</radialGradient>
<radialGradient id="paint3_radial_1416_6321" cx="0" cy="0" r="1" gradientUnits="userSpaceOnUse" gradientTransform="translate(23.4876 44.7993) scale(28.1592)">
<stop stop-color="#0099FF"/>
<stop offset="0.6" stop-color="#A033FF"/>
<stop offset="0.9" stop-color="#FF5280"/>
<stop offset="1" stop-color="#FF7061"/>
</radialGradient>
</defs>
</svg>
