<svg width="64" height="65" viewBox="0 0 64 65" fill="none" xmlns="http://www.w3.org/2000/svg">
<rect width="64" height="64" rx="32" fill="url(#paint0_linear_1416_6327)"/>
<g opacity="0.25" filter="url(#filter0_f_1416_6327)">
<rect x="9.64209" y="32" width="43.5983" height="27.2489" rx="13.6245" fill="url(#paint1_linear_1416_6327)"/>
</g>
<rect x="8.31982" y="8.31982" width="47.2314" height="47.2314" rx="23.6157" fill="url(#paint2_linear_1416_6327)"/>
<g clip-path="url(#clip0_1416_6327)" filter="url(#filter1_i_1416_6327)">
<path d="M25.6297 42.308C25.6297 41.8796 25.6297 41.4512 25.6297 41.0229C25.6328 41.0054 25.6321 40.9874 25.6279 40.9701C25.6237 40.9529 25.6159 40.9366 25.6051 40.9225C25.5943 40.9083 25.5806 40.8965 25.565 40.8877C25.5494 40.879 25.5321 40.8735 25.5143 40.8717C24.4427 40.57 23.4537 40.0327 22.6209 39.2996C22.0141 38.7527 21.5088 38.1045 21.1282 37.3845C20.5916 36.3445 20.2346 35.2228 20.0717 34.066C19.87 32.6149 19.8 31.1488 19.8624 29.6853C19.8761 29.003 19.9113 28.3284 19.9896 27.6461C20.1144 26.3495 20.4445 25.0805 20.9677 23.8856C21.6139 22.4165 22.7861 21.2365 24.2583 20.573C25.2612 20.1182 26.3163 19.7863 27.4002 19.5844C28.4632 19.3849 29.5394 19.2624 30.6203 19.218C31.5947 19.1839 32.5702 19.1981 33.5431 19.2607C34.9356 19.3189 36.3155 19.5474 37.6514 19.941C38.6419 20.2239 39.5842 20.6519 40.447 21.2107C41.2878 21.7825 41.9677 22.557 42.4229 23.4611C42.9581 24.5171 43.3219 25.6501 43.5009 26.8184C43.6172 27.512 43.6936 28.2116 43.7298 28.9138C43.7806 29.7841 43.7748 30.6583 43.7415 31.5248C43.7083 32.3913 43.6339 33.2325 43.5263 34.0815C43.3903 35.3558 42.995 36.5896 42.3643 37.7082C41.5433 39.1234 40.2281 40.192 38.6668 40.7127C37.5992 41.0832 36.4968 41.3468 35.3762 41.4997C34.5565 41.6121 33.7348 41.6935 32.9093 41.7265C32.2774 41.7556 31.6455 41.7478 31.0136 41.7381C30.6556 41.7381 30.2995 41.7032 29.9434 41.6722C29.9085 41.6657 29.8724 41.6696 29.8396 41.6834C29.8069 41.6972 29.779 41.7203 29.7595 41.7498C29.0396 42.6065 28.2923 43.44 27.5391 44.2696C27.4019 44.421 27.2431 44.5516 27.0676 44.6573C26.9525 44.7322 26.8212 44.7792 26.6843 44.7945C26.5474 44.8098 26.4089 44.793 26.2798 44.7454C26.1507 44.6979 26.0346 44.6209 25.9411 44.5208C25.8475 44.4206 25.7791 44.3001 25.7412 44.1689C25.6667 43.9357 25.6297 43.6923 25.6317 43.4478C25.6297 43.064 25.6297 42.686 25.6297 42.308ZM26.5003 43.9343L26.5922 43.849L28.2258 42.0521C28.8544 41.3608 29.4824 40.6688 30.1097 39.9761C30.1406 39.9339 30.1822 39.9005 30.2303 39.8794C30.2784 39.8583 30.3313 39.8502 30.3836 39.856C30.5969 39.8773 30.8101 39.885 31.0253 39.887C31.7687 39.887 32.5121 39.887 33.2555 39.8346C33.9305 39.7823 34.6034 39.7009 35.2725 39.5962C35.9929 39.472 36.706 39.3095 37.4088 39.1097C38.9739 38.6929 40.1849 37.8013 40.9459 36.3572C41.3952 35.4693 41.677 34.5076 41.7774 33.5194C41.8963 32.588 41.9674 31.6512 41.9906 30.7126C42.0253 29.5336 41.944 28.354 41.748 27.1906C41.6121 26.3477 41.3675 25.5255 41.0203 24.7443C40.5781 23.7752 39.9521 22.9727 38.9876 22.4571C37.5086 21.6662 35.9083 21.3134 34.2591 21.1331C33.7916 21.0827 33.324 21.0556 32.8545 21.0382C31.8931 20.9891 30.9297 20.9942 29.9689 21.0537C29.2779 21.1045 28.5906 21.1964 27.9108 21.3289C26.911 21.5095 25.9438 21.8361 25.0409 22.2981C24.5174 22.5602 24.0424 22.9082 23.6362 23.3274C22.9778 24.0565 22.4949 24.924 22.2237 25.8647C21.902 26.9603 21.7264 28.0929 21.7014 29.2336C21.6384 30.3744 21.6528 31.518 21.7444 32.6568C21.8014 33.3345 21.9159 34.0063 22.0868 34.665C22.341 35.6914 22.8341 36.6447 23.5266 37.4485C24.2744 38.2686 25.2408 38.8626 26.3144 39.162C26.4494 39.2027 26.5101 39.2492 26.5101 39.4004C26.4983 39.9587 26.5101 40.5169 26.5101 41.0752L26.5003 43.9343Z" fill="white"/>
<path d="M25.1312 26.621C25.1175 26.1965 25.3503 25.8883 25.632 25.6111C26.0036 25.2584 26.4129 24.9471 26.8528 24.6826C27.0534 24.56 27.2918 24.5133 27.5244 24.5511C27.7569 24.5888 27.9679 24.7085 28.1185 24.8881C28.6507 25.4423 29.1271 26.0468 29.5408 26.6927C29.7457 26.9833 29.9004 27.3055 29.9986 27.6464C30.0378 27.7794 30.0404 27.9204 30.006 28.0547C29.9716 28.189 29.9015 28.3117 29.8029 28.4101C29.5773 28.6296 29.3367 28.8336 29.083 29.0207C28.9552 29.1216 28.8601 29.2576 28.8097 29.4117C28.7593 29.5657 28.7557 29.7311 28.7993 29.8871C28.956 30.62 29.3111 31.2968 29.8264 31.8449C30.4526 32.6024 31.2595 33.1933 32.174 33.5643C32.3988 33.6787 32.6563 33.7136 32.9038 33.6631C33.0393 33.6265 33.1598 33.5485 33.2481 33.4402C33.385 33.2677 33.5337 33.101 33.6569 32.9168C33.8168 32.6871 34.0609 32.5284 34.3372 32.4744C34.6134 32.4205 34.9001 32.4756 35.1359 32.628C35.7991 33.0092 36.4252 33.4505 37.0062 33.9461C37.1431 34.0624 37.286 34.1748 37.4229 34.2931C37.5849 34.4155 37.702 34.5873 37.756 34.7819C37.8101 34.9766 37.7982 35.1835 37.7222 35.3708C37.6013 35.6859 37.4252 35.9772 37.2018 36.2315C36.9243 36.6137 36.5708 36.9356 36.163 37.1774C35.9681 37.2908 35.7491 37.3574 35.5235 37.3719C35.2979 37.3864 35.0721 37.3483 34.864 37.2607C33.2812 36.6293 31.8022 35.7676 30.4759 34.704C29.1787 33.6459 28.045 32.4051 27.111 31.0211C26.3251 29.8754 25.6999 28.6293 25.2525 27.3169C25.2049 27.1581 25.1657 26.997 25.1351 26.8342C25.1264 26.7634 25.1251 26.692 25.1312 26.621Z" fill="white"/>
<path d="M31.8854 24.5585C33.2097 24.5827 34.4834 25.0667 35.4844 25.9261C36.4855 26.7855 37.1504 27.9657 37.3632 29.261C37.4489 29.7319 37.4947 30.2091 37.5001 30.6876C37.5001 30.8001 37.4708 30.8815 37.3495 30.8931C37.2282 30.9047 37.1969 30.802 37.1969 30.6993C37.2151 29.7314 37.0145 28.7717 36.61 27.8906C36.2693 27.1665 35.7646 26.5301 35.1352 26.0308C34.5058 25.5316 33.7686 25.183 32.981 25.0121C32.5646 24.9165 32.1387 24.8671 31.7113 24.8647C31.6697 24.8655 31.6282 24.8602 31.5881 24.8492C31.5539 24.8397 31.5248 24.8174 31.5069 24.787C31.4891 24.7566 31.4838 24.7206 31.4922 24.6864C31.4925 24.6702 31.496 24.6542 31.5025 24.6394C31.5091 24.6245 31.5185 24.6111 31.5304 24.5999C31.5422 24.5887 31.5562 24.58 31.5714 24.5742C31.5867 24.5684 31.603 24.5657 31.6194 24.5662C31.7074 24.5546 31.7974 24.5585 31.8854 24.5585Z" fill="white"/>
<path d="M35.6618 29.8153C35.6552 29.2768 35.5214 28.7473 35.271 28.2693C35.0206 27.7913 34.6606 27.3781 34.22 27.0628C33.7057 26.7049 33.1078 26.4827 32.4827 26.4174C32.3771 26.4038 32.2714 26.398 32.1638 26.3863C32.0562 26.3747 31.9917 26.3301 32.0015 26.2216C32.0112 26.113 32.0797 26.0743 32.1971 26.082C33.9304 26.1867 35.4055 27.1578 35.8594 28.9663C35.9424 29.315 35.9838 29.6722 35.9826 30.0305C35.9826 30.0634 35.9826 30.0964 35.9826 30.1274C35.9826 30.2243 35.92 30.2883 35.8242 30.2864C35.8029 30.2856 35.782 30.2807 35.7628 30.2717C35.7435 30.2627 35.7263 30.2499 35.7122 30.2341C35.6981 30.2184 35.6874 30.1999 35.6808 30.1799C35.6741 30.1599 35.6716 30.1387 35.6735 30.1177C35.6579 30.0266 35.6618 29.9336 35.6618 29.8153Z" fill="white"/>
<path d="M32.6254 27.6557C33.5761 27.7197 34.2393 28.181 34.4213 29.1832C34.4433 29.3115 34.459 29.4409 34.4682 29.5708C34.4682 29.6755 34.4447 29.7647 34.3293 29.7647C34.2139 29.7647 34.1748 29.6871 34.1709 29.5708C34.1698 29.1867 34.0503 28.812 33.8285 28.497C33.5954 28.2116 33.2607 28.0257 32.8934 27.9775C32.8112 27.9623 32.7283 27.9519 32.6449 27.9465C32.508 27.9465 32.4317 27.8786 32.4493 27.774C32.4669 27.6693 32.5491 27.6499 32.6254 27.6557Z" fill="white"/>
</g>
<defs>
<filter id="filter0_f_1416_6327" x="4.18209" y="26.54" width="54.5181" height="38.169" filterUnits="userSpaceOnUse" color-interpolation-filters="sRGB">
<feFlood flood-opacity="0" result="BackgroundImageFix"/>
<feBlend mode="normal" in="SourceGraphic" in2="BackgroundImageFix" result="shape"/>
<feGaussianBlur stdDeviation="2.73" result="effect1_foregroundBlur_1416_6327"/>
</filter>
<filter id="filter1_i_1416_6327" x="19.2002" y="19.2" width="25.6001" height="26.1001" filterUnits="userSpaceOnUse" color-interpolation-filters="sRGB">
<feFlood flood-opacity="0" result="BackgroundImageFix"/>
<feBlend mode="normal" in="SourceGraphic" in2="BackgroundImageFix" result="shape"/>
<feColorMatrix in="SourceAlpha" type="matrix" values="0 0 0 0 0 0 0 0 0 0 0 0 0 0 0 0 0 0 127 0" result="hardAlpha"/>
<feOffset dy="0.5"/>
<feGaussianBlur stdDeviation="1.25"/>
<feComposite in2="hardAlpha" operator="arithmetic" k2="-1" k3="1"/>
<feColorMatrix type="matrix" values="0 0 0 0 0 0 0 0 0 0 0 0 0 0 0 0 0 0 0.1 0"/>
<feBlend mode="normal" in2="shape" result="effect1_innerShadow_1416_6327"/>
</filter>
<linearGradient id="paint0_linear_1416_6327" x1="5.37991" y1="4.19214" x2="52.8908" y2="64" gradientUnits="userSpaceOnUse">
<stop stop-color="#FBFBFC"/>
<stop offset="1" stop-color="#DBDDE8"/>
</linearGradient>
<linearGradient id="paint1_linear_1416_6327" x1="13.4821" y1="34.0308" x2="33.2189" y2="68.177" gradientUnits="userSpaceOnUse">
<stop stop-color="#754A91"/>
<stop offset="1" stop-color="#54008A"/>
</linearGradient>
<linearGradient id="paint2_linear_1416_6327" x1="12.4798" y1="11.8398" x2="51.8398" y2="54.3998" gradientUnits="userSpaceOnUse">
<stop stop-color="#754A91"/>
<stop offset="1" stop-color="#54008A"/>
</linearGradient>
<clipPath id="clip0_1416_6327">
<rect width="25.6" height="25.6" fill="white" transform="translate(19.2002 19.2)"/>
</clipPath>
</defs>
</svg>
