<svg width="106" height="34" viewBox="0 0 106 34" fill="none" xmlns="http://www.w3.org/2000/svg">
<path d="M9.38124 33.2054C12.1229 33.2054 14.3455 32.5625 14.3455 31.7695C14.3455 30.9764 12.1229 30.3335 9.38124 30.3335C6.63956 30.3335 4.41699 30.9764 4.41699 31.7695C4.41699 32.5625 6.63956 33.2054 9.38124 33.2054Z" fill="#727272"/>
<path d="M42.0045 16.5146C41.6176 15.7129 41.1337 15.1843 40.9833 15.0258C40.8297 14.865 40.2673 14.2926 39.342 13.8248C38.129 13.212 36.9792 13.1288 36.3188 13.1344H31.8896L31.9965 25.5712H36.4256C37.3127 25.5712 38.0549 25.4059 38.8679 25.0821C39.7213 24.7402 40.4297 24.2691 40.9942 23.6619C41.5577 23.0524 41.9718 22.3766 42.2388 21.6322C42.5015 20.8877 42.6355 20.1253 42.6355 19.3494C42.6355 18.5736 42.5015 17.8112 42.2345 17.0622C42.1669 16.8756 42.0906 16.6923 42.0045 16.5146ZM38.4963 19.616C38.3513 19.9263 38.517 20.7843 38.3928 21.2982C38.2522 21.8773 37.9884 22.5407 37.7072 22.498C37.4293 22.4553 37.7585 20.5954 36.7449 20.5999C35.7564 20.6044 36.0605 22.4564 35.7826 22.498C35.5025 22.5407 35.2377 21.8773 35.0971 21.2982C34.9728 20.7843 35.1385 19.9263 34.9935 19.616C34.1151 17.7381 34.7647 16.7553 35.2638 16.6799C35.7608 16.6057 36.2501 16.9397 36.7449 16.9475C37.2986 16.9565 37.729 16.6057 38.226 16.6799C38.7241 16.7553 39.3747 17.7381 38.4963 19.616Z" fill="#0D3082"/>
<path d="M54.707 14.4276C54.1631 13.8935 53.5212 13.4741 52.779 13.1704C52.0412 12.8668 51.2423 12.7128 50.3803 12.706C49.5182 12.7004 48.7139 12.8432 47.9717 13.1367C47.2295 13.4302 46.5854 13.8361 46.0351 14.359C45.488 14.8819 45.0498 15.4869 44.7185 16.1717C44.2782 17.1028 44.0537 18.1193 44.0461 19.2281C44.0385 20.33 44.2499 21.3421 44.6782 22.2687C44.9997 22.958 45.4313 23.5719 45.9708 24.1027C46.5146 24.6335 47.2601 25.0495 47.9979 25.352C48.7357 25.6556 49.5378 25.8097 50.3999 25.8164C51.3502 25.8232 52.2352 25.6399 53.0548 25.271C53.8776 24.9056 54.465 24.3906 55.0372 23.7294C55.2072 23.5303 55.3696 23.3212 55.5178 23.0997C55.5287 23.085 55.5396 23.0704 55.5461 23.0524L52.8706 21.3084C52.7322 21.5332 52.5763 21.7323 52.4074 21.9122C52.2624 22.0674 52.1001 22.2079 51.9279 22.3305C51.4701 22.6577 50.9317 22.8185 50.3149 22.814C49.5858 22.8084 48.9766 22.5869 48.4959 22.1427C48.011 21.6997 47.6709 21.1408 47.4791 20.4661L56.6207 20.5302L56.6218 20.3379L56.6393 19.3158C56.6469 18.207 56.4355 17.1871 56.0072 16.2493C55.6856 15.569 55.2541 14.9629 54.707 14.4276ZM47.6175 17.5919C47.8562 17.0263 48.2137 16.5709 48.6823 16.2178C49.1542 15.8647 49.7133 15.6904 50.3618 15.6949C51.0178 15.6994 51.5769 15.8816 52.0379 16.2335C52.4989 16.59 52.8466 17.0533 53.0776 17.6302L47.6175 17.5919Z" fill="#0D3082"/>
<path d="M65.9635 13.4515C65.1712 13.0321 64.259 12.8184 63.228 12.8184C62.5196 12.8184 61.6401 13.104 61.1878 13.8282L61.1497 13.0726H58.0469L58.1537 25.5476H61.2565L61.1497 18.1013C61.1497 17.4389 61.3284 16.8857 61.6826 16.4404C62.0368 15.9951 62.5588 15.7747 63.2498 15.7747C63.944 15.7747 64.4628 15.9951 64.8028 16.4404C65.1461 16.8857 65.3183 17.4389 65.3183 18.1013L65.4251 25.5476H68.553L68.4462 17.5559C68.4462 16.6878 68.2282 15.8916 67.801 15.172C67.3694 14.4456 66.7558 13.8743 65.9635 13.4515Z" fill="#0D3082"/>
<path d="M86.9017 13.3936C86.1236 13.0102 85.219 12.8179 84.1945 12.8179C83.7597 12.8179 83.3041 12.8685 82.8235 12.9663C81.6138 13.2126 80.7092 13.6826 80.1054 14.3877C79.4984 15.0893 79.1976 15.9799 79.1976 17.0504C79.2183 17.4485 79.2357 17.8499 79.2543 18.2514C80.3027 17.8713 81.3511 17.4957 82.3963 17.119C82.3963 17.0864 82.393 17.0504 82.3963 17.0145C82.3963 16.9706 82.3996 16.9312 82.4028 16.8953C82.4137 16.7794 82.4344 16.685 82.4552 16.6243C82.4835 16.5377 82.5467 16.3488 82.7113 16.1868C82.757 16.1396 82.8061 16.1002 82.8617 16.0643C83.1668 15.872 83.6158 15.7753 84.2044 15.7753C84.734 15.7753 85.183 15.8843 85.547 16.1014C85.9121 16.3184 86.1323 16.6265 86.2064 17.0279L82.9554 17.7701C81.7315 18.0445 80.7321 18.5156 79.9605 19.1813C79.1856 19.847 78.7998 20.6938 78.7998 21.7283C78.7998 22.5132 78.996 23.2149 79.3883 23.8333C79.785 24.4518 80.4455 24.9365 81.1604 25.2873C81.8754 25.6348 82.6895 25.8124 83.6006 25.8124C84.0877 25.8124 84.5651 25.7405 85.0283 25.5988C85.4915 25.4616 85.8195 25.2626 86.226 25.0129L86.3328 25.5482H89.4498L89.343 17.3136C89.343 16.4488 89.1326 15.6752 88.7087 14.9949C88.2869 14.3123 87.6831 13.7816 86.9017 13.3936ZM86.2282 19.9347C86.2282 20.4374 86.1236 20.9119 85.9089 21.3572C85.6953 21.8025 85.3792 22.1635 84.9694 22.439C84.5553 22.7178 84.0649 22.855 83.497 22.855C83.048 22.855 82.6906 22.7606 82.4203 22.566C82.15 22.3704 82.017 22.096 82.017 21.7373C82.017 21.4191 82.1849 21.1436 82.5249 20.9119C82.8649 20.6803 83.2682 20.5105 83.7423 20.4059L86.2282 19.8347V19.9347V19.9347Z" fill="#0D3082"/>
<path d="M91.2412 9.38763L91.348 25.5465H94.3473V10.9878L91.2412 9.38763Z" fill="#0D3082"/>
<path d="M69.5684 16.3812H71.893L71.9987 25.8336H75.144L75.0372 16.3812H77.4992V13.1359H69.5684V16.3812Z" fill="#0D3082"/>
<path d="M38.2237 16.6801C37.7268 16.6059 37.2963 16.9568 36.7426 16.9478C36.2479 16.9399 35.7574 16.6059 35.2615 16.6801C34.7635 16.7555 34.1128 17.7383 34.9913 19.6162C35.1362 19.9265 34.9706 20.7845 35.0948 21.2984C35.2354 21.8775 35.4991 22.541 35.7803 22.4982C36.0571 22.4555 35.7542 20.6046 36.7426 20.6001C37.7562 20.5956 37.4271 22.4566 37.705 22.4982C37.9862 22.541 38.2499 21.8775 38.3905 21.2984C38.5158 20.7845 38.3491 19.9265 38.494 19.6162C39.3724 17.7383 38.7218 16.7555 38.2237 16.6801Z" fill="white"/>
<path d="M33.8482 9.43235C33.3915 9.43235 32.9589 9.17147 32.5502 8.62384L31.8232 9.56729C31.9617 9.80343 32.7049 10.6457 33.8471 10.6457C35.071 10.6457 35.872 9.71909 35.872 8.67444C35.872 7.32731 34.9576 6.99896 33.9779 6.61101C33.5703 6.45133 33.4558 6.28266 33.4558 6.05551C33.4558 5.86997 33.6596 5.65969 33.9779 5.65969C34.3855 5.65969 34.7288 5.92058 34.8922 6.09712L35.5941 5.10307C34.8672 4.41264 34.174 4.44637 33.9942 4.44637C32.9578 4.44637 32.1491 5.08621 32.1491 6.08025C32.1491 7.05743 32.7365 7.51172 33.9125 7.97501C34.3615 8.15156 34.5653 8.35397 34.5653 8.75766C34.5664 9.07026 34.3135 9.43235 33.8482 9.43235Z" fill="#FC5122"/>
<path d="M38.0057 10.6461C38.4951 10.6461 38.9201 10.3763 39.1163 10.04V10.5112H40.4219V6.33374H39.1163V8.48938C39.1163 9.17981 38.7326 9.43282 38.4635 9.43282C38.1779 9.43282 37.8106 9.29788 37.8106 8.62432V6.33374H36.5039V8.75926C36.5039 10.0221 37.1807 10.6461 38.0057 10.6461Z" fill="#FC5122"/>
<path d="M45.6843 8.42178C45.6843 7.19272 44.8756 6.19867 43.7988 6.19867C43.3008 6.19867 42.8932 6.44268 42.6806 6.75417V6.33361H41.375V12.6667H42.6806V10.0894C42.8932 10.4009 43.3008 10.6449 43.7988 10.6449C44.8767 10.646 45.6843 9.65197 45.6843 8.42178ZM43.5296 9.43269C43.0566 9.43269 42.6806 8.9784 42.6806 8.42178C42.6806 7.86628 43.0566 7.41087 43.5296 7.41087C44.0026 7.41087 44.3786 7.86516 44.3786 8.42178C44.3786 8.9784 44.0037 9.43269 43.5296 9.43269Z" fill="#FC5122"/>
<path d="M48.3785 10.6465C49.0313 10.6465 49.6111 10.3351 49.9457 9.94711L49.1621 9.15547C48.9583 9.32414 48.7218 9.43322 48.4275 9.43322C47.9218 9.43322 47.6276 9.19707 47.5131 8.86085H50.2236C50.2726 8.70905 50.289 8.44817 50.289 8.27162C50.2803 7.00882 49.4324 6.20032 48.2804 6.20032C46.9911 6.20032 46.1748 7.19436 46.1748 8.42343C46.1748 9.65249 47.0565 10.6465 48.3785 10.6465ZM48.3142 7.41251C48.7381 7.41251 48.9594 7.66552 49.0248 7.98488H47.4979C47.6036 7.64753 47.8488 7.41251 48.3142 7.41251Z" fill="#FC5122"/>
<path d="M52.1229 8.88507C52.1229 8.22837 52.4826 7.81568 52.8498 7.68074C53.0863 7.59641 53.3969 7.58853 53.6912 7.68074V6.19867C52.8912 6.24927 52.3932 6.50228 52.124 7.08252V6.33361H50.8184V10.5111H52.124V8.88507H52.1229Z" fill="#FC5122"/>
<path d="M98.6271 25.4355C97.8817 25.0869 97.2539 24.6147 96.746 24.0176C96.2382 23.4205 95.8611 22.7503 95.617 22.0081L95.5723 21.8698L98.3437 20.4349L98.4331 20.6643L98.6108 21.1119C98.8407 21.6708 99.1633 22.1183 99.5785 22.4556C99.9938 22.793 100.506 22.9605 101.114 22.9605C101.537 22.9605 101.893 22.874 102.182 22.7019C102.472 22.5299 102.616 22.287 102.616 21.9732C102.616 21.7517 102.49 21.5594 102.238 21.3986C102.134 21.33 102.002 21.2682 101.842 21.2153C101.683 21.1614 101.525 21.1119 101.369 21.0658L99.6221 20.5609C98.5683 20.255 97.7465 19.7839 97.1569 19.1485C96.5673 18.5132 96.272 17.7283 96.272 16.795C96.272 16.0371 96.4616 15.3613 96.8398 14.7687C97.2179 14.176 97.7487 13.7128 98.4309 13.3788C99.1132 13.0459 99.9 12.8795 100.79 12.8795C101.784 12.8795 102.68 13.0999 103.478 13.5396C104.276 13.9804 104.908 14.5831 105.375 15.3478C105.561 15.6458 105.735 16.0213 105.899 16.4734L105.999 16.7725L103.172 18.1387L103.105 17.8981L103.028 17.6575C102.85 17.1143 102.573 16.6735 102.199 16.3373C101.824 16.0011 101.355 15.8324 100.79 15.8324C100.42 15.8324 100.114 15.9066 99.8728 16.0562C99.6319 16.2057 99.511 16.4138 99.511 16.6814C99.511 16.9187 99.6036 17.1065 99.7889 17.2436C99.9742 17.382 100.256 17.5191 100.635 17.6575C100.835 17.7261 101.142 17.8216 101.559 17.9442C102.026 18.0893 102.33 18.1848 102.471 18.2309C104.726 18.9664 105.854 20.2292 105.854 22.0205C105.854 22.7941 105.648 23.4789 105.236 24.076C104.824 24.6731 104.258 25.1364 103.539 25.4659C102.82 25.7954 102.011 25.9595 101.113 25.9595C100.202 25.9584 99.3726 25.7841 98.6271 25.4355Z" fill="#FC5122"/>
<path d="M26.3406 3.51336C25.5287 1.93346 24.1283 0.887684 22.4979 0.642546C20.8576 0.397408 19.1313 0.940535 17.4639 1.46679C16.216 1.86036 14.9343 2.26743 13.7551 2.30791C12.808 1.65233 11.9198 1.11595 10.5978 0.723509C9.74665 0.470499 8.34184 0.0386965 6.60463 0.207369C5.85699 0.279337 4.6865 0.39291 3.44626 1.17443C1.9608 2.10888 1.27637 3.43802 0.966855 4.05761C0.79139 4.40733 0.0481153 5.95799 0.0906193 8.94688C0.113506 10.5268 1.12706 16.2954 2.62015 19.5227C3.12584 18.8806 2.87191 15.226 3.37759 14.5839C3.34817 13.9902 3.31765 13.3976 3.28823 12.8039C2.96236 12.1067 2.74221 11.4511 2.59182 10.872C2.52969 10.6336 2.43052 10.429 2.36295 9.7655C2.30519 9.19314 2.08504 7.11959 2.93621 5.36089C3.18578 4.84475 3.65551 3.87432 4.6865 3.15352C6.59373 1.82101 8.8835 2.42373 9.71941 2.64301C10.8005 2.9275 11.5896 3.39979 11.9972 3.64268C13.1263 4.31962 14.0341 5.14274 14.8133 5.84892C14.846 5.87815 14.8776 5.90739 14.9103 5.93775C15.5762 6.53935 16.1582 7.05662 16.7467 7.33099L17.5707 5.44748L17.5816 5.42161C17.2415 5.26194 16.7129 4.7829 16.1528 4.27689C16.083 4.21279 16.0111 4.14869 15.9381 4.08235C16.653 3.90918 17.3614 3.68878 18.0567 3.4695C19.5771 2.99047 21.0146 2.53731 22.2047 2.71497C22.669 2.78582 23.8275 3.09955 24.5468 4.49504C25.1244 5.6184 25.7042 8.11926 23.8994 12.9298L23.8504 12.9129C23.8416 12.9411 22.8989 15.8051 20.9394 16.2594L21.3851 18.3049C21.7709 18.2149 22.1273 18.0766 22.4575 17.9023C22.4619 18.0192 22.4684 18.1351 22.4739 18.2509C22.5153 19.0605 22.5567 19.8971 22.2624 21.1093L22.1404 21.6142C21.808 22.9951 21.4309 24.5604 20.9939 25.822C20.4315 27.4481 20.0337 27.7888 19.9443 27.8472C19.0899 27.8293 18.8371 27.1782 18.6147 24.4884C18.4284 22.2406 18.1515 18.9357 15.1109 18.4454L13.8052 20.5606C13.9589 20.5088 14.118 20.4774 14.287 20.4762H14.3044C16.0601 20.4762 16.35 21.7559 16.592 24.6661C16.7762 26.8926 17.0301 29.9422 19.9825 29.9422H19.9901C22.0761 29.9388 22.9763 26.8408 24.1119 22.118L24.2329 21.6165C24.6013 20.1018 24.5468 19.0144 24.5032 18.1418C24.4628 17.3535 24.4378 16.834 24.7222 16.2246C27.934 9.36069 27.3749 5.52394 26.3406 3.51336Z" fill="#0D3082"/>
<path d="M8.90055 32.0619C6.8124 29.5824 0.00195312 21.6537 0.00195312 16.987C0.00195312 11.4962 4.20876 7.02972 9.38008 7.02972C14.5514 7.02972 18.7582 11.4962 18.7582 16.987C18.7582 21.6537 11.9478 29.5813 9.85961 32.0619C9.73864 32.2058 9.56317 32.2879 9.37899 32.2879C9.1959 32.2879 9.02152 32.2058 8.90055 32.0619Z" fill="white"/>
<path d="M17.3578 17.0616C17.3578 12.2972 13.7068 8.42218 9.21991 8.42218C4.73301 8.42218 1.08203 12.2983 1.08203 17.0616C1.08203 21.1109 6.99226 28.4459 8.8025 30.5982C8.90712 30.723 9.0597 30.795 9.21882 30.795C9.37794 30.795 9.53051 30.723 9.63514 30.5982C11.4476 28.447 17.3578 21.1109 17.3578 17.0616ZM5.50353 16.388C5.50353 14.1031 7.30505 12.2432 9.5207 12.2432C11.7364 12.2432 13.5379 14.102 13.5379 16.388C13.5379 18.6741 11.7364 20.5329 9.5207 20.5329C7.30505 20.5329 5.50353 18.673 5.50353 16.388Z" fill="#FC5122"/>
<path d="M9.51953 18.9663C10.8997 18.9663 12.0185 17.8119 12.0185 16.3879C12.0185 14.9639 10.8997 13.8094 9.51953 13.8094C8.13936 13.8094 7.02051 14.9639 7.02051 16.3879C7.02051 17.8119 8.13936 18.9663 9.51953 18.9663Z" fill="#014888"/>
<path d="M9.51953 18.9663C10.8997 18.9663 12.0185 17.8119 12.0185 16.3879C12.0185 14.9639 10.8997 13.8094 9.51953 13.8094C8.13936 13.8094 7.02051 14.9639 7.02051 16.3879C7.02051 17.8119 8.13936 18.9663 9.51953 18.9663Z" fill="#FC5122"/>
</svg>
