<svg width="641" height="202" viewBox="0 0 641 202" fill="none" xmlns="http://www.w3.org/2000/svg">
<path d="M57.3299 202C73.8871 202 87.3093 198.069 87.3093 193.22C87.3093 188.371 73.8871 184.439 57.3299 184.439C40.7728 184.439 27.3506 188.371 27.3506 193.22C27.3506 198.069 40.7728 202 57.3299 202Z" fill="#CCCCCC"/>
<path d="M254.333 99.9449C251.997 95.0425 249.074 91.8109 248.166 90.8414C247.238 89.8582 243.842 86.3584 238.254 83.4981C230.929 79.7509 223.985 79.2421 219.997 79.2765H193.249L193.894 155.322H220.642C225.999 155.322 230.481 154.311 235.391 152.331C240.545 150.241 244.823 147.36 248.232 143.647C251.635 139.92 254.136 135.788 255.748 131.236C257.334 126.685 258.144 122.023 258.144 117.279C258.144 112.534 257.334 107.873 255.722 103.293C255.314 102.152 254.853 101.031 254.333 99.9449ZM233.147 118.908C232.272 120.806 233.272 126.052 232.522 129.194C231.673 132.735 230.08 136.792 228.382 136.531C226.703 136.269 228.691 124.897 222.57 124.924C216.601 124.952 218.437 136.276 216.759 136.531C215.067 136.792 213.468 132.735 212.619 129.194C211.868 126.052 212.869 120.806 211.994 118.908C206.689 107.426 210.611 101.416 213.626 100.956C216.627 100.502 219.582 102.544 222.57 102.592C225.914 102.647 228.513 100.502 231.515 100.956C234.522 101.416 238.452 107.426 233.147 118.908Z" fill="#0D3082"/>
<path d="M331.047 87.1835C327.763 83.9175 323.886 81.3528 319.404 79.4964C314.948 77.64 310.124 76.698 304.918 76.6567C299.712 76.6224 294.854 77.4956 290.372 79.2901C285.89 81.0847 282 83.5668 278.677 86.764C275.373 89.9612 272.727 93.6604 270.726 97.8477C268.067 103.541 266.711 109.756 266.665 116.536C266.619 123.274 267.896 129.462 270.483 135.128C272.424 139.343 275.031 143.097 278.288 146.342C281.573 149.587 286.074 152.131 290.53 153.981C294.986 155.837 299.83 156.779 305.036 156.821C310.775 156.862 316.12 155.741 321.069 153.486C326.038 151.251 329.586 148.102 333.041 144.059C334.068 142.842 335.048 141.563 335.944 140.209C336.009 140.12 336.075 140.03 336.115 139.92L319.957 129.256C319.121 130.631 318.18 131.848 317.16 132.948C316.284 133.897 315.304 134.757 314.264 135.506C311.499 137.507 308.248 138.49 304.523 138.463C300.12 138.428 296.441 137.074 293.538 134.358C290.609 131.649 288.556 128.231 287.397 124.106L342.604 124.498L342.611 123.322L342.716 117.072C342.762 110.293 341.485 104.056 338.899 98.3221C336.957 94.1623 334.351 90.4563 331.047 87.1835ZM288.233 106.532C289.675 103.073 291.833 100.289 294.664 98.1296C297.513 95.9706 300.89 94.9049 304.806 94.9324C308.768 94.9599 312.144 96.0738 314.928 98.2258C317.712 100.405 319.812 103.238 321.207 106.765L288.233 106.532Z" fill="#0D3082"/>
<path d="M399.031 81.215C394.246 78.6504 388.737 77.344 382.511 77.344C378.233 77.344 372.921 79.0904 370.19 83.5184L369.96 78.8979H351.222L351.867 155.177H370.605L369.96 109.646C369.96 105.596 371.039 102.213 373.178 99.4907C375.317 96.7679 378.47 95.4202 382.642 95.4202C386.835 95.4202 389.968 96.7679 392.021 99.4907C394.094 102.213 395.134 105.596 395.134 109.646L395.779 155.177H414.669L414.024 106.311C414.024 101.003 412.707 96.1353 410.127 91.7349C407.521 87.2931 403.815 83.8003 399.031 81.215Z" fill="#0D3082"/>
<path d="M525.475 80.8612C520.775 78.5166 515.313 77.3408 509.126 77.3408C506.5 77.3408 503.749 77.6502 500.846 78.2484C493.541 79.7542 488.078 82.6282 484.432 86.9393C480.766 91.2298 478.949 96.6753 478.949 103.221C479.074 105.655 479.18 108.11 479.291 110.564C485.623 108.24 491.954 105.944 498.266 103.64C498.266 103.441 498.247 103.221 498.266 103.001C498.266 102.733 498.286 102.492 498.306 102.272C498.372 101.564 498.497 100.986 498.622 100.615C498.793 100.086 499.175 98.9306 500.168 97.9405C500.445 97.6517 500.741 97.411 501.077 97.191C502.919 96.0153 505.631 95.4239 509.185 95.4239C512.384 95.4239 515.096 96.0909 517.294 97.4179C519.499 98.7449 520.828 100.629 521.276 103.083L501.643 107.621C494.251 109.299 488.216 112.18 483.556 116.25C478.877 120.321 476.547 125.498 476.547 131.824C476.547 136.623 477.732 140.914 480.101 144.695C482.497 148.477 486.485 151.44 490.803 153.586C495.12 155.71 500.037 156.797 505.539 156.797C508.481 156.797 511.364 156.357 514.161 155.49C516.958 154.651 518.939 153.434 521.394 151.908L522.039 155.181H540.863L540.218 104.83C540.218 99.5425 538.947 94.812 536.387 90.6522C533.84 86.4787 530.194 83.2333 525.475 80.8612ZM521.407 120.857C521.407 123.931 520.775 126.832 519.479 129.555C518.189 132.278 516.28 134.485 513.805 136.169C511.304 137.875 508.343 138.713 504.914 138.713C502.202 138.713 500.043 138.136 498.411 136.946C496.779 135.75 495.976 134.072 495.976 131.879C495.976 129.933 496.989 128.249 499.043 126.832C501.096 125.416 503.532 124.378 506.395 123.738L521.407 120.245V120.857V120.857Z" fill="#0D3082"/>
<path d="M551.678 56.3662L552.323 155.17H570.435V66.1504L551.678 56.3662Z" fill="#0D3082"/>
<path d="M420.8 99.1282H434.838L435.477 156.925H454.471L453.826 99.1282H468.694V79.2849H420.8V99.1282Z" fill="#0D3082"/>
<path d="M231.509 100.956C228.508 100.502 225.908 102.647 222.565 102.592C219.577 102.544 216.615 100.502 213.62 100.956C210.612 101.417 206.683 107.426 211.988 118.908C212.863 120.806 211.863 126.052 212.613 129.194C213.462 132.735 215.055 136.792 216.753 136.531C218.425 136.27 216.595 124.952 222.565 124.925C228.685 124.897 226.698 136.276 228.376 136.531C230.074 136.792 231.667 132.735 232.516 129.194C233.273 126.052 232.266 120.806 233.141 118.908C238.446 107.426 234.517 101.417 231.509 100.956Z" fill="white"/>
<path d="M205.083 56.6399C202.325 56.6399 199.713 55.0448 197.244 51.6963L192.854 57.465C193.69 58.9089 198.179 64.0588 205.077 64.0588C212.468 64.0588 217.305 58.3932 217.305 52.0057C217.305 43.7686 211.783 41.7609 205.866 39.3888C203.405 38.4124 202.714 37.381 202.714 35.9922C202.714 34.8577 203.945 33.5719 205.866 33.5719C208.328 33.5719 210.401 35.1671 211.388 36.2466L215.627 30.1684C211.237 25.9467 207.051 26.153 205.965 26.153C199.706 26.153 194.822 30.0653 194.822 36.1434C194.822 42.1184 198.37 44.8962 205.471 47.729C208.183 48.8085 209.414 50.0461 209.414 52.5145C209.42 54.4259 207.894 56.6399 205.083 56.6399Z" fill="#FC5122"/>
<path d="M230.197 64.0607C233.153 64.0607 235.719 62.4106 236.904 60.3547V63.2356H244.789V37.6924H236.904V50.8731C236.904 55.0948 234.587 56.6418 232.962 56.6418C231.237 56.6418 229.019 55.8168 229.019 51.6982V37.6924H221.128V52.5233C221.128 60.2447 225.215 64.0607 230.197 64.0607Z" fill="#FC5122"/>
<path d="M276.566 50.4615C276.566 42.9463 271.682 36.8682 265.18 36.8682C262.172 36.8682 259.71 38.3602 258.427 40.2648V37.6933H250.542V76.4173H258.427V60.6581C259.71 62.5627 262.172 64.0547 265.18 64.0547C271.689 64.0616 276.566 57.9835 276.566 50.4615ZM263.554 56.6427C260.697 56.6427 258.427 53.8649 258.427 50.4615C258.427 47.0648 260.697 44.2802 263.554 44.2802C266.41 44.2802 268.681 47.058 268.681 50.4615C268.681 53.8649 266.417 56.6427 263.554 56.6427Z" fill="#FC5122"/>
<path d="M292.841 64.0628C296.784 64.0628 300.285 62.1582 302.306 59.7861L297.573 54.9456C296.343 55.977 294.914 56.6439 293.137 56.6439C290.084 56.6439 288.307 55.2 287.615 53.1442H303.984C304.28 52.2159 304.379 50.6208 304.379 49.5413C304.326 41.8199 299.206 36.8762 292.249 36.8762C284.463 36.8762 279.533 42.9544 279.533 50.4695C279.533 57.9847 284.858 64.0628 292.841 64.0628ZM292.453 44.2882C295.013 44.2882 296.349 45.8353 296.744 47.788H287.523C288.162 45.7253 289.643 44.2882 292.453 44.2882Z" fill="#FC5122"/>
<path d="M315.443 53.2942C315.443 49.2788 317.615 46.7554 319.833 45.9304C321.261 45.4147 323.137 45.3665 324.914 45.9304V36.8682C320.083 37.1776 317.075 38.7246 315.449 42.2725V37.6933H307.564V63.2365H315.449V53.2942H315.443Z" fill="#FC5122"/>
<path d="M596.309 154.491C591.807 152.36 588.016 149.472 584.949 145.821C581.882 142.17 579.605 138.072 578.13 133.534L577.86 132.688L594.597 123.915L595.137 125.317L596.21 128.054C597.599 131.471 599.547 134.208 602.054 136.27C604.562 138.333 607.655 139.358 611.328 139.358C613.882 139.358 616.034 138.828 617.778 137.776C619.529 136.724 620.397 135.239 620.397 133.321C620.397 131.966 619.634 130.79 618.114 129.807C617.488 129.388 616.692 129.01 615.724 128.686C614.764 128.356 613.809 128.054 612.868 127.772L602.318 124.685C595.953 122.815 590.991 119.934 587.43 116.049C583.869 112.164 582.086 107.365 582.086 101.658C582.086 97.0238 583.231 92.8915 585.515 89.268C587.799 85.6445 591.004 82.8117 595.124 80.7696C599.244 78.7344 603.996 77.7168 609.373 77.7168C615.376 77.7168 620.786 79.0644 625.604 81.7528C630.421 84.4481 634.239 88.1335 637.062 92.809C638.181 94.6311 639.234 96.9275 640.221 99.6916L640.827 101.521L623.754 109.875L623.353 108.403L622.885 106.932C621.813 103.611 620.141 100.915 617.877 98.8596C615.613 96.8038 612.782 95.7724 609.373 95.7724C607.135 95.7724 605.286 96.2262 603.831 97.1407C602.377 98.0552 601.646 99.3272 601.646 100.964C601.646 102.414 602.206 103.563 603.325 104.401C604.444 105.247 606.148 106.086 608.432 106.932C609.643 107.351 611.499 107.936 614.013 108.685C616.837 109.572 618.673 110.156 619.522 110.438C633.14 114.935 639.951 122.656 639.951 133.609C639.951 138.34 638.708 142.527 636.22 146.178C633.732 149.829 630.316 152.662 625.972 154.677C621.628 156.691 616.745 157.695 611.321 157.695C605.819 157.688 600.811 156.622 596.309 154.491Z" fill="#FC5122"/>
<path d="M159.749 20.4473C154.845 10.7869 146.388 4.39251 136.542 2.89361C126.636 1.3947 116.211 4.71567 106.141 7.93351C98.6053 10.34 90.8653 12.829 83.744 13.0765C78.0245 9.068 72.6605 5.78828 64.677 3.38866C59.5367 1.84162 51.053 -0.79865 40.5619 0.232707C36.0469 0.672752 28.9782 1.3672 21.4883 6.14582C12.5176 11.8595 8.38429 19.9866 6.5151 23.7751C5.45546 25.9135 0.966788 35.3951 1.22347 53.6707C1.36169 63.3311 7.48261 98.6035 16.4994 118.337C19.5533 114.411 18.0198 92.0647 21.0737 88.1387C20.896 84.5083 20.7117 80.8848 20.534 77.2544C18.5661 72.9915 17.2366 68.983 16.3283 65.442C15.9532 63.9843 15.3542 62.7329 14.9462 58.6763C14.5974 55.1765 13.2679 42.4977 18.4081 31.7441C19.9153 28.5881 22.752 22.6544 28.9782 18.2471C40.4961 10.0994 54.3241 13.7847 59.3722 15.1255C65.9012 16.8651 70.6663 19.7529 73.1278 21.238C79.9464 25.3772 85.4289 30.4102 90.1348 34.7282C90.3322 34.9069 90.5231 35.0857 90.7205 35.2713C94.7419 38.9498 98.2565 42.1127 101.811 43.7903L106.786 32.2735L106.852 32.1154C104.799 31.139 101.607 28.21 98.2236 25.1159C97.8024 24.724 97.368 24.3321 96.927 23.9264C101.245 22.8676 105.523 21.5199 109.722 20.1792C118.903 17.2501 127.584 14.4792 134.771 15.5655C137.575 15.9987 144.571 17.917 148.915 26.4498C152.404 33.3186 155.905 48.6102 145.006 78.0245L144.71 77.9214C144.657 78.0933 138.964 95.6057 127.13 98.3835L129.822 110.89C132.152 110.34 134.304 109.495 136.298 108.429C136.325 109.144 136.364 109.852 136.397 110.56C136.647 115.511 136.897 120.626 135.12 128.038L134.383 131.126C132.376 139.569 130.098 149.14 127.459 156.855C124.063 166.797 121.661 168.88 121.121 169.238C115.961 169.128 114.434 165.147 113.091 148.7C111.966 134.955 110.294 114.748 91.9315 111.75L84.0467 124.683C84.9748 124.367 85.9357 124.174 86.9558 124.167H87.0611C97.6641 124.167 99.4149 131.992 100.876 149.786C101.988 163.4 103.522 182.047 121.351 182.047H121.398C133.995 182.027 139.431 163.084 146.289 134.206L147.02 131.139C149.244 121.878 148.915 115.229 148.652 109.893C148.409 105.074 148.257 101.897 149.975 98.1704C169.371 56.201 165.995 32.7411 159.749 20.4473Z" fill="#0D3082"/>
<path d="M54.4314 195.01C41.821 179.849 0.692383 131.368 0.692383 102.834C0.692383 69.2598 26.0975 41.9495 57.3273 41.9495C88.5572 41.9495 113.962 69.2598 113.962 102.834C113.962 131.368 72.8337 179.842 60.2233 195.01C59.4927 195.89 58.4331 196.392 57.3208 196.392C56.215 196.392 55.162 195.89 54.4314 195.01Z" fill="white"/>
<path d="M105.505 103.289C105.505 74.1566 83.4564 50.4629 56.3599 50.4629C29.2633 50.4629 7.21484 74.1635 7.21484 103.289C7.21484 128.048 42.907 172.899 53.8391 186.059C54.4709 186.822 55.3924 187.262 56.3533 187.262C57.3142 187.262 58.2356 186.822 58.8675 186.059C69.8127 172.906 105.505 128.048 105.505 103.289ZM33.9165 99.1705C33.9165 85.199 44.7959 73.8266 58.1764 73.8266C71.5568 73.8266 82.4363 85.1921 82.4363 99.1705C82.4363 113.149 71.5568 124.514 58.1764 124.514C44.7959 124.514 33.9165 113.142 33.9165 99.1705Z" fill="#FC5122"/>
<path d="M58.1669 114.936C66.5018 114.936 73.2586 107.877 73.2586 99.1696C73.2586 90.4623 66.5018 83.4036 58.1669 83.4036C49.832 83.4036 43.0752 90.4623 43.0752 99.1696C43.0752 107.877 49.832 114.936 58.1669 114.936Z" fill="#014888"/>
<path d="M58.1669 114.936C66.5018 114.936 73.2586 107.877 73.2586 99.1696C73.2586 90.4623 66.5018 83.4036 58.1669 83.4036C49.832 83.4036 43.0752 90.4623 43.0752 99.1696C43.0752 107.877 49.832 114.936 58.1669 114.936Z" fill="#FC5122"/>
</svg>
