<svg width="36" height="64" viewBox="0 0 36 64" fill="none" xmlns="http://www.w3.org/2000/svg">
<path d="M31.0149 15.6396C30.3698 12.99 28.2545 10.8314 25.6237 10.1482C23.7375 9.65834 21.9322 10.447 20.4006 11.5738C20.2102 11.7138 19.9928 11.7923 19.7854 11.8949L21.4447 12.9619C21.8795 13.2414 22.0061 13.8214 21.726 14.2574C21.4647 14.6646 20.8899 14.8351 20.4305 14.5386L14.5412 10.7523C13.3283 10.1165 11.9994 9.79135 10.6266 10.1482C7.9957 10.832 5.88046 12.99 5.23534 15.6396C4.64179 18.0783 5.21073 20.3746 6.49511 22.1101C7.86386 23.9599 8.40996 26.1332 8.62148 28.4002C8.87929 31.1635 9.22676 33.9174 9.84844 36.6221L10.3055 38.6113C10.4924 39.424 11.2131 40 12.0439 40C12.8625 40 13.5762 39.4404 13.7748 38.643L15.7945 30.5324C16.0617 29.459 17.0227 28.7066 18.1242 28.7066C19.2258 28.7066 20.1867 29.4596 20.4539 30.5324L22.4737 38.643C22.6723 39.4404 23.386 40 24.2045 40C25.0354 40 25.7561 39.424 25.943 38.6113L26.4 36.6221C27.0217 33.918 27.3686 31.1635 27.627 28.4002C27.8385 26.1326 28.3846 23.9599 29.7534 22.1101C31.0395 20.3752 31.6084 18.0789 31.0149 15.6396Z" fill="#E1E1E1"/>
</svg>
