<svg width="28" height="30" viewBox="0 0 28 30" fill="none" xmlns="http://www.w3.org/2000/svg">
<g clip-path="url(#clip0_1553_5793)">
<path d="M26.8898 5.63959C26.2447 2.98998 24.1295 0.831389 21.4986 0.148185C19.6125 -0.341658 17.8072 0.447014 16.2756 1.57377C16.0851 1.71381 15.8678 1.79233 15.6603 1.89487L17.3197 2.96186C17.7545 3.24135 17.881 3.82143 17.601 4.25737C17.3396 4.66459 16.7648 4.8351 16.3055 4.53862L10.4162 0.752287C9.20331 0.116545 7.8744 -0.20865 6.50155 0.148185C3.87069 0.831975 1.75546 2.98998 1.11034 5.63959C0.516787 8.07826 1.08573 10.3746 2.37011 12.1101C3.73886 13.9599 4.28495 16.1331 4.49647 18.4001C4.75429 21.1634 5.10175 23.9173 5.72343 26.622L6.18046 28.6113C6.36737 29.424 7.08808 29.9999 7.91894 29.9999C8.73749 29.9999 9.45116 29.4404 9.6498 28.6429L11.6695 20.5324C11.9367 19.4589 12.8976 18.7066 13.9992 18.7066C15.1008 18.7066 16.0617 19.4595 16.3289 20.5324L18.3486 28.6429C18.5473 29.4404 19.2609 29.9999 20.0795 29.9999C20.9103 29.9999 21.631 29.424 21.818 28.6113L22.275 26.622C22.8967 23.9179 23.2435 21.1634 23.5019 18.4001C23.7135 16.1326 24.2596 13.9599 25.6283 12.1101C26.9144 10.3751 27.4834 8.07885 26.8898 5.63959Z" fill="#FC5122"/>
</g>
<defs>
<clipPath id="clip0_1553_5793">
<rect width="26.25" height="30" fill="white" transform="translate(0.875)"/>
</clipPath>
</defs>
</svg>
